<?xml version="1.0" encoding="utf-8"?>
<!-- Generator: Adobe Illustrator 16.0.0, SVG Export Plug-In . SVG Version: 6.00 Build 0)  -->
<!DOCTYPE svg PUBLIC "-//W3C//DTD SVG 1.1//EN" "http://www.w3.org/Graphics/SVG/1.1/DTD/svg11.dtd">
<svg version="1.1" id="Capa_1" xmlns="http://www.w3.org/2000/svg" xmlns:xlink="http://www.w3.org/1999/xlink" x="0px" y="0px"
	 width="192.973px" height="150.5px" viewBox="0 0 192.973 150.5" enable-background="new 0 0 192.973 150.5" xml:space="preserve">
<g opacity="0.5">
	<path d="M34.725,86.736c-0.297-0.053-0.582-0.092-0.876-0.142c3.176-1.901,6.046-4.478,8.282-9.678
		c0.027-0.048,0.058-0.095,0.083-0.144c2.45-4.435,3.228-10.999,3.221-17.613c0,0-0.893-6.644-2.639-7.625
		c-3.507-1.972-5.499,0.188-6.586,2.557c1.051,2.254,1.588,6.236,1.588,6.236c0.006,6.614-0.771,13.177-3.221,17.612
		c-0.026,0.05-0.058,0.096-0.083,0.145c-1.542,3.588-3.387,5.926-5.425,7.655c-0.678-20.395-3.807-37.387-3.807-37.388
		c-0.937-2.199-2.675-2.374-6.612,0.268c-2.313,1.549-4.317,4.542-6.014,8.072c-1.147,2.533-2.103,4.972-2.915,7.316
		c-0.827,2.471-1.528,4.926-2.099,7.134C6.196,77.068,5.767,82.137,5.779,86.14c4.855-0.438,4-8.117,5.765-12.943
		c2.264-6.19,5.249-13.691,5.249-13.691s10.462,59.498-5.646,78.674c-1.486,1.771-6.923,2.855-5.17,4.201
		c10.113,7.762,14.423-2.719,14.423-2.719c0.249-0.318,0.497-0.65,0.742-0.998c6.743-13.091,8.337-32.205,8.014-49.483
		c22.414,5.511,22.487,19.023,20.043,24.395c-0.309,0.682,0.005-0.037-0.309,0.682c-3.114,7.137-9.657,12.998,0.479,7.949
		c3.448-1.717,5.926-4.254,7.084-6.654C60.542,107.084,61.491,91.482,34.725,86.736z"/>
	<path d="M187.205,63.367l-3.755,3.246c0,0-3.556-2.477-3.77-11.617c-0.208-9.14-0.08-13.519-6.759-9.983
		c-6.688,3.538-12.401,21.225-12.401,21.225s-1.201-6.221,2.233-15.1c2.683-10.807,9.862-9.402,11.786-10.51
		c0.403-0.238-0.135-0.214-0.557-0.141c-2.083-0.472-9.804-1.64-16.303,5.033c-7.592,7.795-9.137,19.089-1.684,23.856
		c7.45,4.765,7.088-3.098,9.336-7.352c2.252-4.255,5.151-9.393,5.151-9.393l3.294,14.485c0,0,0.117,0.981,0.718,2.049
		c-2.322,4.851-6.143,11.532-10.47,13.866c-7.081,3.825-9.953-1.906-11.796-6.682c-1.844-4.773-4.891-18.852-2.544-31.198
		c2.348-12.35-7.088-9.293-7.088-9.293l-0.025,0.064c-1.576,0.177-4.063,1.447-6.283,6.735c-5.188,12.356-6.774,16.633-7.571,20.21
		c-0.42-1.441-0.783-3.021-0.946-4.777c-0.787-8.542,2.302-17.993-3.66-20.512c-5.967-2.516-6.65,0.966-6.65,0.966
		s-0.577,19.333,2.008,26.819c0.495,1.435,0.908,2.782,1.295,4.004l0.084,0.268c1.445,4.548,2.559,7.2,6.251,5.528
		c0.169,0.785,0.697,0.088,1.146-0.604c2.269-1.364,2.79-2.893,2.55-4.757c0.633-1.013,3.944-10.032,7.111-18.492
		c0.676,5.493,2.333,17.837,4.257,23.714c2.518,7.688,8.081,15.735,18.107,12.356c8.695-2.929,13.1-10.261,15.72-16.53
		c1.161,0.825,2.926,1.299,5.592,0.714C188.716,69.994,187.205,63.367,187.205,63.367z"/>
	<path d="M106.99,64.691c-0.377-0.667-1.961-1.375-1.961-1.375s-0.842,1.666-1.445,4.398c-1.673-7.414-3.891-17.49-4.018-19.319
		c-0.204-2.953-4.7-7.022-5.949-3.272c-0.001,0.006-0.004,0.011-0.005,0.016c-0.533,0.294-1.133,0.908-1.737,1.948
		c0,0-1.473,3.084-3.814,6.298c-0.799-1.144-1.773-1.508-2.896-1.504c-0.34-0.128-1-0.01-1.716,0.201
		c-0.267,0.055-0.541,0.112-0.821,0.175l0.024,0.09c-1.04,0.367-1.976,0.802-1.976,0.802s-0.939,1.213-1.729,2.554
		c-1.718,3.906,0.03,4.998,1.461,5.152c-0.015-0.055-0.022-0.116-0.038-0.171c0.932,0.195,2.438-0.081,5.339-1.486
		c0.372-0.175,0.686-0.354,1.029-0.531c0.578,1.805,0.614,4.307,0.567,7.796c-0.908-2.592-2.4-5.349-2.4-5.349
		s2.008,7.679-1.027,18.827c-0.355,1.239-0.869,2.419-1.463,3.494c-1.339-1.737-3.055-4.962-4.014-10.705
		c-1.719-10.344-2.297-15.338-8.833-10.157c-6.543,5.185-9.732,26.265-9.732,26.265s-2.297-6.855-0.093-17.537
		c1.087-12.738,8.963-12.394,10.831-13.991c0.391-0.34-0.176-0.22-0.614-0.061c-2.291-0.173-10.712-0.159-16.541,8.556
		c-6.809,10.176-6.605,23.269,2.111,27.381c8.715,4.119,7.045-4.747,8.741-9.973c1.7-5.226,3.947-11.566,3.947-11.566l5.882,15.877
		c0,0,1.699,6.712,9.037,3.693c0.121-0.05,0.23-0.104,0.346-0.157l0.097,0.517c0.265-0.313,0.503-0.626,0.746-0.939
		c3.066-1.723,3.869-4.308,3.934-6.38c-0.006-0.011-0.013-0.022-0.019-0.033c1.634-3.58,2.233-6.676,2.447-8.439
		c0.522-5.322,0.019-13.154-1.21-18.671l0.005,0l-0.06-0.261c1.225-1.085,2.411-2.325,3.43-3.753
		c0.153-0.214,0.276-0.416,0.415-0.625c1.088,5.836,3.644,19.599,4.41,24.284c0.859,5.264,3.848,14.083,7.099,12.545
		c1.229-0.091,3.365-0.891,2.936-5.462c-0.023-0.242-0.038-0.504-0.058-0.766c0.001-0.465-0.02-0.923-0.077-1.37
		c-0.203-4.852,0.122-11.562,0.314-14.887L106.99,64.691z M83.787,56.718c-0.729,0.165-0.732-0.268-0.237-1.224
		c0.521,0.079,1.065,0.302,1.604,0.735C84.544,56.475,84.046,56.657,83.787,56.718z"/>
	<path d="M114.214,43.429c-0.599-0.707-1.37-1.251-2.37-1.593c-6.127-2.091-6.567,1.43-6.567,1.43s0.781,19.324,3.884,26.612
		c0.595,1.395,1.101,2.711,1.572,3.903l0.103,0.261c1.761,4.436,3.057,7.003,6.625,5.077c0.221,0.771,0.7,0.039,1.098-0.682
		c0.809-0.568,1.372-1.14,1.743-1.729c-0.838-2.417-1.739-5.455-2.472-8.94C115.438,61.628,114.487,48.301,114.214,43.429z"/>
	<path d="M106.073,39.191c1.791,1.364,7.056-3.03,7.056-3.03c-0.182-2.18-0.303-4.067-0.377-5.354
		c-0.597-0.707-1.369-1.251-2.368-1.593c-6.13-2.091-6.569,1.429-6.569,1.429S102.773,36.68,106.073,39.191z"/>
</g>
<g>
	<path fill="#FFFFFF" d="M37.8,82.606c-0.297-0.053-0.582-0.092-0.876-0.142c3.176-1.901,6.046-4.478,8.282-9.678
		c0.027-0.048,0.058-0.095,0.083-0.144c2.45-4.435,3.228-10.999,3.221-17.613c0,0-0.893-6.644-2.639-7.625
		c-3.507-1.972-5.499,0.188-6.586,2.557c1.051,2.254,1.588,6.236,1.588,6.236c0.006,6.614-0.771,13.177-3.221,17.612
		c-0.026,0.05-0.058,0.096-0.083,0.145c-1.542,3.588-3.387,5.926-5.425,7.655c-0.678-20.395-3.807-37.387-3.807-37.388
		c-0.937-2.199-2.675-2.374-6.612,0.268c-2.313,1.549-4.317,4.542-6.014,8.072c-1.147,2.533-2.103,4.972-2.915,7.316
		c-0.827,2.471-1.528,4.926-2.099,7.134c-1.426,5.927-1.855,10.996-1.843,14.999c4.855-0.438,4-8.117,5.765-12.943
		c2.264-6.19,5.249-13.691,5.249-13.691s10.462,59.499-5.646,78.674c-1.486,1.771-6.923,2.855-5.17,4.201
		c10.113,7.762,14.423-2.719,14.423-2.719c0.249-0.318,0.497-0.65,0.742-0.998c6.743-13.092,8.337-32.206,8.014-49.483
		c22.414,5.511,22.487,19.022,20.043,24.396c-0.309,0.682,0.005-0.037-0.309,0.682c-3.114,7.137-9.657,12.998,0.479,7.949
		c3.448-1.717,5.926-4.254,7.084-6.654C63.617,102.955,64.566,87.353,37.8,82.606z"/>
	<path fill="#FFFFFF" d="M190.28,59.238l-3.755,3.246c0,0-3.556-2.477-3.77-11.617c-0.208-9.14-0.08-13.519-6.759-9.983
		c-6.688,3.538-12.401,21.225-12.401,21.225s-1.201-6.221,2.233-15.1c2.683-10.807,9.862-9.402,11.786-10.51
		c0.403-0.238-0.135-0.214-0.557-0.141c-2.083-0.472-9.804-1.64-16.303,5.033c-7.592,7.795-9.137,19.089-1.684,23.856
		c7.45,4.765,7.088-3.098,9.336-7.352c2.252-4.255,5.151-9.393,5.151-9.393l3.294,14.485c0,0,0.117,0.981,0.718,2.049
		c-2.322,4.851-6.143,11.532-10.47,13.866c-7.081,3.825-9.953-1.906-11.796-6.682c-1.844-4.773-4.891-18.852-2.544-31.198
		c2.348-12.35-7.088-9.293-7.088-9.293l-0.025,0.064c-1.576,0.177-4.063,1.447-6.283,6.735c-5.188,12.356-6.774,16.633-7.571,20.21
		c-0.42-1.441-0.783-3.021-0.946-4.777c-0.787-8.542,2.302-17.993-3.66-20.512c-5.967-2.516-6.65,0.966-6.65,0.966
		s-0.577,19.333,2.008,26.819c0.495,1.435,0.908,2.782,1.295,4.004l0.084,0.268c1.445,4.548,2.559,7.2,6.251,5.528
		c0.169,0.785,0.697,0.088,1.146-0.604c2.269-1.364,2.79-2.893,2.55-4.757c0.633-1.013,3.944-10.032,7.111-18.492
		c0.676,5.493,2.333,17.837,4.257,23.714c2.518,7.688,8.081,15.735,18.107,12.356c8.695-2.929,13.1-10.261,15.72-16.53
		c1.161,0.825,2.926,1.299,5.592,0.714C191.791,65.865,190.28,59.238,190.28,59.238z"/>
	<path fill="#FFFFFF" d="M110.065,60.562c-0.377-0.667-1.961-1.375-1.961-1.375s-0.842,1.666-1.445,4.398
		c-1.673-7.414-3.891-17.49-4.018-19.319c-0.204-2.953-4.7-7.022-5.948-3.272c-0.002,0.006-0.005,0.011-0.006,0.016
		c-0.532,0.294-1.133,0.908-1.736,1.948c0,0-1.473,3.084-3.814,6.298c-0.799-1.144-1.773-1.508-2.896-1.504
		c-0.34-0.128-1-0.01-1.716,0.201c-0.267,0.055-0.541,0.112-0.821,0.175l0.024,0.09c-1.04,0.367-1.976,0.802-1.976,0.802
		s-0.939,1.213-1.729,2.554c-1.718,3.906,0.03,4.998,1.461,5.152c-0.015-0.055-0.022-0.116-0.038-0.171
		c0.932,0.195,2.438-0.081,5.339-1.486c0.372-0.175,0.686-0.354,1.029-0.531c0.578,1.805,0.614,4.307,0.567,7.796
		c-0.908-2.592-2.4-5.349-2.4-5.349s2.008,7.679-1.027,18.827c-0.355,1.239-0.869,2.419-1.463,3.494
		c-1.339-1.737-3.055-4.962-4.014-10.705c-1.719-10.344-2.297-15.338-8.833-10.157c-6.543,5.185-9.732,26.265-9.732,26.265
		s-2.297-6.855-0.093-17.537c1.087-12.738,8.963-12.394,10.831-13.991c0.391-0.34-0.176-0.22-0.614-0.061
		c-2.291-0.173-10.712-0.159-16.541,8.556c-6.809,10.176-6.605,23.269,2.111,27.381c8.715,4.119,7.045-4.747,8.741-9.973
		c1.7-5.226,3.947-11.566,3.947-11.566l5.882,15.877c0,0,1.699,6.712,9.037,3.693c0.121-0.05,0.23-0.104,0.346-0.157l0.097,0.517
		c0.265-0.313,0.503-0.626,0.746-0.939c3.066-1.723,3.869-4.308,3.934-6.38c-0.006-0.011-0.013-0.022-0.019-0.033
		c1.634-3.58,2.233-6.676,2.447-8.439c0.522-5.322,0.019-13.154-1.21-18.671l0.005,0l-0.06-0.261
		c1.225-1.085,2.411-2.325,3.43-3.753c0.153-0.214,0.276-0.416,0.415-0.625c1.088,5.836,3.644,19.599,4.41,24.284
		c0.859,5.264,3.848,14.083,7.099,12.545c1.229-0.091,3.365-0.891,2.936-5.462c-0.023-0.242-0.038-0.504-0.058-0.766
		c0.001-0.465-0.02-0.923-0.077-1.37c-0.203-4.852,0.122-11.562,0.314-14.887L110.065,60.562z M86.862,52.589
		c-0.729,0.165-0.732-0.268-0.237-1.224c0.521,0.079,1.065,0.302,1.604,0.735C87.619,52.345,87.122,52.527,86.862,52.589z"/>
	<path fill="#FFFFFF" d="M117.289,39.3c-0.599-0.707-1.37-1.251-2.37-1.593c-6.127-2.091-6.567,1.43-6.567,1.43
		s0.781,19.324,3.884,26.612c0.595,1.395,1.101,2.711,1.572,3.903l0.103,0.261c1.761,4.436,3.057,7.003,6.625,5.077
		c0.221,0.771,0.7,0.039,1.098-0.682c0.809-0.568,1.372-1.14,1.743-1.729c-0.838-2.417-1.739-5.455-2.472-8.94
		C118.514,57.499,117.563,44.172,117.289,39.3z"/>
	<path fill="#FFFFFF" d="M109.148,35.062c1.791,1.364,7.056-3.03,7.056-3.03c-0.182-2.18-0.303-4.067-0.377-5.354
		c-0.597-0.707-1.369-1.251-2.368-1.593c-6.13-2.091-6.569,1.429-6.569,1.429S105.849,32.551,109.148,35.062z"/>
</g>
<g opacity="0.5">
	<path d="M87.32,12.871c-0.228-0.19-0.501-0.321-0.837-0.375c-2.053-0.33-2.001,0.809-2.001,0.809s1.296,6.075,2.674,8.213
		c0.264,0.409,0.496,0.798,0.709,1.149l0.047,0.078c0.798,1.308,1.348,2.05,2.372,1.247c0.112,0.232,0.224-0.026,0.311-0.275
		c0.225-0.224,0.371-0.434,0.458-0.642c-0.396-0.719-0.848-1.632-1.269-2.695C88.696,18.565,87.672,14.398,87.32,12.871z"/>
	<path d="M86.583,10.629c-0.177-0.68-0.317-1.271-0.411-1.674c-0.228-0.191-0.501-0.322-0.836-0.375
		c-2.053-0.33-2.001,0.81-2.001,0.81s-0.002,1.967,1.178,2.583C85.154,12.306,86.583,10.629,86.583,10.629z"/>
	<path d="M99.746,11.774l-0.017,0.001c-0.306-0.409-0.992-0.928-2.466-0.881c-3.442,0.109-4.597,0.203-5.475,0.427
		c0.227-0.292,0.492-0.585,0.828-0.845c1.634-1.266,4.117-1.588,3.621-3.52c-0.496-1.932-1.334-1.689-1.334-1.689
		s-4.099,2.22-5.209,3.845c-0.212,0.311-0.42,0.589-0.609,0.844l-0.04,0.057c-0.694,0.952-1.054,1.581-0.079,2.38
		c-0.133,0.142,0.101,0.201,0.32,0.238c0.669,0.45,1.074,0.403,1.42,0.108c0.318,0.048,2.75-0.161,5.042-0.34
		c-1.022,0.859-3.295,2.829-4.184,4.075c-1.162,1.631-1.878,4.134,0.532,6.446c1.918,1.841,3.988,2.24,5.665,2.248l-0.452-0.674
		c-1.259-0.107-2.715-0.39-3.673-1.088c-2-1.456-1.303-2.941-0.629-4.031c0.674-1.088,3.068-3.648,6.025-4.53
		C101.989,13.965,99.746,11.774,99.746,11.774z"/>
	<path d="M82.067,19.82c0,0-0.438-2.05-1.026-2.218c-0.157-0.044-0.499,0.206-0.549,0.362c-0.033,0.099,0.028,0.216,0.04,0.336
		c0.092,0.906,0.107,2.328-0.313,4.076c-0.143,0.56-0.395,1.09-0.689,1.5c-0.087,0.085-0.176,0.193-0.259,0.316
		c-0.264,0.277-0.544,0.453-0.812,0.461c-0.063,0.028-0.144,0.013-0.234-0.035c-0.032-0.011-0.062-0.031-0.091-0.054
		c-0.05-0.035-0.103-0.077-0.155-0.126c-0.117-0.108-0.237-0.25-0.351-0.407c-0.12-0.167-0.241-0.382-0.356-0.651
		c-0.171-0.394-0.327-0.901-0.448-1.528c0,0,1.993-1.723,2.335-2.508c0.044-0.101,0.071-0.274,0.086-0.466
		c-0.004,0.001-0.006,0-0.01,0c0.01-0.079,0.013-0.158,0.019-0.237c0-0.111-0.014-1.752-0.943-2.496
		c-0.273-0.136-0.607-0.189-1.023-0.115c-0.471,0.085-1.011,0.371-1.714,0.768c-0.263,0.149-0.472,0.309-0.643,0.485
		c-0.134,0.123-0.274,0.261-0.416,0.43c-0.44,0.532-0.631,1.428-0.685,2.468c0.04,0.275,0.076,0.542,0.115,0.803
		c0.127,0.897,0.269,1.726,0.62,2.53c0.842,1.925,2.104,3.296,3.589,3.198c-1.177,0.964-2.381-0.348-3.288-1.499
		c-1.006-1.275-3.386-5.207-4.242-9.02c-0.856-3.813-2.815-2.228-2.815-2.228l0.002,0.021c-0.367,0.167-0.828,0.722-0.76,2.443
		c0.162,4.023,0.268,5.401,0.488,6.514c-0.271-0.395-0.542-0.834-0.786-1.341c-1.184-2.464-1.522-5.477-3.275-5.786
		c-1.256-0.22-1.491,0.267-1.523,0.562c-0.053,0.05-0.105,0.098-0.164,0.159c-0.027,0.031-0.055,0.067-0.081,0.102
		c0.436,0.441,0.596,2.207,1.146,4.697c0.256,1.158,0.482,2.571,0.739,4.063l-0.52,0.792c0,0-1.331-0.458-2.21-3.296
		c-0.877-2.839-1.227-4.218-3-2.52c-1.775,1.7-1.989,7.736-1.989,7.736s-0.929-1.837-0.644-4.918
		c-0.123-3.616,2.247-3.814,2.75-4.332c0.105-0.11-0.061-0.054-0.187,0.006c-0.692,0.037-3.21,0.358-4.648,3.021
		c-1.68,3.112-1.16,6.779,1.594,7.607c2.751,0.827,1.94-1.598,2.265-3.127c0.325-1.53,0.775-3.394,0.775-3.394l2.317,4.234
		c0,0,0.124,0.297,0.406,0.577c-0.294,1.722-0.895,4.149-2.04,5.265c-1.873,1.825-3.281,0.289-4.281-1.042
		c-1-1.328-3.203-5.457-3.566-9.524c-0.364-4.068-3.042-2.275-3.042-2.275l-0.002,0.022c-0.477,0.196-1.142,0.813-1.366,2.664
		c-0.523,4.322-0.64,5.801-0.57,6.99c-0.26-0.414-0.514-0.875-0.72-1.409c-1.006-2.6-0.879-5.829-2.967-6.086
		c-2.088-0.256-1.993,0.892-1.993,0.892s1.538,6.094,3.011,8.205c0.281,0.404,0.531,0.789,0.76,1.137l0.05,0.077
		c0.856,1.292,1.44,2.022,2.445,1.171c0.122,0.23,0.225-0.034,0.304-0.29c0.588-0.629,0.615-1.153,0.375-1.714
		c0.108-0.373,0.341-3.486,0.58-6.412c0.699,1.656,2.314,5.368,3.437,7.033c1.47,2.18,3.924,4.2,6.758,2.253
		c2.458-1.688,3.182-4.371,3.444-6.563c0.437,0.154,1.029,0.146,1.812-0.273c0.449-0.242,0.746-0.521,0.945-0.811
		c0.135,0.992,0.515,3.644,0.851,4.611c0.044,0.125,0.362,0.879,0.888,1.292c0.152,0.12,0.123,0.089,0.066,0.039
		c0.315,0.222,0.652,0.371,1.002,0.447c0.571-0.052,0.929-0.587,0.929-0.587s0.176,0.15-0.648-0.872
		c-0.111-0.139-0.242-0.299-0.393-0.483c-0.654-0.799-1.032-1.822-1.327-2.722c-0.681-2.546-1.001-5.454-1.403-7.639
		c0.568,1.246,1.183,2.447,1.721,3.173c1.123,1.511,1.792,2.73,2.486,2.646l0.06-0.014c0.085-0.019,0.17-0.055,0.257-0.116
		c0.009,0.019,0.014,0.037,0.021,0.055l0.311-0.068c-0.006-0.029-0.012-0.058-0.017-0.085c0.053-0.032,0.079-0.188,0.099-0.34
		c0.399-0.568,0.35-1.058,0.074-1.591c0.039-0.341-0.196-3.246-0.401-5.973c0.803,1.571,2.64,5.093,3.793,6.688
		c1.508,2.085,3.805,4.055,5.87,2.331c0.527-0.44,0.906-0.971,1.193-1.545c0.555-0.316,0.978-0.762,1.295-1.283
		c0.63-0.579,0.993-1.489,1.245-2.577c0.001,0.006,0.002,0.016,0.004,0.022c0.045-0.184,0.089-0.371,0.127-0.553
		c-0.003-0.02-0.005-0.042-0.006-0.061C82.067,21.348,82.094,20.616,82.067,19.82z M76.26,19.237
		c0.005-0.175,0.006-0.348,0.02-0.523c0.274-3.465,0.926-1.583,0.926-1.583s0.137,0.479,0.171,1.536
		c-0.017-0.004-0.033-0.007-0.049-0.011c0.029,0.251,0.048,0.494,0.058,0.715c-0.002,0.22-0.009,0.457-0.023,0.712
		c-0.036,0.222-0.037,0.092-0.02-0.016l-0.854,0.961C76.383,20.467,76.308,19.862,76.26,19.237z"/>
	<path d="M38.806,33.414c0,0-1.042-0.152-2.667,0.321c-0.027-0.184-0.051-0.364-0.08-0.55c-0.294-1.521-0.531-3.007-0.794-4.257
		c0-0.002-0.001-0.004-0.001-0.006c0,0,0,0,0,0c-0.05-0.24-0.102-0.471-0.155-0.692c-0.846-3.495-0.738-5.546-2.255-3.986
		c-1.52,1.559-1.551,8.507-1.551,8.507s-0.865-2.345-0.694-5.85c-0.032-0.688-0.001-1.246,0.071-1.716l-2.572,1.953
		c-0.181,1.169-0.153,2.369,0.088,3.461l0.158,0.604c0.369,1.21,1.019,2.234,1.948,2.858c-0.158,0.21-0.321,0.402-0.498,0.547
		c-1.91,1.572-3.116-0.488-3.954-2.215c-0.839-1.728-2.593-6.873-2.617-11.495c-0.024-4.623-2.689-3.286-2.689-3.286l-0.004,0.024
		c-0.465,0.102-1.14,0.625-1.496,2.632c-0.832,4.688-1.058,6.307-1.086,7.648c-0.212-0.525-0.415-1.101-0.568-1.748
		c-0.744-3.146-0.372-6.713-2.319-7.515c-1.395-0.572-1.79-0.069-1.903,0.265c-0.074,0.042-0.146,0.085-0.229,0.143
		c-0.04,0.028-0.08,0.063-0.119,0.096c0.392,0.62,0.129,2.701,0.134,5.718c0.002,1.808-0.159,4.09-0.239,6.453
		c0,0.001-0.001,0.002-0.001,0.002s-0.4,4.509-0.222,5.998c0.019,0.156,0.196,1.108,0.698,1.718c0.144,0.174,0.12,0.134,0.069,0.063
		c0.309,0.335,0.659,0.591,1.043,0.767c0.672,0.084,1.222-0.443,1.222-0.443s0.165,0.218-0.529-1.173
		c-0.093-0.188-0.203-0.406-0.331-0.657c-0.553-1.089-0.731-2.367-0.843-3.48c-0.142-3.115,0.224-6.555,0.313-9.182
		c0.341,1.583,0.746,3.127,1.184,4.101c0.915,2.031,1.38,3.608,2.203,3.686h0.072c0.104-0.001,0.212-0.02,0.328-0.069
		c0.005,0.023,0.006,0.046,0.01,0.069h0.376c0.001-0.035,0-0.069,0.002-0.103c0.069-0.023,0.139-0.197,0.2-0.368
		c0.605-0.555,0.671-1.133,0.488-1.82c0.131-0.384,0.596-3.799,1.05-7.003c0.529,2.02,1.76,6.554,2.689,8.688
		c1.215,2.791,3.37,5.647,6.192,4.177c0.874-0.454,1.543-1.107,2.068-1.864c1.628,0.628,1.035-1.928,1.255-3.448
		c0.247-1.699,0.594-3.756,0.594-3.756s-0.119,2.568,0.987,6.917c-0.078,0.117-0.11,0.239-0.063,0.359
		c0.017,0.04,0.037,0.115,0.057,0.213c-1.072,0.599-2.249,1.455-3.477,2.701c-4.542,4.608-2.67,11.409-1.465,12.924
		c1.122,1.413,3.701,1.815,5.097,1.241c0.07-0.048,0.159-0.095,0.291-0.144c0.983-0.584,1.87-1.302,2.424-3.488
		c0.006-0.017,0.012-0.031,0.018-0.049c0.023-0.064,0.042-0.133,0.064-0.201c0.361-1.607,0.438-3.476,0.402-5.128
		c-0.031-0.743-0.085-1.5-0.153-2.247c0.019,0.076,0.037,0.157,0.056,0.234c-0.043-0.579-0.093-1.079-0.138-1.47
		c-0.03-0.125-0.061-0.248-0.09-0.367c-0.159-1.333-0.349-2.569-0.514-3.548c-0.022-0.181-0.044-0.359-0.07-0.542
		c0.348-0.151,0.692-0.276,1.03-0.379c0.002,0.005,0.004,0.011,0.008,0.013c0.413-0.2,0.962-0.297,1.604-0.368
		C40.617,33.57,38.806,33.414,38.806,33.414z M34.14,48.02c-0.67,1.372-1.979,3.189-3.126,1.307
		c-1.25-2.053-1.856-5.503,0.042-9.483c0.808-1.694,1.852-2.94,2.971-3.845C34.378,38.724,34.816,44.475,34.14,48.02z"/>
</g>
<g>
	<path fill="#FFFFFF" d="M89.439,10.871c-0.228-0.19-0.502-0.321-0.837-0.374c-2.053-0.33-2.001,0.809-2.001,0.809
		s1.297,6.074,2.674,8.213c0.264,0.409,0.496,0.799,0.71,1.149l0.047,0.078c0.798,1.308,1.349,2.05,2.372,1.247
		c0.111,0.231,0.225-0.026,0.311-0.275c0.226-0.225,0.371-0.435,0.459-0.643c-0.396-0.719-0.848-1.632-1.27-2.695
		C90.815,16.565,89.791,12.399,89.439,10.871z"/>
	<path fill="#FFFFFF" d="M88.701,8.629c-0.176-0.68-0.316-1.271-0.41-1.675c-0.228-0.191-0.501-0.322-0.836-0.376
		c-2.054-0.329-2.002,0.811-2.002,0.811s-0.002,1.967,1.179,2.582C87.273,10.305,88.701,8.629,88.701,8.629z"/>
	<path fill="#FFFFFF" d="M101.865,9.774l-0.017,0.002c-0.306-0.409-0.992-0.929-2.466-0.882c-3.442,0.109-4.598,0.203-5.475,0.427
		c0.227-0.291,0.492-0.584,0.828-0.845c1.634-1.266,4.117-1.588,3.621-3.52c-0.496-1.933-1.334-1.689-1.334-1.689
		s-4.1,2.22-5.209,3.845c-0.213,0.311-0.421,0.59-0.609,0.845l-0.04,0.057c-0.694,0.952-1.054,1.581-0.079,2.38
		c-0.133,0.143,0.102,0.201,0.32,0.238c0.67,0.449,1.074,0.402,1.42,0.107c0.318,0.048,2.75-0.16,5.042-0.34
		c-1.022,0.859-3.296,2.828-4.185,4.074c-1.162,1.631-1.878,4.135,0.532,6.446c1.918,1.841,3.988,2.24,5.665,2.248l-0.452-0.674
		c-1.259-0.106-2.716-0.39-3.673-1.088c-2-1.456-1.303-2.941-0.629-4.03s3.068-3.648,6.025-4.531
		C104.108,11.965,101.865,9.774,101.865,9.774z"/>
	<path fill="#FFFFFF" d="M84.186,17.82c0,0-0.438-2.05-1.025-2.218c-0.158-0.045-0.499,0.206-0.549,0.362
		c-0.033,0.099,0.027,0.216,0.039,0.336c0.092,0.906,0.107,2.327-0.313,4.075c-0.143,0.561-0.395,1.091-0.689,1.501
		c-0.087,0.085-0.176,0.192-0.259,0.316c-0.265,0.277-0.544,0.452-0.812,0.461c-0.063,0.028-0.145,0.013-0.234-0.034
		c-0.033-0.012-0.063-0.031-0.092-0.055c-0.051-0.034-0.104-0.076-0.154-0.126c-0.117-0.108-0.238-0.249-0.352-0.407
		c-0.119-0.166-0.241-0.382-0.356-0.65c-0.171-0.395-0.327-0.9-0.448-1.527c0,0,1.993-1.724,2.336-2.509
		c0.043-0.101,0.07-0.274,0.086-0.466c-0.004,0-0.006,0-0.01,0c0.01-0.08,0.012-0.158,0.019-0.238c0-0.11-0.014-1.752-0.942-2.495
		c-0.273-0.136-0.607-0.188-1.023-0.114c-0.471,0.084-1.011,0.371-1.715,0.768c-0.263,0.149-0.472,0.309-0.643,0.485
		c-0.134,0.122-0.274,0.261-0.416,0.431c-0.439,0.531-0.631,1.428-0.684,2.468c0.039,0.274,0.076,0.542,0.114,0.803
		c0.128,0.897,0.269,1.726,0.62,2.53c0.842,1.925,2.104,3.296,3.588,3.198c-1.177,0.964-2.381-0.349-3.287-1.499
		c-1.007-1.275-3.387-5.207-4.242-9.02c-0.855-3.814-2.814-2.229-2.814-2.229l0.002,0.021c-0.367,0.168-0.828,0.723-0.76,2.443
		c0.161,4.023,0.268,5.401,0.487,6.514c-0.271-0.395-0.542-0.834-0.786-1.34c-1.184-2.465-1.521-5.477-3.275-5.787
		c-1.256-0.22-1.49,0.268-1.523,0.563c-0.053,0.05-0.104,0.098-0.164,0.159c-0.027,0.031-0.055,0.067-0.08,0.102
		c0.436,0.441,0.596,2.207,1.146,4.697c0.256,1.157,0.481,2.571,0.739,4.063l-0.521,0.791c0,0-1.331-0.458-2.21-3.296
		c-0.877-2.839-1.227-4.218-3-2.521c-1.775,1.701-1.99,7.736-1.99,7.736s-0.928-1.838-0.643-4.918
		c-0.123-3.616,2.246-3.814,2.749-4.332c0.105-0.111-0.061-0.055-0.187,0.006c-0.692,0.037-3.21,0.357-4.648,3.02
		c-1.68,3.112-1.16,6.779,1.594,7.607c2.752,0.827,1.939-1.598,2.266-3.127c0.324-1.53,0.774-3.395,0.774-3.395l2.317,4.234
		c0,0,0.123,0.297,0.405,0.578c-0.294,1.722-0.896,4.148-2.04,5.264c-1.873,1.825-3.281,0.289-4.281-1.041
		c-1-1.328-3.203-5.457-3.566-9.524c-0.363-4.068-3.041-2.275-3.041-2.275l-0.002,0.022c-0.477,0.195-1.142,0.813-1.366,2.664
		c-0.523,4.322-0.64,5.801-0.57,6.989c-0.26-0.413-0.514-0.874-0.72-1.409c-1.006-2.6-0.88-5.828-2.967-6.086
		c-2.089-0.256-1.994,0.893-1.994,0.893s1.538,6.094,3.012,8.204c0.281,0.404,0.531,0.789,0.76,1.137l0.051,0.077
		c0.855,1.292,1.439,2.021,2.445,1.171c0.121,0.229,0.225-0.034,0.304-0.29c0.589-0.629,0.615-1.152,0.374-1.713
		c0.108-0.373,0.342-3.486,0.58-6.412c0.699,1.656,2.314,5.367,3.438,7.033c1.471,2.18,3.924,4.2,6.758,2.254
		c2.457-1.688,3.182-4.371,3.444-6.563c0.437,0.154,1.029,0.146,1.812-0.273c0.449-0.241,0.746-0.521,0.945-0.811
		c0.135,0.991,0.516,3.644,0.852,4.61c0.043,0.126,0.361,0.88,0.887,1.292c0.152,0.12,0.123,0.089,0.066,0.038
		c0.315,0.223,0.652,0.371,1.002,0.447c0.57-0.052,0.93-0.588,0.93-0.588s0.176,0.15-0.648-0.871
		c-0.111-0.139-0.242-0.299-0.393-0.483c-0.654-0.799-1.033-1.822-1.327-2.722c-0.681-2.547-1.001-5.455-1.403-7.639
		c0.568,1.245,1.183,2.447,1.721,3.172c1.123,1.512,1.792,2.73,2.486,2.646l0.059-0.014c0.086-0.02,0.171-0.055,0.258-0.117
		c0.01,0.02,0.014,0.037,0.021,0.056l0.311-0.067c-0.006-0.029-0.012-0.059-0.018-0.086c0.053-0.032,0.08-0.188,0.1-0.34
		c0.398-0.568,0.35-1.058,0.074-1.591c0.038-0.341-0.197-3.245-0.402-5.974c0.803,1.572,2.641,5.094,3.794,6.688
		c1.509,2.086,3.806,4.055,5.87,2.331c0.526-0.44,0.905-0.972,1.192-1.545c0.555-0.316,0.978-0.762,1.296-1.282
		c0.629-0.579,0.992-1.489,1.244-2.578c0.002,0.007,0.002,0.017,0.004,0.023c0.045-0.184,0.09-0.371,0.127-0.554
		c-0.002-0.021-0.005-0.042-0.006-0.062C84.186,19.348,84.213,18.616,84.186,17.82z M78.379,17.237
		c0.006-0.175,0.006-0.348,0.02-0.522c0.274-3.466,0.927-1.583,0.927-1.583s0.137,0.479,0.171,1.537
		c-0.016-0.004-0.033-0.008-0.049-0.012c0.029,0.252,0.049,0.494,0.058,0.716c-0.003,0.22-0.009,0.457-0.022,0.712
		c-0.037,0.223-0.037,0.092-0.021-0.016l-0.854,0.961C78.502,18.467,78.427,17.862,78.379,17.237z"/>
	<path fill="#FFFFFF" d="M40.926,31.415c0,0-1.042-0.152-2.668,0.32c-0.026-0.184-0.051-0.364-0.08-0.55
		c-0.293-1.521-0.53-3.007-0.794-4.257c-0.001-0.002-0.001-0.004-0.001-0.006c-0.001,0-0.001,0-0.001,0
		c-0.05-0.24-0.102-0.471-0.155-0.692c-0.846-3.495-0.738-5.546-2.256-3.985c-1.52,1.559-1.551,8.507-1.551,8.507
		s-0.864-2.345-0.693-5.85c-0.033-0.688-0.002-1.245,0.07-1.716l-2.572,1.953c-0.18,1.17-0.152,2.369,0.089,3.461l0.157,0.605
		c0.369,1.21,1.02,2.234,1.948,2.857c-0.157,0.21-0.321,0.402-0.497,0.547c-1.91,1.572-3.116-0.488-3.954-2.215
		c-0.839-1.729-2.593-6.873-2.616-11.496c-0.025-4.622-2.689-3.285-2.689-3.285l-0.004,0.023c-0.465,0.102-1.14,0.625-1.496,2.633
		c-0.831,4.688-1.057,6.307-1.086,7.648c-0.211-0.525-0.414-1.101-0.568-1.748c-0.743-3.146-0.371-6.713-2.319-7.515
		c-1.395-0.572-1.79-0.069-1.903,0.265c-0.074,0.043-0.146,0.086-0.229,0.143c-0.04,0.027-0.08,0.063-0.119,0.096
		c0.392,0.62,0.129,2.701,0.134,5.719c0.002,1.808-0.159,4.09-0.239,6.452c0,0.001-0.001,0.003-0.001,0.003s-0.4,4.508-0.222,5.998
		c0.019,0.156,0.196,1.107,0.698,1.717c0.144,0.175,0.12,0.135,0.069,0.064c0.309,0.334,0.659,0.59,1.043,0.767
		c0.672,0.084,1.222-0.442,1.222-0.442s0.165,0.217-0.529-1.174c-0.093-0.188-0.203-0.405-0.331-0.656
		c-0.553-1.09-0.731-2.367-0.843-3.48c-0.142-3.115,0.224-6.555,0.313-9.182c0.341,1.583,0.746,3.127,1.184,4.101
		c0.915,2.03,1.38,3.608,2.203,3.687h0.071c0.104-0.002,0.213-0.021,0.328-0.07c0.006,0.023,0.007,0.047,0.011,0.07h0.376
		c0.001-0.035,0-0.07,0.002-0.104c0.069-0.023,0.14-0.197,0.2-0.367c0.604-0.556,0.671-1.134,0.487-1.82
		c0.131-0.384,0.596-3.799,1.051-7.003c0.528,2.021,1.76,6.554,2.688,8.688c1.215,2.791,3.37,5.647,6.192,4.178
		c0.873-0.455,1.543-1.107,2.068-1.864c1.629,0.628,1.035-1.928,1.256-3.448c0.246-1.699,0.594-3.756,0.594-3.756
		s-0.119,2.567,0.987,6.917c-0.078,0.117-0.11,0.239-0.063,0.358c0.017,0.041,0.036,0.115,0.057,0.213
		c-1.071,0.6-2.249,1.455-3.478,2.701c-4.541,4.608-2.67,11.409-1.465,12.925c1.123,1.413,3.701,1.815,5.098,1.241
		c0.07-0.049,0.159-0.096,0.291-0.145c0.982-0.584,1.869-1.302,2.424-3.487c0.006-0.017,0.012-0.031,0.018-0.049
		c0.023-0.063,0.043-0.134,0.064-0.2c0.361-1.607,0.438-3.477,0.401-5.129c-0.031-0.742-0.085-1.499-0.153-2.246
		c0.019,0.076,0.037,0.156,0.056,0.234c-0.043-0.579-0.093-1.08-0.138-1.471c-0.031-0.125-0.061-0.248-0.09-0.367
		c-0.16-1.334-0.35-2.568-0.515-3.549c-0.022-0.18-0.044-0.359-0.069-0.541c0.348-0.151,0.691-0.277,1.029-0.379
		c0.003,0.005,0.005,0.01,0.008,0.013c0.413-0.2,0.963-0.297,1.605-0.368C42.736,31.571,40.926,31.415,40.926,31.415z M36.26,46.02
		c-0.67,1.371-1.979,3.189-3.127,1.307c-1.25-2.053-1.855-5.503,0.043-9.483c0.808-1.694,1.852-2.94,2.971-3.845
		C36.497,36.723,36.936,42.475,36.26,46.02z"/>
</g>
</svg>
