<?xml version="1.0" encoding="utf-8"?>
<!-- Generator: Adobe Illustrator 16.0.0, SVG Export Plug-In . SVG Version: 6.00 Build 0)  -->
<!DOCTYPE svg PUBLIC "-//W3C//DTD SVG 1.1//EN" "http://www.w3.org/Graphics/SVG/1.1/DTD/svg11.dtd">
<svg version="1.1" id="Capa_1" xmlns="http://www.w3.org/2000/svg" xmlns:xlink="http://www.w3.org/1999/xlink" x="0px" y="0px"
	 width="1028.262px" height="603.262px" viewBox="0 0 1028.262 603.262" enable-background="new 0 0 1028.262 603.262"
	 xml:space="preserve">
<path fill-rule="evenodd" clip-rule="evenodd" d="M938.995,319.172c-6.603-8.004-15.546-12.232-25.45-15.316
	c0.426,0.742,0.852,1.486,1.267,2.209c-1.822-0.105-3.788-0.219-5.753-0.333c-0.137,0.374-0.272,0.748-0.409,1.122
	c2.92,1.338,5.84,2.676,8.76,4.014c-0.054,0.186-0.108,0.371-0.162,0.557c-9.235-1.301-18.471-2.602-28.424-4.004
	c-0.245,3.14-0.5,6.404-0.773,9.908c-5.386-0.509-10.577-1-16.028-1.516c0.513-5.063,1-9.878,1.633-16.134
	c-4.075-0.833-9.084-2.407-14.159-2.665c-2.591-0.133-5.931,1.464-7.845,3.37c-6.816,6.786-6.641,6.964-13.865,9.673
	c1.693,1.426,3.263,2.748,4.832,4.069c-0.24,0.425-0.48,0.851-0.721,1.275c-1.37-0.798-2.982-1.354-4.066-2.439
	c-3.217-3.216-10.009-3.788-13.466-1.022c-3.915,3.131-8.367,4.965-13.326,5.98c-1.477,0.303-2.31,2.994-3.813,4.063
	c-4.016,2.852-8.234,5.416-13.58,8.877c3.598,0.682,5.918,1.395,8.267,1.506c4.62,0.219,9.284,0.436,13.876,0.031
	c4.527-0.398,9.08-2.576,13.454-2.168c7.31,0.68,13.836-2.055,20.745-2.953c3.928-0.511,7.959-0.967,11.873-0.628
	c3.908,0.339,7.795,1.489,11.573,2.663c5.815,1.807,11.42,4.448,17.332,5.725c3.155,0.682,6.776-0.713,10.173-1.256
	c1.705-0.273,3.379-0.738,5.067-1.116c0.177,0.529,0.353,1.059,0.528,1.588c-0.774,0.709-1.549,1.418-2.51,2.299
	c0.659,0.62,1.425,1.339,2.791,2.622c-2.319,0-3.898,0-5.479,0c9.233,7.951,21.103,10.006,31.487,15.348
	c2.982-3.912,7.356-4.715,11.932-4.543c0.73,0.028,1.39,1.936,1.604,2.256c3.787,1.754,7.088,3.354,10.448,4.816
	c2.99,1.304,7.074,0.99,7.008,6.212c-0.014,1.086,3.174,2.284,4.959,3.304c2.788,1.592,3.128,3.42,1.26,6.102
	c-3.13,4.49-5.883,9.245-9.058,13.703c-0.969,1.36-2.656,2.545-4.257,3.068c-13.44,4.4-27.273,5.805-41.278,4.109
	c-19.358-2.346-38.26-0.895-57.247,3.766c-12.977,3.185-26.404,4.99-39.976,3.609c-4.446-0.452-8.493,5.512-6.773,9.633
	c1.142,2.736-1.614,7.451-5.376,8.063c-15.306,2.484-30.314,6.988-46.253,4.766c-10.132-1.414-20.598-1.965-30.53,1.949
	c-4.681,1.846-9.22,4.053-13.985,6.168c10.768,3.387,21.363,6.586,31.853,10.105c2.891,0.969,7.405,0.908,6.394,6.275
	c-0.071,0.383,1.538,1.08,3.56,2.428c-2.316-0.412-3.564-1.029-4.037-0.658c-6.263,4.916-12.088-0.932-18.148-0.645
	c-5.15,0.242-10.321,0.049-15.483,0.049c-0.026,0.631-0.053,1.26-0.079,1.889c2.694,0.373,5.39,0.746,8.072,1.117
	c-1.719,0.941-3.47,1.9-6.293,3.447c2.299,0.43,3.55,0.664,4.818,0.9c0.049,0.293,0.101,0.609,0.152,0.926
	c-2.443-0.264-4.888-0.527-8.053-0.867c0.168-0.367-0.275,0.604-0.865,1.896c-6.804-7.924-16.129-5.43-24.383-7.479
	c-0.104,0.439-0.209,0.879-0.313,1.316c2.475,1.014,5.179,1.676,7.372,3.117c3.89,2.553,7.099,6.467,11.264,8.203
	c6.584,2.744,13.736,4.113,20.619,6.164c2.367,0.705,4.646,1.707,6.966,2.574h0.009c-1.072,1.123-2.145,2.246-3.705,3.881
	c-10.074-2.326-21.324-4.924-33.886-7.824c1.159,2.57,1.816,4.023,2.591,5.738c-2.185,3.662-5.247,1.053-8.522,0.502
	c0.868-0.705,1.479-1.201,2.836-2.303c-4.225-1.625-7.197-4.531-12.038-1.545c-1.588,0.98-5.107-1.082-7.713-1.857
	c-4.465-1.326-8.82-3.379-13.374-3.992c-17.387-2.342-34.8-4.67-52.279-6.02c-5.212-0.402-10.673,2.414-16.021,3.756
	c0.014,0.566,0.027,1.133,0.041,1.701c2.098,0.391,4.18,0.949,6.295,1.143c10.552,0.971,21.129,1.695,31.653,2.898
	c1.798,0.207,3.405,2.279,5.043,3.563c0.645,0.506,1.026,1.547,1.709,1.758c1.474,0.457,3.077,0.734,4.601,0.645
	c0.441-0.027,1.348-1.885,1.082-2.322c-0.706-1.166-1.771-2.422-2.988-2.91c-2.617-1.051-5.419-1.645-7.825-3.525
	c36.341,6.902,72.682,13.805,109.022,20.707c0.032,0.436,0.064,0.873,0.096,1.311c-5.274,2.367-10.498,4.857-15.836,7.07
	c-6.915,2.869-14.297,4.842-20.789,8.439c-7.363,4.082-13.172,0.861-19.472-1.844c-1.144-0.49-2.607-0.232-3.922-0.332
	c-0.731-0.055-1.99,0.07-2.11-0.236c-1.631-4.172-4.424-2.178-7.082-1.563c-1.548,0.357-3.244,0.504-4.803,0.27
	c-1.881-0.281-3.925-2.342-4.816,1.4c-0.098,0.412-3.296,0.137-5.054,0.088c-1.702-0.045-3.401-0.211-5.101-0.324
	c-0.047,0.496-0.094,0.992-0.141,1.488c6.237,1.543,12.476,3.088,18.713,4.633c-0.071,0.314-0.143,0.629-0.214,0.943
	c-3.65-0.625-7.302-1.25-10.952-1.875c2.327,1.689,3.636,5.338,7.574,3.219c1.086-0.586,3.425,1.559,5.292,1.932
	c2.521,0.504,5.142,0.506,7.72,0.723c0.03,0.666,0.061,1.332,0.091,2c-3.916,0.439-7.832,0.877-12.349,1.385
	c0-0.717-0.104-0.158,0.027,0.338c0.146,0.559,0.504,1.063,1.399,2.836c-19.696,3.311-38.675,6.5-57.242,9.619
	c-1.438-2.754-2.42-4.635-3.779-7.238c1.677-0.322,3.149-0.527,4.579-0.895c2.684-0.688,5.287,0.221,7.74-3.32
	c1.999-2.885,7.775-3.15,12.287-4.719c-0.124-0.311-0.492-1.221-0.863-2.145c4.198-1.973,4.198-1.973,12.99-0.305
	c-2.04-7.533-3.643-7.568-10.615-9.068c-14.301-3.076-28.912-0.035-43.24-3.354c-4.753-1.102-11.064-2.336-16.082,1.85
	c-1.631,1.359-13.253-1.168-15.109-2.338c-2.063-1.303-4.468-2.07-6.735-3.043c-9.563-4.104-19.124-8.193-29.778-8.541
	c-2.791-0.092-5.583-0.725-8.356-0.621c-1.522,0.057-3.008,1.127-5.113,1.986c3.182,1.947,5.465,3.346,7.747,4.742
	c-0.1,0.203-0.201,0.408-0.302,0.611c-2.704-0.461-5.409-0.922-8.112-1.385c-0.267,0.186-0.7,0.32-0.776,0.566
	c-4.042,13.082-16.048,12.318-26.037,14.795c-10.769,2.67-21.659,4.84-32.489,7.266c-7.709,1.727-15.405,3.512-23.201,5.291
	c1.668,3.098,3.563,3.434,7.392,2.277c5.097-1.537,10.755-1.512,16.181-1.598c8.905-0.141,17.817,0.148,26.725,0.332
	c0.672,0.014,1.331,0.641,1.827,2.104c-11.517,0-23.034,0-34.552,0c-0.031,0.25-0.063,0.498-0.094,0.746
	c2.474,0.414,5.041,0.543,7.399,1.311c3.283,1.07,6.313,3.402,9.623,3.811c8.171,1.008,16.438,1.229,25.031,1.789
	c-0.022,0.135-0.228,1.396-0.54,3.314c2.876-0.496,5.538-0.943,8.195-1.418c2.296-0.41,4.593-1.246,6.878-1.213
	c15.242,0.232,30.493,0.402,45.72,1.066c16.764,0.732,33.314-0.779,49.835-3.363c2.988-0.467,6.112-0.066,9.296,0.867
	c-3.287,0.439-6.563,1.076-9.863,1.291c-30.912,2-59.911,11.977-89.177,21.006c-29.01,8.949-58.753,14.766-88.767,19.152
	c-3.433,0.502-7.054-0.285-10.587-0.475c-0.018-0.432-0.034-0.863-0.052-1.293c1.565-0.293,3.131-0.586,4.697-0.879
	c-0.017-0.314-0.033-0.631-0.05-0.947c-5.062,0-10.215-0.623-15.166,0.115c-16.057,2.393-32.041,5.275-48.047,8.006
	c-1.136,0.193-2.203,0.771-3.336,1.006c-6.45,1.33-12.907,3.646-19.37,3.672c-10.865,0.043-20.514,3.693-30.225,7.596
	c-8.701,3.496-9.225,3.439-15.399-3.295c-8.082-8.814-16.182-17.613-24.066-26.193c16.733-5.439,33.182-10.785,51.238-16.654
	c-2.489-1.063-3.697-2.09-4.731-1.938c-9.794,1.443-19.509,3.533-29.338,4.594c-31.297,3.381-62.633,6.383-93.951,9.563
	c-30.976,3.145-61.948,6.328-92.922,9.494c-16.068,1.643-32.136,3.303-48.209,4.902c-1.867,0.186-3.769,0.023-5.654,0.023
	c-0.131-0.404-0.262-0.809-0.393-1.213c8.438-5.508,17.223-10.559,25.216-16.65c8.135-6.199,15.489-13.424,23.185-20.199
	c-0.236-0.434-0.473-0.867-0.709-1.301c-2.087,0.852-4.386,1.385-6.226,2.607c-13.288,8.83-26.478,17.807-39.721,26.705
	c-0.644,0.432-1.494,0.555-1.634,0.604c-3.275-10.736-6.441-21.285-9.812-31.77c-0.22-0.686-1.999-0.869-2.1-0.91
	c0.513-1.262,1.549-2.613,1.491-3.916c-0.139-3.088-1.032-6.143-1.136-9.229c-0.048-1.414,0.642-3.369,1.692-4.209
	c3.719-2.975,7.747-5.561,11.626-8.338c0.326-0.234,0.415-0.801,1.016-2.043c-2.027,0.686-3.372,1.143-6.176,2.092
	c1.792-1.918,2.675-2.861,3.729-3.992c-0.868-1.197-1.864-2.572-2.628-3.625c7.496-10.01,14.734-19.676,22.438-29.963
	c3.707,5.641,7.012,10.668,10.316,15.697c0.5-0.336,1.001-0.674,1.502-1.01c-2.768-4.564-5.343-9.262-8.383-13.637
	c-1.542-2.219-1.444-3.629,0.193-5.623c11.102-13.518,22.088-26.982,36.8-37.088c12.054-8.281,23.153-17.947,34.789-26.852
	c1.178-0.9,3.139-0.779,5.132-1.219c1.452-1.573,3.252-4.012,5.517-5.887c7.673-6.352,16.089-11.93,23.05-18.963
	c3.705-3.742,5.057-9.844,7.356-14.933c0.95-2.102,1.323-4.507,2.494-6.45c0.731-1.215,2.387-1.98,3.767-2.668
	c1.738-0.865,4.309-0.912,5.328-2.231c9.688-12.54,19.125-25.276,28.9-38.313c-1.878-1.025-3.378-1.844-5.04-2.751
	c3.688-3.421,7.183-6.661,10.676-9.9c-0.191-0.289-0.383-0.578-0.574-0.867c-1.348,0.645-2.695,1.289-4.133,1.975
	c-1.466-1.473-4.577-2.479,0.531-5.701c-0.898-0.143-1.797-0.285-2.695-0.429c-3.843,3.633-7.685,7.267-11.526,10.9
	c0.251,0.371,0.502,0.743,0.753,1.114c1.434-0.431,2.866-0.861,4.3-1.292c0.216,0.313,0.432,0.625,0.647,0.938
	c-3.792,2.574-7.583,5.146-12.28,8.336c0.958-2.975,1.607-4.988,2.256-7.003c-3.298,0.274-7.462-0.812-5.879,4.754
	c0.196,0.69-1.248,1.847-2.196,3.151c-2.796-7.499-1.466-12.609,3.347-17.04c1.082-0.996,0.682-3.447,1.583-4.821
	c5.899-8.997,11.903-17.929,18.058-26.751c0.846-1.212,2.715-1.709,4.11-2.537c-0.609,1.434-1.052,2.971-1.868,4.273
	c-1.212,1.936-2.688,3.705-3.496,6.135c3.494-2.693,6.987-5.387,10.753-8.289c-0.092-0.328-0.382-1.373-0.672-2.419
	c1.028-0.013,2.063,0.04,3.084-0.052c1.676-0.15,3.343-0.394,5.042-1.666c-2.576-0.631-5.153-1.262-8.174-2.002
	c0.879-1.656,1.685-3.174,2.378-4.48c2.284,0.963,4.057,1.709,5.829,2.455c0.904-4.641,3.818-5.458,8.836-2.368
	c-6.597-9.446,3.662-5.359,3.964-9.226c-1.297-0.922-2.976-2.115-4.3-3.057c3.019-1.944,6.018-3.955,9.111-5.808
	c0.714-0.427,1.898-0.683,2.614-0.394c5.124,2.072,8.724-0.15,12.629-4.201c-2.142,0.234-3.492,0.382-4.843,0.529
	c-0.167-0.453-0.334-0.907-0.501-1.361c2.494-1.09,4.989-2.179,7.925-3.461c0.997-2.707,2.207-5.995,3.661-9.943
	c0.931-0.336,2.704-0.975,4.478-1.614c-0.127-0.536-0.254-1.073-0.381-1.609c-1.754,0.481-3.65,0.688-5.23,1.506
	c-2.697,1.396-5.197,3.175-7.781,4.794c-0.353-0.653-0.705-1.307-1.058-1.959c2.245-1.049,4.49-2.098,7.839-3.662
	c-2.217,0.104-3.299,0.153-4.464,0.207c0.107-0.471,0.073-0.871,0.248-1.011c3.022-2.41,7.521-3.417,7.436-8.702
	c-0.019-1.192,1.378-2.813,2.554-3.551c4.911-3.088,4.479-8.252,5.121-12.895c0.148-1.074-1.511-2.398-2.338-3.607
	c-0.582,0.13-1.165,0.26-1.748,0.389c0,1.619-0.007,3.238,0.011,4.857c0.002,0.142,0.21,0.271,0.245,0.424
	c0.76,3.239-9.467,20.797-12.716,21.677c-0.666,0.181-1.814,0.019-2.155-0.431c-0.357-0.47-0.245-1.604,0.088-2.215
	c0.46-0.842,1.266-1.527,2.018-2.17c6.995-5.992,10.281-13.809,8.23-22.573c-0.891-3.81,1.349-8.172-2.02-11.415
	c0.579-0.479,1.158-0.955,2.023-1.668c-1.396-0.79-2.627-1.486-3.89-2.201c8.97-12.025,9.127-12.396,7.642-18.552
	c-1.618,0.717-3.179,1.407-4.738,2.099c-0.422-0.254-0.844-0.508-1.265-0.763c1.291-3.034,2.58-6.069,3.873-9.103
	c0.305-0.714,1.091-1.661,0.867-2.095c-2.606-5.058,0.934-8.79,2.273-13.153c1.197-3.898,3.278-5.099,6.78-5.588
	c0.925-0.13,1.7-1.333,2.854-2.305c-1.147-0.689-1.919-1.154-3.499-2.105c0.836-0.418,1.42-0.705,2-1
	c5.778-2.943,11.6-5.805,17.316-8.861c3.492-1.867,6.809-4.061,10.23-6.063c3.481-2.036,6.091-3.635,6.676-8.938
	c0.562-5.097,5.239-9.74,8.851-15.836c-3.038,1.154-5.102,1.938-7.164,2.723c-0.184-0.152-0.366-0.305-0.55-0.458
	c2.692-2.067,5.19-4.476,8.112-6.142c9.413-5.367,19.733-9.93,26.248-18.678c3.253-4.367,6.178-8.92,10.262-12.56
	c3.345-2.979,6.776-5.893,10.387-8.537c4.858-3.558,6.265,2.157,9.634,3.524c-4.004,2.179-7.564,4.117-11.492,6.254
	c0.057,0.09,0.479,0.756,0.997,1.572c-4.918,4.992-8.579,10.823-12.233,17.05c-4.559,7.766-8.016,16.979-16.424,22.559
	c-6.73,4.466-11.689,10.869-13.395,19.286c-0.739,3.646-0.707,6.75,1.818,9.82c0.774,0.941,0.12,3.059,0.12,5.73
	c5.939-6.358,11.836-11.782,16.64-18.043c5.746-7.488,10.309-15.874,15.847-23.536c5.416-7.493,11.53-14.458,18.662-20.442
	c1.884-1.58,3.716-3.222,5.557-4.822c5.209,5.136,5.138,6.079,0.624,10.707c-6.382,6.545-13.476,12.652-18.624,20.082
	c-7.14,10.304-16.824,19.53-17.651,33.322c-0.076,1.272-1.426,2.469-2.185,3.7c0.278,0.365,0.557,0.73,0.834,1.096
	c2.283-1.94,4.565-3.881,6.849-5.821c0.223,0.188,0.446,0.377,0.669,0.564c-2.73,4.572-5.461,9.146-8.06,13.496
	c1.979,4.014,4.329,7.613,5.57,11.563c1.968,6.262,7.001,9.588,11.389,13.645c1,0.926,1.523,2.365,2.267,3.567
	c-1.23-0.397-2.492-0.716-3.684-1.209c-3.101-1.283-6.17-2.643-9.745-2.987c4.877,3.322,9.754,6.645,16.119,10.98
	c-2.81,1.125-4.708,1.359-5.825,2.419c-6.784,6.433-5.388-2.956-8.168-4.204c-1.273-0.571-2.181-1.959-3.47-2.73
	c1.132,3.813-0.875,10.548-4.126,12.072c0.285-2.458,0.871-4.703,0.691-6.886c-0.133-1.611-1.265-3.14-1.951-4.705
	c-0.532,0.202-1.063,0.405-1.596,0.607c0,1.886,0.249,3.812-0.051,5.647c-0.665,4.078-0.746,8.125-4.53,11.419
	c-1.708,1.485-1.017,5.757-1.234,8.776c-0.006,0.085,2.247,0.761,3.069,0.369c1.045-0.499,1.705-1.807,3.058-3.375
	c0.493,7.002-7.15,6.361-8.945,11.744c2.127-1.206,3.48-1.974,4.835-2.741c0.264,0.235,0.528,0.47,0.792,0.705
	c-1.108,1.741-2.217,3.483-3.536,5.556c-2.581-3.959-5.211-1.682-6.199,0.631c-2.185,5.113-3.779,10.533-5.045,15.961
	c-0.661,2.834-0.116,5.949-0.116,9.4c-4.73-2.371-0.423-9.455-7.353-10.143c0.27,1.938,1.207,3.984,0.605,5.354
	c-1.216,2.767-2.84,5.649-5.065,7.614c-4.561,4.028-8.961,7.859-11.637,13.658c-1.305,2.825-4.826,4.627-8.181,7.646
	c2.211,0,3.029,0,2.378,0c-0.935,5.43-1.866,10.848-2.806,16.254c-0.383-1.271-0.998-2.514-1.081-3.791
	c-0.169-2.603-0.051-5.224-0.051-7.838c-0.466-0.025-0.933-0.051-1.398-0.076c-1.264,5.443-2.526,10.887-3.98,17.15
	c1.911-0.842,2.775-1.223,3.638-1.603c2.269,4.105,0.152,12.016-3.195,13.889c-0.458-3.804-0.947-7.867-1.437-11.931
	c-0.519-0.031-1.037-0.061-1.556-0.092c-1.844,4.74-2.903,10.036-5.762,14.053c-2.617,3.68-7.178,5.977-11.029,8.998
	c8.617,2.348,15.596-1.953,22.523-6.068c1.046-0.621,1.512-2.491,1.912-3.88c1.789-6.214,3.104-12.486,1.309-18.958
	c1.908-2.521,3.816-5.045,6.408-8.47c-1.588,9.882-2.987,18.587-4.387,27.29c10.066-16,16.926-33.602,24.622-50.789
	c0.525,0.192,1.051,0.385,1.576,0.576c-1.117,2.87-2.16,5.773-3.372,8.603c-1.365,3.187-2.979,6.269-4.309,9.468
	s-2.439,6.488-3.759,10.043c1.494,0.729,2.85,1.391,4.474,2.183c-0.795-5.976-0.154-7.177,3.159-8.13c0,2.07,0.103,4.373-0.06,6.658
	c-0.052,0.719-0.664,1.78-1.278,2.018c-7.002,2.703-5.84,9.143-6.88,14.606c-0.279,1.464-0.991,2.839-1.399,4.285
	c-0.285,1.013-0.524,2.073-0.552,3.118c-0.074,2.865-0.025,5.734-0.025,8.601c-0.473,0.121-0.945,0.244-1.418,0.367
	c2.467,1.631,4.934,3.265,6.765,4.476c-1.782,3.876-3.197,6.953-4.612,10.031c0.386,0.395,0.771,0.789,1.158,1.183
	c1.428-0.352,3.353-0.274,4.137-1.183c0.702-0.814,0.147-2.713,0.147-4.62c1.565,0,3.835,0,6.956,0
	c-1.573,1.96-2.545,3.171-3.887,4.841c1.561,0.501,2.778,0.893,3.985,1.279c-0.251,5.721-3.419,8.521-9.57,8.54
	c-0.937,0.003-2.315-0.257-2.739,0.243c-4.823,5.68-11.648,9.556-13.813,17.68c-1.147,4.308-4.85,7.924-7.348,11.885
	c-4.148,6.58-8.18,13.234-12.42,19.754c-1.836,2.822-4.353,5.219-6.072,8.1c-6.226,10.431-12.244,20.985-18.338,31.495
	c4.901,6.149,8.098,6.239,13.851,1.652c4.661-3.718,9.981-6.608,14.425-9.487c0.57,3.811,0.149,8.543,1.582,9.194
	c4.954,2.249,5.47-2.012,5.206-5.493c-0.097-1.274-1.923-2.418-2.96-3.621c0.419-0.451,0.838-0.904,1.256-1.355
	c1.49,1.228,2.979,2.455,4.764,3.926c0.406-0.322,1.143-0.906,1.811-1.435c-0.815-1.284-1.56-2.457-2.303-3.63
	c1.261-0.723,2.508-1.473,3.787-2.162c1.64-0.883,3.823-1.313,4.867-2.646c3.56-4.547,6.688-9.431,10.078-14.113
	c0.43-0.593,1.41-0.878,2.193-1.108c8.919-2.627,12.693-10.702,17.979-17.125c0.735-0.893,0.604-2.796,0.366-4.142
	c-1.096-6.187-3.155-12.327-0.159-18.554c0.275-0.572,0.554-1.469,0.302-1.918c-3.62-6.465-0.007-11.615,2.86-16.975
	c0.662-1.237,0.714-2.807,1.024-4.228c1.813-8.276,5.821-15.11,12-21.086c5.211-5.037,9.638-10.949,13.926-16.827
	c1.035-1.419,0.154-4.236,0.154-6.767c-0.837-0.299-1.991-0.711-4.618-1.648c6.29-6.613,11.973-12.588,17.654-18.562
	c0.522,0.403,1.046,0.806,1.569,1.208c-1.673,2.857-3.346,5.715-5.594,9.557c2.567-1.721,4.318-2.895,6.192-4.151
	c0.801,1.009,1.437,2.599,2.208,2.667c14.286,1.26,21.525,11.813,29.051,21.916c2.169,2.912,0.303,7.246-1.535,10.103
	c-2.58,4.016-3.811,8.897-5.619,13.409c0.5,0.218,1,0.436,1.5,0.653c1.366-2.331,2.732-4.662,4.1-6.993
	c0.494,0.135,0.988,0.27,1.482,0.403c-0.965,3.011-1.722,6.11-2.953,9.007c-1.294,3.045-3.259,5.806-4.548,8.852
	c-2.792,6.598-2.503,13.231,0.191,19.857c1.296,3.185,2.345,6.477,3.37,9.762c1.511,4.842,0.279,7.155-5.04,9.973
	c0.65-2.849,1.328-5.816,2.006-8.783c-0.629-0.325-1.257-0.65-1.886-0.977c-0.548,10.951-12.644,12.156-14.646,21.88
	c-0.659-0.478-1.319-0.954-1.979-1.431c1.131-1.987,2.261-3.975,3.392-5.963c-0.195-0.166-0.39-0.333-0.585-0.5
	c-4.569,4.203-9.14,8.404-13.709,12.607c0.105,0.174,0.211,0.348,0.315,0.522c1.135-0.785,2.269-1.569,4.661-3.226
	c-2.49,4.318-3.739,7.876-6.151,10.254c-2.144,2.113-5.576,2.918-8.015,5.279c5.225,1.047,10.448,2.096,15.942,3.197
	c-0.239,0.744-0.598,1.861-1.005,3.131c3.017-0.676,5.971-0.815,8.394-2.021c2.57-1.28,5.857-1.51,6.89-5.779
	c0.518-2.139,4.896-3.594,7.753-4.852c3.177-1.398,6.608-2.221,10.378-3.438c-5.086,4.511-9.953,8.825-14.82,13.142
	c0.404,0.564,0.809,1.129,1.213,1.694c7.833-5.24,15.666-10.48,23.499-15.722c0.339,0.476,0.679,0.95,1.019,1.426
	c-4.901,3.357-9.802,6.715-14.703,10.072c0.271,0.412,0.541,0.824,0.811,1.236c1.671-0.81,3.342-1.619,6.629-3.213
	c-4.304,4.809-2.642,7.705,0.432,10.012c-1.043,1.9-1.951,3.553-3.119,5.682c-1.029,0.113-2.629,0.291-4.559,0.506
	c0.648,1.495,1.19,2.742,2.027,4.672c-2.422-0.343-4.221-0.977-5.9-0.745c-2.431,0.334-4.79,1.247-7.153,1.999
	c-2.585,0.822-5.14,1.74-8.016,2.723c0.297,0.404,0.92,1.254,2.029,2.768c-2.608,0.531-4.636,0.944-6.681,1.361
	c-0.313-1.448-0.579-2.674-0.845-3.899c-1.187,0.712-2.618,1.202-3.512,2.182c-2.077,2.276-3.628,5.091-5.901,7.114
	c-1.938,1.723-4.587,2.648-6.901,3.92c2.316-2.869,4.612-5.73,7.275-9.049c-6.297-1.532-7.329,4.6-11.799,6.217
	c1.977,1.203,3.304,2.012,4.632,2.82c3.268,5.449,2.914,7.186-3.239,11.998c0.938-2.096,1.454-3.252,2.1-4.693
	c-0.587,0.123-1.093,0.08-1.38,0.313c-1.938,1.561-4.088,2.959-5.687,4.824c-4.396,5.125-10.917,7.416-16.425,6.371
	c-8.166-1.549-14.389,3.502-21.738,3.617c-6.326,0.1-9.589,4.547-12.832,8.934c-0.598,0.807-0.068,2.361-0.434,3.445
	c-0.545,1.619-1.075,3.551-2.279,4.533c-0.809,0.66-2.77-0.094-5.67-0.34c-0.296,0.553-1.22,2.273-2.144,3.996
	c5.111-1.715,8.34,7.816,13.345,1.756c8.393,5.182,9.817,5.316,17.862-1.051c7.919-6.266,15.81-12.5,21.062-21.637
	c1.866-3.246,6.578-4.859,10.479-7.555c0.82,1.252,1.797,2.744,3.498,5.34c0.889-2.455,1.506-4.162,2.35-6.496
	c0.219-0.035,1.452-0.238,3.73-0.613c-2.391,4.939-4.41,9.111-6.196,12.801c2.179,1.732,3.789,3.014,5.4,4.295
	c-0.245,0.469-0.489,0.938-0.733,1.406c1.024-0.121,2.048-0.24,3.39-0.398c-0.931,1.596-1.649,2.83-2.369,4.064
	c0.327,0.379,0.653,0.76,0.98,1.139c2.583-2.668,5.167-5.336,7.75-8.004c0.218,0.26,0.437,0.518,0.654,0.775
	c-1.505,3.916-3.01,7.832-4.653,12.111c13.072-1.268,25.022-2.338,36.943-3.664c2.175-0.242,4.61-1.057,6.283-2.402
	c7.744-6.238,15.472-12.24,24.945-15.977c3.67-1.449,6.497-5.492,9.191-8.777c1.492-1.82-2.129-5.646-4.702-6.148
	c-0.432-2.35-0.173-4.664-1.201-5.943c-7.517-9.35-3.054-18.166,1.071-26.865c1.538-3.245,4.1-6.008,6.22-8.973
	c2.228-3.115,5.104-2.74,7.731-0.92c6.791,4.707,13.426,9.641,20.347,14.646c1.028-1.557,1.971-2.982,2.374-3.594
	c3.801,1.09,6.998,2.598,10.247,2.719c1.958,0.073,3.996-2.01,5.998-3.123c-0.198-0.725-0.396-1.449-0.595-2.173
	c-4.856,0-9.713,0-14.57,0c-0.095-0.554-0.19-1.107-0.285-1.661c4.668-3.479,10.89-1.518,16.075-3.303
	c5.546-1.91,11.376-2.992,18.819-4.875c-3.178-2.879-5.488-4.971-8.18-7.41c0.807-2.336,1.307-2.404,4.062-1.423
	c7.777,2.771,15.364,5.528,23.91,1.517c7.315-3.434,15.187-5.781,22.962-8.107c5.695-1.704,6.75-0.494,7.48,5.396
	c0.567,4.564,1.516,9.096,2.592,13.57c0.216,0.898,1.693,1.947,2.727,2.124c7.806,1.331,15.641,2.495,23.482,3.606
	c0.889,0.127,2.353-0.08,2.735-0.664c4.819-7.365,12.767-5.684,19.673-6.918c2.791-0.498,5.646-0.635,9.322-1.027
	c-2.283-4.244-3.975-7.389-5.68-10.559c2.842,1.276,5.953,2.675,9.064,4.073c0.203-0.348,0.406-0.696,0.609-1.044
	c-0.554-0.861-1.107-1.723-1.984-3.085c8.928,0.226,17.508,3.22,26.442-1.466c-11.326-4.125-22.104-8.207-33.03-11.844
	c-1.456-0.484-3.666,1.294-6.397,2.365c-2.199-0.943-3.27-3.503-3.35-7.057c-0.031-1.406-1.448-3.67-2.677-4.027
	c-15.489-4.51-30.955-9.193-46.662-12.811c-5.881-1.354-10.259-3.658-13.729-8.021c0.051-0.443,0.013-0.646,0.096-0.77
	c6.468-9.471,7.23-9.539,17.866-5.451c8.495,3.264,17.151,6.129,25.832,8.871c1.335,0.422,3.382-0.438,4.755-1.272
	c6.985-4.245,13.867-8.659,20.762-13.05c2.658-1.691,5.969-2.955,7.711-5.342c2.469-3.381,5.981-3.475,9.161-4.889
	c3.535-1.571,6.833-3.756,10.001-6.002c0.643-0.455,0.25-2.373,0.313-3.316c3.479-1.689,7.107-2.776,9.891-4.948
	c5.102-3.98,10.419-2.888,16.018-2.146c8.503,1.125,17.046,2.16,25.603,2.555c2.9,0.133,5.981-1.594,8.822-2.832
	c2.772-1.209,4.824-3.032,8.607-1.58c2.466,0.946,6.115-1.422,9.292-1.973c1.077-0.188,2.86,0.275,3.411,1.07
	c2.56,3.695,5.919,3.298,9.624,2.628c3.717-0.671,7.63-0.51,11.224-1.534c3.289-0.938,6.342-2.841,9.355-4.569
	c2.033-1.165,3.311-2.835,6.396-1.412c3.865,1.784,8.322,2.6,12.605,3.037c2.267,0.232,4.065-3.595,7.292-1.188
	c1.625,1.212,4.082,1.312,6.162,1.915c0.184-0.49,0.367-0.981,0.551-1.473c-2.546-1.205-5.07-3.326-7.644-3.387
	c-3.263-0.076-4.991-1.479-6.647-3.717c-1.818-2.457-3.994-3.688-7.309-3.797c-1.994-0.065-3.921-2.146-6.19-3.51
	c-0.252,0.205-1.286,1.051-2.229,1.82c-1.605-5.528-3.111-10.717-4.494-15.483c1.289-2.46,2.611-4.983,4.478-8.544
	c1.444,1.055,3.039,2.207,4.62,3.379c0.496,0.368,0.952,1.123,1.432,1.127c5.639,0.055,11.048,2.776,16.953,0.729
	c3.013-1.046,6.657-0.889,9.916-0.481c7.445,0.932,14.828,2.36,22.241,3.556c0.46,0.074,0.963-0.113,1.849-0.234
	c-0.426-0.89-0.77-1.609-1.113-2.33c0.293-0.34,0.585-0.68,0.877-1.021c1.883,1.672,4.539,3,5.467,5.095
	c1.388,3.129,3.303,3.771,6.33,4.927c4.789,1.829,10.182-1.402,14.938,3.592c2.639,2.771,9.328,1.968,14.215,2.147
	c1.577,0.058,3.146-2.073,4.883-2.828c0.777-0.339,1.958,0.247,3.126,0.442c0.549-0.736,1.376-1.848,2.203-2.959
	c0.409,0.285,0.818,0.569,1.228,0.854c-1.276,2.221-2.553,4.441-3.855,6.709c-4.534-0.24-9.119,0.018-13.5-0.805
	c-14.981-2.813-30.098-3.174-45.249-3.089c-6.343,0.036-7.279,1.494-5.268,7.368c0.299,0.87,0.857,1.652,0.593,3.414
	c-1.85-0.975-3.7-1.949-5.93-3.123c1.07-1.51,1.846-2.602,2.621-3.693c-0.195-0.344-0.391-0.688-0.585-1.031
	c-2.113,0.885-4.169,2.262-6.356,2.52c-2.277,0.268-4.683-0.543-7.09-0.889c-0.845-1.617-1.728-3.309-2.611-4.998
	c-0.438,0.119-0.877,0.238-1.314,0.358c0.258,1.167,0.386,2.384,0.809,3.489c0.494,1.293,1.246,2.486,2.259,4.445
	c-2.704-0.26-4.445-0.426-6.187-0.594c-0.365,2.965-0.365,2.965,11.075,7.679c-1.313-1.673-2.062-2.628-2.903-3.699
	c0.584-0.087,1.117-0.343,1.486-0.192c4.658,1.881,9.234,3.979,13.951,5.696c3.806,1.386,6.867,2.621,5.549,7.866
	c-0.966,3.843,2.682,4.19,5.18,4.356c4.611,0.305,9.398-0.623,13.852,0.266c4.725,0.943,7.669-0.059,9.27-4.181
	c1.778,0.412,3.274,0.758,5.208,1.207c-0.538,4.347,3.358,3.446,6.154,3.028c6.631-0.99,13.192-2.452,19.963-3.759
	c-0.265-1.006-0.533-2.023-0.96-3.646c4.057,1.337,7.603,2.507,11.319,3.734c-0.118-1.266-0.231-2.482-0.374-4.005
	c-1.802-0.324-3.695-0.664-5.507-0.99c1.69-0.463,3.49-0.957,6.626-1.816c-3.463-0.621-5.438-0.975-7.41-1.328
	c0.061-0.396,0.121-0.791,0.182-1.188c4.805,0.252,9.608,0.502,15.386,0.805c-2.544,1.701-4.217,2.819-7.255,4.851
	c4.574,1.567,7.902,2.709,11.433,3.918c0.072-0.119-0.403,0.664-0.52,0.855c6.328,3.692,12.629,7.367,18.93,11.042
	c0.25-0.425,0.501-0.85,0.751-1.273c-0.344-0.801-0.687-1.603-1.435-3.348c9.557,4.059,18.694,5.917,28.419,4.795
	c-1.483-0.9-2.967-1.8-4.066-2.467c0.284-1.688,0.527-3.129,0.77-4.571c-0.223-0.562-0.445-1.122-0.667-1.685
	c3.532,0.559,7.118,0.893,10.585,1.721c8.357,1.998,16.643,4.297,25.005,6.268c0.972,0.229,2.251-0.85,2.557-0.977
	c2.612,1.727,4.622,3.055,6.633,4.385c0.309-0.408,0.616-0.816,0.925-1.225c-0.671-0.961-1.342-1.92-2.725-3.896
	c3.33,1.765,5.561,2.948,8.174,4.333c-1.197,1.133-2.299,2.174-3.748,3.545c3.191,1.878,6.248,3.404,9.006,5.354
	c6.444,4.555,7.244,4.617,13.954-0.346c2.665-1.971,8.31-1.172,11.186,1.92c-1.11,0.252-1.962,0.499-2.832,0.627
	c-0.962,0.143-1.941,0.176-3.306,0.289c-0.313,2.766-0.01,5.666-1.106,7.872c-0.769,1.548-3.445,2.147-5.604,3.356
	c2.154,3.969,1.254,7.857-3.099,10.377c-3.68-2.93-7.067-5.627-10.863-8.65c0.295-0.845,0.967-2.771,1.64-4.695
	c-0.348-0.209-0.696-0.418-1.044-0.627c-1.215,1.787-2.431,3.576-3.769,5.547c-6.456-0.629-13.535-1.322-20.616-2.003
	c-0.659-0.063-1.683-0.345-1.935-0.035c-3.299,4.047-5.474,0.907-8.147-0.933c-1.565-1.077-3.733-1.277-5.63-1.875
	c-3.47-1.092-6.939-2.187-10.409-3.279L938.995,319.172z M895.82,384.123c10.233-1.277,20.417,0.014,30.586,2.002
	c0.045-0.64,0.09-1.279,0.134-1.918c-9.718-2.248-19.436-4.496-29.018-6.712c-0.696,2.976-1.14,4.874-1.604,6.747
	c-5.072-1.148-8.434-8.076-15.021-4.164c4.563,2.42,9.42,3.901,14.297,5.311C895.274,385.412,895.605,384.564,895.82,384.123z
	 M729.758,330.025c0.004-0.461,0.008-0.921,0.012-1.381c2.107,0.203,4.213,0.521,6.324,0.578c2.449,0.066,4.912-0.005,7.357-0.182
	c5.716-0.414,11.454-1.546,17.13-1.271c12.762,0.617,25.383,1.49,36.04-7.641c1.354-1.16,3.075-1.988,4.752-2.656
	c5.193-2.068,10.447-3.984,15.678-5.959c-4.02-0.584-7.965-1.061-11.754-0.494c-11.527,1.721-22.979,3.945-34.488,5.789
	c-17.343,2.775-34.701,5.465-52.082,7.984c-1.937,0.28-4.504-0.201-6.023-1.338c-4.194-3.137-8.752-3.251-12.467-0.569
	c-7.346,5.3-15.396,5.665-23.72,4.856c-7.096-0.688-14.175-1.724-21.187-3.016c-3.657-0.675-6.088-0.301-7.266,3.646
	c-1.14,3.816-3.748,5.545-7.896,5.391c-3.317-0.123-6.659,0.414-9.989,0.658c4.809,3.46,9.555,6.272,14.674,7.931
	c13.226,4.284,26.636,7.993,39.935,12.058c10.365,3.168,10.34,3.252,15.469-0.993c-3.622,0-6.789,0-10.846,0
	c3.999-2.66,0.835-3.325-1.109-4.771c9.262-5.898,18.42,0.595,28.385-0.722c-2.426-1.08-3.817-1.7-6.005-2.674
	c2.92-0.631,4.948-1.068,6.978-1.506c11.699,7.332,24.94,1.254,37.097,4.922c-6.271-4.512-14.107-6.983-15.001-16.155
	C736.413,331.68,733.086,330.853,729.758,330.025z M243.987,387.811c3.986,2.079,7.86,4.099,11.399,5.943
	c2.889-4.299,5.446-7.932,7.772-11.707c0.485-0.787,0.198-2.105,0.123-3.168c-0.097-1.367-0.338-2.725-0.517-4.086
	c0.411-0.019,0.821-0.037,1.231-0.055c0.102,0.662,0.203,1.324,0.409,2.667c1.312-1.77,2.281-3.079,3.284-4.433
	c-1.088-0.469-1.825-0.787-3.802-1.64c2.88-0.415,4.381-0.632,6.329-0.913c-0.725-1.262-1.208-2.104-1.177-2.048
	c2.084-2.052,3.989-3.489,5.332-5.336c3.605-4.958,7.016-10.062,10.413-15.168c2.015-3.028,6.016-6.837,5.312-9.116
	c-1.307-4.229,1.173-6.703,2.161-10.51c-6.536-1.213-12.835-2.382-17.767-3.297c-2.69,3.243-5.028,5.898-7.18,8.697
	c-2.609,3.395-6.097,6.586-7.312,10.46c-1.419,4.521-3.748,8.114-6.563,11.612c-1.868,2.321-3.909,4.504-5.873,6.748
	c0.216,0.186,0.433,0.369,0.649,0.555c1.201-0.851,2.402-1.701,3.604-2.551c-4.434,7.571-12.802,12.551-13.088,22.788
	c-7.096,5.08-9.435,13.577-12.726,21.592c6.923,0.313,4.454-7.472,9.211-9.907c1.087,0.876,2.451,2.139,3.978,3.159
	c1.731,1.159,3.608,2.104,5.981,3.462c0-2.24,0-3.68,0-5.119c0.413-0.23,0.827-0.462,1.24-0.693
	c1.571,1.969,3.143,3.938,4.734,5.932c1.096-2.094,2.219-4.241,3.715-7.103c-4.224-0.198-8.146-0.382-11.826-0.555
	C243.313,392.217,243.645,390.057,243.987,387.811z M288.426,227.562c-0.42-0.354-0.841-0.709-1.261-1.063
	c-1.806,2.125-3.575,4.282-5.423,6.369c-3.768,4.256-7.873,8.25-11.289,12.768c-3.561,4.707-6.486,9.896-9.647,14.901
	c-0.311,0.491-0.618,1.573-0.443,1.696c3.593,2.537-0.05,3.98-0.991,5.473c-6.481,10.266-13.145,20.416-19.749,30.603
	c0.451,0.315,0.903,0.63,1.354,0.946c0.813-0.775,1.803-1.434,2.414-2.345c8.341-12.424,16.947-24.689,24.754-37.441
	c2.633-4.302,4.934-6.197,9.622-4.271c4.318,1.774,7.394-0.454,9.165-3.753c3.224-6.003,7.227-11.178,12.095-15.947
	c2.12-2.076,5.069-4.266,4.479-8.521c-0.34-2.457,1.246-5.18,1.965-7.783c0.391,0.084,0.781,0.169,1.173,0.254
	c0,1.39,0,2.779,0,4.646c7.815-5.178,9.926-13.666,14.649-20.266c0.78-1.09,1.358-2.463,1.58-3.78
	c0.271-1.604,0.064-3.288,0.064-5.46c-0.036-0.027-0.822-0.639-1.729-1.345c3.341-1.364,6.259-2.558,9.423-3.85
	c-1.365-0.667-3.196-2.176-3.847-1.774c-3.148,1.945-3.746,0.395-3.749-2.268c-0.003-2.31,0.069-4.633,0.323-6.926
	c0.367-3.303-3.698-7.076-7.877-6.754c1.037,1.271,1.926,2.357,2.679,3.28c-3.631,9.275-7.369,18.329-14.914,26.559
	c-0.275-2.373-0.46-3.964-0.803-6.924c-1.344,2.556-2.15,4.091-3.041,5.784c1.87,0.724,3.156,1.221,3.803,1.471
	c-2.835,6.418-5.583,12.481-8.15,18.62c-0.398,0.952,0.076,2.251,0.074,3.389c-0.003,3.409,0.195,6.841-0.134,10.22
	c-0.345,3.545-2.207,4.941-5.498,2.268c-1.03,2.21-1.867,4.002-2.961,6.347c-1.23-3.208-2.146-5.594-3.142-8.19
	C290.3,235.555,286.846,229.988,288.426,227.562z M833.065,299.327c-0.07-0.544-0.141-1.087-0.21-1.63
	c-4.859,0-9.749-0.348-14.572,0.065c-14.354,1.228-28.716,2.474-42.995,4.331c-4.315,0.561-8.368,3.135-13.724,5.254
	c-0.67-0.668-2.328-2.32-3.986-3.973c1.825-1.305,3.504-2.932,5.508-3.836c3.009-1.357,6.246-2.209,9.385-3.276
	c-6.132-1.399-11.9-3.78-17.949-0.586c-5.354,2.827-11.086,4.933-16.595,7.478c-1.148,0.531-2.524,1.387-2.985,2.444
	c-1.847,4.233-5.089,6.757-9.123,8.64c-1.387,0.647-2.493,1.894-3.728,2.865c0.132,0.234,0.265,0.467,0.396,0.701
	C759.347,311.646,796.206,305.486,833.065,299.327z M875.346,388.718c-4.025-0.662-6.742-0.889-9.338-1.571
	c-16.025-4.215-32.027-8.516-48.025-12.835c-2.273-0.614-5.088-2.409-3.617,2.436c0.115,0.378-0.025,1.146-0.281,1.277
	c-5.966,3.06-2.26,4.962,1.336,7.041c-1.184,0.539-1.961,0.894-2.916,1.327c2.041,2.747,2.631,5.229-2.308,6.322
	c1.544,0.713,2.455,1.135,3.351,1.548c-0.573,1.356-1.02,2.41-1.472,3.479C833.701,400.007,853.553,392.862,875.346,388.718z
	 M149.022,403.916c-0.708-0.495-1.416-0.99-2.124-1.485c-3.263,2.519-6.654,4.891-9.754,7.597c-3.023,2.639-5.751,5.621-8.656,8.498
	c-0.334-1.061-0.78-2.475-1.227-3.889c-0.429,0.016-0.857,0.033-1.286,0.049c-0.057,1.023-0.017,2.066-0.195,3.068
	c-0.226,1.266-0.509,3.537-0.977,3.592c-6.114,0.721-7.59,9.395-14.621,8.473c-0.455-0.059-1.26,1.273-1.628,2.084
	c-1.051,2.307-1.961,4.678-2.926,7.023c-0.489-0.496-0.978-0.992-1.467-1.488c-2.092,1.492-6.176,3.701-5.939,4.359
	c1.181,3.289,3.131,6.527,5.581,9.027c1.028,1.049,3.96,0.232,6.025,0.264c-0.371-1.535-0.742-3.07-1.33-5.502
	c2.539,0.332,4.933,0.645,7.826,1.023c-2.414-5.648,3.603-1.666,4.493-4.014c-0.354-0.301-0.708-0.602-1.062-0.902
	c5.374-6.301,10.749-12.602,16.123-18.902c0.276,0.232,0.552,0.467,0.828,0.699c-0.196,0.912-0.393,1.824-0.589,2.736
	c0.469,0.186,0.938,0.371,1.406,0.559C141.357,419.162,145.19,411.539,149.022,403.916z M669.967,446.846
	c-3.324-5.311-6.816-9.975-9.309-15.125c-2.493-5.154-3.986-10.791-5.917-16.217c-0.52,0.061-1.04,0.119-1.56,0.18
	c-4.141,8.908-3.652,20.043-12.703,26.506c-3.267-2.193-11.879-0.182-14.68,4.156c17.09,2.344,33.98,4.662,50.87,6.979
	c0.109-0.383,0.219-0.766,0.328-1.15c-3.194-1.229-6.389-2.459-9.69-3.73C668.225,447.893,669.016,447.418,669.967,446.846z
	 M791.479,383.703c5.01,5.4,8.35,3.613,10.433-0.777c-0.728-2.242-1.29-3.975-1.851-5.701c-0.582,0.285-1.424,0.697-2.266,1.109
	c0.223-0.41,0.445-0.82,0.668-1.23c-2.719-2.09-5.436-4.18-8.491-6.531c5.067,0,9.782,0,14.97,0
	c-3.206,6.373-3.132,6.914,0.597,10.26c1.351-1.078,2.653-2.117,4.11-3.281c-1.405-2.523-2.205-6.174-4.384-7.426
	c-4.952-2.844-10.405-4.77-16.53-2.447c-2.859,1.084-6.221,0.864-9.36,1.188c-6.487,0.667-12.979,1.302-19.468,1.949
	c-0.008,0.621-0.015,1.242-0.021,1.863c2.31,0.063,4.625,0.043,6.928,0.211c2.832,0.208,6.819-0.469,8.224,1.101
	c2.489,2.782,3.96,5.332,7.943,2.597c0.173-0.119,1.446,1.305,2.142,2.07c0.102,0.111-0.167,0.558-0.264,0.844
	c-1.186,0.232-2.343,0.458-4.36,0.853c3.422,2.405,5.104,1.175,6.896-0.916c0.664-0.776,2.502-1.48,3.15-1.101
	c0.82,0.479,1.136,2.069,1.355,3.239C792.037,382.311,791.602,383.154,791.479,383.703z M184.268,506.27
	c-13.088,12.348-25.189,23.764-37.29,35.182c21.115-8.51,36.979-23.982,54.485-39.203c-9.081-2.043-11.625,4.934-16.313,8.379
	C184.96,509.691,184.812,508.955,184.268,506.27z M408.341,519.361c0.04,0.33,0.079,0.66,0.119,0.992
	c3.919,0.857,7.839,1.715,11.759,2.572c0.007,0.545,0.014,1.09,0.021,1.637c-14.955-2.697-28.773,1.645-43.43,5.588
	c18.436,0,36.065,0,53.696,0c0.203-0.613,0.405-1.227,0.607-1.84c-1.658-2.236-3.316-4.475-5.099-6.879
	c1.187-0.184,2.481-0.387,3.777-0.588c-0.03-0.494-0.062-0.988-0.093-1.482C422.58,519.361,415.46,519.361,408.341,519.361z
	 M206.03,473.832c4.686,3.135,5.793,11.793,14.072,8.783c2.982-1.084,5.859-8.748,5.15-10.703c1.832-1.232,3.521-2.371,5.212-3.508
	c0.036-0.432,0.072-0.865,0.108-1.297c-5.983-0.533-13.181,1.928-16.21-6.924c-2.252,4.033-6.034,8.184-5.167,9.736
	C212.063,475.055,207.553,472.777,206.03,473.832z M690.712,367.994c-0.033-0.276-0.065-0.553-0.099-0.828
	c-21.148-5.625-42.296-11.25-63.443-16.875c2.889,1.953,6.07,3.41,9.279,4.799c8.213,3.555,16.154,8.308,24.732,10.285
	C670.72,367.573,680.844,367.23,690.712,367.994z M540.766,426.354c-1.256,3.609-2.186,6.279-3.359,9.648
	c12.628-1.77,24.51-3.594,35.798-7.873c-0.095-0.592-0.188-1.184-0.282-1.775C562.153,426.354,551.386,426.354,540.766,426.354z
	 M413.27,510.834c14.152,3.277,22.815-0.559,27.451-12.486c-5.395,0.658-10.927,0.172-15.309,2.188
	C420.876,502.623,417.457,507.135,413.27,510.834z M368.248,400.404c-2.336,0.557-6.594,0.528-9.444,2.518
	c-3.363,2.35-4.043,3.016-5.981-0.672c-0.492-0.938-0.963-1.887-1.953-3.832c-2.506,5.029-4.541,9.115-6.577,13.199
	c0.424,0.393,0.849,0.783,1.272,1.174c3.109-2.096,6.22-4.191,8.978-6.051c1.767,2.285,3.283,4.246,4.927,6.369
	c4.14-3.045,7.766-5.713,11.458-8.428C370.572,404.114,369.775,402.842,368.248,400.404z M198.433,280.194
	c0.313,0.383,0.627,0.765,0.94,1.147c1.468-1.039,2.936-2.077,5.351-3.785c-3.134,4.817-5.574,8.57-8.015,12.322
	c0.432,0.318,0.863,0.637,1.295,0.956c3.807-2.228,3.079-9.787,8.837-8.541c0.115-2.194,0.216-4.103,0.362-6.876
	c2.47,1.488,3.646,2.195,5.792,3.488c0.806-3.443,1.457-6.229,1.897-8.113c2.403-2.337,4.587-4.461,6.77-6.584
	c-3.742,0.742-6.471,3.244-9.48,3.649C204.29,268.921,202.312,275.398,198.433,280.194z M665.693,516.037
	c-9.131-3.916-17.133-6.018-25.362-0.891c1.231-0.904,2.464-1.809,3.994-2.932c-6.459-0.068-8.474,1.537-10.272,8.813
	C644.558,519.371,654.581,517.789,665.693,516.037z M798.915,343.186c0.052-0.456,0.104-0.912,0.155-1.368
	c-6.307-1.262-12.662-2.328-18.9-3.868c-3.168-0.781-4.631,0.221-5.398,2.646C782.176,352.215,790.711,345.164,798.915,343.186z
	 M149.395,406.693c0.813,0.357,1.627,0.714,2.44,1.07c5.441-9.121,9.611-18.805,11.748-29.65c-1.654,0.366-3.448,0.93-3.899,2.039
	C156.109,388.941,152.791,397.833,149.395,406.693z M694.359,390.951c0.01-0.607,0.02-1.215,0.03-1.822c-14.377,0-28.755,0-43.132,0
	c0.01,0.607,0.019,1.215,0.027,1.822C665.644,390.951,680.001,390.951,694.359,390.951z M336.736,151.445
	c-1.77,1.647-4.501,3.027-4.975,4.962c-0.467,1.901,1.357,4.364,2.178,6.582c0.735,0.04,1.471,0.081,2.207,0.121
	c2.597-4.56,5.193-9.118,7.652-13.435c-4.72-1.189-8.195-2.064-11.67-2.939c-0.191,0.197-0.383,0.395-0.574,0.591
	C333.097,148.552,334.638,149.777,336.736,151.445z M331.303,168.145c-4.613,4.108-5.092,9.389-1.558,17.21
	C335.977,182.542,336.223,179.832,331.303,168.145z M705.908,487.471c-0.439-0.609-0.645-1.232-1-1.336
	c-9.994-2.889-19.992-5.76-30.034-8.477c-0.589-0.158-1.539,1.018-2.321,1.572c0.875,0.795,1.646,2.102,2.641,2.305
	C685.186,483.574,695.214,485.434,705.908,487.471z M688.302,406.506c-0.342,0.008-0.683,0.014-1.024,0.021
	c0.766,5.123,1.686,10.229,2.257,15.375c0.677,6.102,1.517,6.781,7.355,5.537C694.052,420.523,691.177,413.514,688.302,406.506z
	 M241.357,241.117c-0.736,6.262-9.042,5.617-10.776,11.09c7.685-2.006,20.069-13.197,19.784-17.596
	C247.238,236.87,244.11,239.128,241.357,241.117z M321.735,171.042c0.244-3.035,0.411-5.105,0.605-7.532
	c-1.417,0.253-2.455,0.438-3.878,0.69c-0.367-2.267-0.707-4.361-1.047-6.456c-0.322-0.055-0.644-0.109-0.965-0.164
	c-1.079,2.888-2.157,5.775-2.858,7.651C316.872,167.572,318.993,169.085,321.735,171.042z M335.908,168.818
	c0.484,0.498,0.97,0.996,1.454,1.494c1.425-0.625,3.661-0.894,4.124-1.943c1.404-3.183,2.123-6.668,3.108-10.035
	c-0.878-0.328-1.755-0.656-2.633-0.983C339.944,161.173,337.926,164.996,335.908,168.818z M287.137,315.313
	c4.774-1.039,8.696-1.893,13.308-2.896c0.085-0.452,0.354-1.884,0.899-4.785c-2.706,1.853-4.229,2.894-5.742,3.931
	c-2.596-0.896-5.241-1.809-8.465-2.92C287.137,311.368,287.137,313.617,287.137,315.313z M625.397,398.814
	c2.636,1.601,4.239,2.997,6.092,3.537c1.098,0.32,2.975-1.456,3.84-1.01c4.487,2.316,7.949-0.48,11.743-2.527
	C640.355,398.814,633.638,398.814,625.397,398.814z M290.035,480.125c-6.729-2.172-7.003,4.48-11.399,7.229
	C285.711,487.441,288.373,485.564,290.035,480.125z M172.569,365.273c1.63-2.438,3.408-5.148,5.24-7.822
	c1.394-2.033,2.856-4.02,4.968-6.979C174.578,353.797,170.615,361.118,172.569,365.273z M434.795,512.266
	c5.434-0.287,8.709-4.85,9.113-12.105C440.743,504.363,438.044,507.949,434.795,512.266z M807.972,292.4
	c-7.601-3.884-10.72-3.579-14.348,1.258C798.358,293.243,802.521,292.879,807.972,292.4z M217.244,434.314
	c5.15-0.963,6.344-2.947,5.936-10.016c-1.069,0.877-2.469,1.506-3.011,2.57C218.967,429.234,218.193,431.82,217.244,434.314z
	 M655.48,383.219c-2.361-1.498-3.693-2.663-5.239-3.146c-0.516-0.162-1.577,1.418-2.388,2.201c1.249,1.125,2.363,2.527,3.816,3.23
	C652.221,385.771,653.552,384.426,655.48,383.219z M216.046,448.516c4.837-1.445,6.913-4.631,7.181-8.873
	c-0.424-0.256-0.849-0.51-1.273-0.766C219.984,442.09,218.016,445.303,216.046,448.516z M213.229,280.515
	c0.349,0.311,0.698,0.621,1.047,0.932c3.244-3.911,6.487-7.822,9.73-11.732c-0.481-0.375-0.964-0.75-1.445-1.126
	C219.45,272.564,216.339,276.539,213.229,280.515z M668.238,516.293c1.761-4.1,1.761-4.1-8.261-5.027
	C663.155,513.199,665.55,514.656,668.238,516.293z M217.071,281.185c3.844,1.516,6.145-0.363,7.221-6.135
	C221.583,277.351,219.414,279.195,217.071,281.185z"/>
<path fill-rule="evenodd" clip-rule="evenodd" d="M842.172,465.777c2.04,3.574,3.753,6.576,5.478,9.6
	c-4.52,2.141-7.185,1.072-9.788-3.475c-2.188-3.822,0.068-5.352,4.031-6.438c-4.731-5.184-9.039-9.904-13.623-14.928
	c6.617-2.949,12.854-5.73,19.684-8.773c-5.474-4.936-10.313-8.898-14.676-13.33c-5.675-5.766-10.993-11.885-16.395-17.912
	c-0.576-0.643-1.199-2.119-0.904-2.482c0.621-0.766,1.806-1.381,2.812-1.471c4.888-0.44,14.5,5.207,16.763,9.574
	c0.402,0.777,1.213,1.844,1.899,1.895c7.925,0.576,11.536,7.15,16.704,11.625c3.224,2.791,6.775,5.322,10.519,7.342
	c1.647,0.887,4.397,0.842,6.195,0.111c4.096-1.664,7.741-1.309,11.548,0.627c3.382,1.719,6.961,3.053,10.314,4.822
	c1.13,0.596,1.83,2.006,2.728,3.043c-1.022,0.727-1.945,1.729-3.083,2.137c-15.035,5.4-30.102,10.713-45.156,16.061
	C845.678,464.354,844.168,464.994,842.172,465.777z"/>
<path fill-rule="evenodd" clip-rule="evenodd" d="M503.831,525.309c-3.676-2.244-6.668-4.072-9.045-5.523
	c11.991-1.721,24.708-4.902,38.243-3.672c18.646,1.697,37.439,1.768,56.17,2.535c0.663,0.027,1.369,0.219,1.98,0.057
	c7.606-2.01,8.552-1.385,8.733,5.045c-16.234,0-32.494,0.051-48.754-0.016c-14.146-0.057-28.291-0.313-42.436-0.287
	C506.836,523.451,503.413,520.775,503.831,525.309z"/>
<path fill-rule="evenodd" clip-rule="evenodd" d="M430.506,346.83c-0.451,1.742-0.896,3.467-1.342,5.193
	c0.72,0.575,1.44,1.151,2.161,1.728c1.099-2.694,2.198-5.39,3.297-8.085c0.606,0.564,1.213,1.127,1.819,1.689
	c0.279,0.68,0.56,1.357,0.582,1.412c2.546-1.549,5.094-3.098,7.641-4.647c0.232,0.352,0.465,0.703,0.696,1.055
	c-1.8,1.497-3.599,2.995-5.398,4.491c0.079,0.392,0.158,0.783,0.237,1.174c4.135-0.208,8.27-0.416,12.961-0.652
	c-2.423,3.138-4.516,5.848-6.607,8.557c-1.334,0.754-2.791,1.69-4.347,2.41c-0.801,0.37-1.802,0.563-2.673,0.469
	c-1.806-0.195-3.586-0.635-5.376-0.973c0.096,2.158,0.191,4.318,0.291,6.563c-4.547-0.239-9.965-0.524-15.382-0.809
	c-0.027-0.299-0.056-0.596-0.083-0.895c3.418-0.291,6.835-0.582,10.253-0.873c0.02-0.422,0.038-0.844,0.058-1.266
	c-1.837-0.182-3.675-0.363-5.827-0.576c0.523-0.918,1.147-2.011,1.808-3.168c-0.551-0.14-0.898-0.354-1.155-0.273
	c-3.871,1.203-8.105,1.807-11.52,3.807c-8.282,4.854-16.177,10.369-24.238,15.601c-2.066,1.341-4.173,2.621-6.813,2.95
	c5.103-4.006,10.205-8.012,15.309-12.019c-0.149-0.266-0.299-0.532-0.448-0.798c-2,0.785-4,1.57-6,2.354
	c-0.235-0.472-0.471-0.944-0.705-1.417c2.816-1.124,5.941-3.594,8.374-3.037c3.146,0.719,4.494-0.859,6.441-2.039
	c1.412-0.856,2.663-2.225,4.179-2.617c4.113-1.068,4.468-3.713,3.753-6.896c-2.46,0.21-4.773,0.406-7.087,0.604
	c-0.066-0.414-0.134-0.829-0.2-1.244c2.848-0.506,4.597-4.635,8.5-1.967c0.333,0.229,1.823-0.646,2.238-1.333
	c0.287-0.476-0.353-1.51-0.648-2.539c1.251-0.482,2.924-1.128,5.847-2.255c-1.368,1.799-1.983,2.607-2.599,3.416
	c0.267,0.53,0.533,1.06,0.799,1.59C423.025,349.956,426.751,348.398,430.506,346.83z"/>
<path fill-rule="evenodd" clip-rule="evenodd" d="M725.786,261.987c-6.623-1.876-13.245-3.752-19.868-5.628
	c-0.206,0.576-0.412,1.152-0.618,1.729c8.512,3.119,17.022,6.238,25.534,9.357c-0.028,0.162-0.057,0.322-0.086,0.482
	c-4.999-0.953-9.998-1.908-14.997-2.861c-0.167,0.436-0.333,0.871-0.499,1.307c3.228,1.257,6.455,2.514,9.684,3.771
	c-0.037,0.084-0.074,0.169-0.111,0.253c-9.817-1.951-19.635-3.902-28.065-5.578c-2.327,3.291-4.038,5.709-5.486,7.758
	c-2.817-0.896-5.077-1.616-7.339-2.336c-0.016-0.303-0.031-0.604-0.048-0.906c2.167,0,4.333,0,7.29,0
	c0.345-0.771,1.185-2.648,1.686-3.768c-2.025-3.232-3.322-6.561-5.67-8.771c-3.951-3.718,0.175-8.297-1.934-12.102
	c-0.205-0.37,1.664-2.717,2.537-2.697c2.38,0.055,4.84,0.626,7.089,1.473c2.883,1.084,5.589,2.637,8.222,3.916
	c-0.515,0.141-1.519,0.414-3.285,0.896c9.397,4.484,18.056,8.617,26.715,12.75C726.285,261.349,726.035,261.668,725.786,261.987z"/>
<path fill-rule="evenodd" clip-rule="evenodd" d="M750.57,250.144c4.441,1.637,9.185,3.385,14.408,5.309
	c-4.153,0-7.939-0.092-11.717,0.039c-1.836,0.064-4.314-0.088-5.338,0.977c-1.706,1.774-0.248,6.943,2.678,9.489
	c-6.362-2.254-9.025,1.21-11.84,5.079c-1.602,2.203-4.203,3.678-6.027,5.206c-1.237,2.188-2.425,4.29-3.094,5.474
	c-2.754-2.088-5.564-3.455-7.261-5.674c-3.046-3.986-5.107-2.158-8.134-0.055c-1.362,0.947-4.101-0.084-6.946-0.262
	c0.926-0.973,1.339-1.818,1.881-1.912c6.47-1.118,12.229-3.584,17.892-7.082c5.288-3.268,10.001-6.193,12.63-12.333
	c0.749-1.748,5.78-1.606,8.806-2.478C749.195,251.723,749.707,250.914,750.57,250.144z"/>
<path fill-rule="evenodd" clip-rule="evenodd" d="M711.999,196.375c-2.357-0.867-4.563-1.68-6.771-2.492
	c0.085-0.362,0.169-0.725,0.253-1.088c3.034,0.545,6.067,1.09,7.961,1.43c1.935,4.254,3.026,8.033,5.265,10.926
	c0.951,1.229,4.305,0.727,6.566,0.727c0.587-0.001,1.173-1.079,1.76-1.662c0.357,1.118,0.817,2.218,1.029,3.363
	c0.11,0.597-0.219,1.274-0.38,2.067c-3.209,0.661-5.976,1.437-5.925,5.826c0.016,1.346-2.863,2.726-4.682,4.321
	c-0.955-1.489-1.787-2.787-2.978-4.643c-1.539,1.983-2.945,3.796-4.352,5.607c-0.264-0.183-0.526-0.365-0.79-0.549
	c1.179-2.133,2.358-4.264,3.943-7.131c-2.684,0.633-4.889,1.152-7.598,1.791c1.072-1.631,1.931-2.935,3.571-5.428
	c-5.589-0.738-10.416-1.375-15.436-2.039c3.342-2.343,6.54-4.585,10.384-7.279c-1.915-0.506-3.689-0.975-6.254-1.652
	c4.215-2.795,6.896-0.928,9.191,1.293C708.492,198.642,710.115,197.593,711.999,196.375z"/>
<path fill-rule="evenodd" clip-rule="evenodd" d="M412.151,327.238c3.443-3.781,7.079-4.898,11.811-3.303
	c4.659,1.573,9.539,2.482,14.267,3.875c1.529,0.449,2.882,1.502,4.504,2.381c1.017-0.731,2.117-1.524,3.971-2.859
	c-0.524,3.422-3.453,6.777,2.439,7.865c-5.288,2.298-9.498,5.449-13.837,5.639c-4.262,0.186-9.02-2.023-12.888-4.316
	C418.687,334.307,415.813,330.646,412.151,327.238z"/>
<path fill-rule="evenodd" clip-rule="evenodd" d="M729.604,258.739c-12.662-4.224-25.324-8.446-38.184-12.735
	c1.821,2.572,3.481,4.784,4.957,7.112c0.296,0.468-0.042,1.978-0.191,1.993c-2.857,0.289-5.729,0.428-10.06,0.684
	c1.712-2.383,2.379-3.311,2.591-3.605c-5.767-5.607-11.332-11.021-17.184-16.712c3.093-0.937,5.153-1.561,8.458-2.562
	c2.252,1.486,7.15,2.253,8.447,7.405c4.351-2.401,6.168-1.404,9.995,4.891c2.901,0.603,4.74,0.714,6.359,1.368
	c7.072,2.856,14.101,5.825,21.097,8.865c1.445,0.628,2.683,1.733,4.016,2.619C729.807,258.287,729.705,258.513,729.604,258.739z"/>
<path fill-rule="evenodd" clip-rule="evenodd" d="M807.926,209.536c1.511-0.629,2.999-1.319,4.537-1.872
	c1.993-0.716,3.982-1.58,6.049-1.926c4.998-0.834,10.038-1.416,15.064-2.076c6.767-0.887,13.834-0.814,20.229-2.858
	c8.1-2.59,12.237-3.681,23.162-0.228c-1.057,0.418-2.176,0.727-3.15,1.287c-0.975,0.559-2.667,1.531-2.57,2.044
	c1.506,7.968-6.274,5.661-9.217,8.856c-1.101-5.168-4.89-8.455-9.763-7.793c-10.63,1.443-21.192,3.37-31.802,4.965
	c-4.02,0.605-8.095,0.841-12.145,1.244C808.189,210.631,808.058,210.083,807.926,209.536z"/>
<path fill-rule="evenodd" clip-rule="evenodd" d="M397.447,423.928c-1.137,0.846-2.588,1.473-3.349,2.576
	c-2.067,3-3.841,6.201-5.73,9.324c-0.525,0.479-1.051,0.957-1.576,1.436c-1.535,0.938-3.07,1.877-4.605,2.814
	c-0.329-0.314-0.658-0.629-0.987-0.941c1.334-1.422,2.667-2.842,4.298-4.58c-0.728-1.66-1.562-3.564-2.524-5.764
	c-1.265,0.52-2.422,0.996-3.76,1.545c1.063,1.418,1.939,2.586,2.816,3.754c-0.19,0.254-0.381,0.506-0.571,0.758
	c-3.133-1.5-6.267-3-9.567-4.578c-0.197-5.014,2.582-8.328,7.777-9.93c-1.522,1.68-3.045,3.361-4.567,5.043
	c0.41,0.424,0.819,0.85,1.229,1.273c7.729-7.32,15.457-14.641,23.185-21.961c0.203,0.17,0.406,0.342,0.609,0.512
	c-5.19,6.826-10.382,13.652-15.572,20.477c0.188,0.186,0.375,0.369,0.563,0.555c4.373-3.51,8.746-7.018,13.119-10.527
	c0.374,0.324,0.747,0.648,1.121,0.973c-0.683,2.463-1.364,4.928-2.047,7.393L397.447,423.928z"/>
<path fill-rule="evenodd" clip-rule="evenodd" d="M802.257,288.161c-0.187-1.662-0.313-2.791-0.474-4.222
	c1.599-0.138,3.154-0.271,4.91-0.422c-2.369-4.904,2.155-5.672,4.377-7.008c3.41-2.05,7.264-2.414,9.501,2.672
	c-4.568,3.172-5.713,10.529-14.288,9.769c2.742,1.469,4.46,2.39,6.178,3.312c-0.145,0.51-0.289,1.021-0.434,1.531
	c-3.773-0.84-7.885-0.998-11.25-2.662c-7.059-3.495-13.727-7.782-20.271-12.182C795.418,281.42,795.418,281.42,802.257,288.161z"/>
<path fill-rule="evenodd" clip-rule="evenodd" d="M793.91,251.486c-1.673,0.193-3.346,0.388-5.02,0.581
	c0.046,0.549,0.092,1.097,0.137,1.646c3.621-0.444,7.24-0.907,10.865-1.313c0.511-0.057,1.054,0.174,1.582,0.265
	c5.264,0.902,10.507,1.977,15.803,2.583c1.325,0.152,2.822-1.201,4.316-1.9c2.453,3.098,1.439,5.014-2.232,5.162
	c-7.325,0.295-14.727,0.813-21.977,0.07c-4.383-0.451-8.54-3.098-13.182-4.908c0.086-0.283,0.42-1.381,0.715-2.352
	c-5.866-1.262-11.443-2.459-17.021-3.658c0.115-0.459,0.23-0.918,0.345-1.378c8.592,1.353,17.184,2.704,25.775,4.056
	C793.981,250.722,793.945,251.104,793.91,251.486z"/>
<path fill-rule="evenodd" clip-rule="evenodd" d="M738.714,472.26c7.255,1.277,14.522,2.494,21.759,3.863
	c2.365,0.449,4.654,1.299,7.264,2.047c-6.919,4.367-17.951,4.367-23.66,0.131c-0.572-0.424-0.391-1.787-0.938-2.334
	c-1.354-1.354-2.927-2.484-4.414-3.705C738.723,472.26,738.714,472.26,738.714,472.26z"/>
<path fill-rule="evenodd" clip-rule="evenodd" d="M177.185,340.127c3.979-7.891,7.959-15.781,11.938-23.672
	c0.716,0.334,1.432,0.668,2.148,1.001c-2.195,4.644-4.391,9.288-6.885,14.565c2.039-0.479,3.338-0.785,3.227-0.758
	c-2.297,3.049-5.176,6.873-8.055,10.696C178.768,341.35,177.977,340.738,177.185,340.127z"/>
<path fill-rule="evenodd" clip-rule="evenodd" d="M742.004,240.416c0.832-3.326,3.546-4.236,6.496-3.555
	c6.5,1.502,12.896,3.459,20.465,5.541c-5.531,2.172-5.531,2.172-9.75-0.868c-0.131-0.094-0.261-0.255-0.397-0.263
	C753.301,240.982,747.784,240.707,742.004,240.416z"/>
<path fill-rule="evenodd" clip-rule="evenodd" d="M480.072,347.969c2.143,5.162,0.272,7.605-2.911,10.34
	c-2.967,2.549-4.675,6.514-7.314,9.523c-0.729,0.832-2.807,0.484-4.36,0.04c3.99-2.378,5.897-5.351,7.214-9.743
	C473.789,354.499,477.316,351.6,480.072,347.969z"/>
<path fill-rule="evenodd" clip-rule="evenodd" d="M397.308,424.078c3.703-4.764,7.414-9.521,11.104-14.295
	c0.755-0.977,1.435-2.01,2.149-3.016c0.39,0.224,0.779,0.447,1.169,0.671c-2.205,3.81-4.71,7.481-6.525,11.468
	c-1.563,3.436-8.013,5.672-2.846,11.096c-1.681,1.393-3.266,2.705-4.85,4.018c-0.505-0.199-1.009-0.396-1.514-0.594
	c0.487-3.17,0.975-6.342,1.457-9.504C397.447,423.928,397.308,424.078,397.308,424.078z"/>
<path fill-rule="evenodd" clip-rule="evenodd" d="M356.053,181.97c2.171-3.965,3.974-7.688,6.223-11.118
	c0.736-1.122,2.633-1.484,4.915-2.671c-0.823,4.346-0.558,8.305-2.355,10.736C363.408,180.845,359.453,180.904,356.053,181.97z"/>
<path fill-rule="evenodd" clip-rule="evenodd" d="M786.656,483.551c-5.726,1.949-11.451,3.896-17.229,5.863
	C774.02,479.842,774.537,479.631,786.656,483.551z"/>
<path fill-rule="evenodd" clip-rule="evenodd" d="M758.435,319.055c-1.546,4.879,2.031,5.799,5.61,6.99
	c-0.688,1.232-1.346,2.414-2.471,4.434c-4.188-4.264-8.217-8.368-12.247-12.473c0.424-0.568,0.849-1.137,1.272-1.706
	c2.646,0.951,5.294,1.902,7.95,2.862C758.56,319.172,758.435,319.055,758.435,319.055z"/>
<path fill-rule="evenodd" clip-rule="evenodd" d="M316.002,451.641c0.537,1.557,1.001,2.902,1.652,4.791
	c-3.522,0.811-6.942,1.598-10.701,2.461c0.794-2.846,1.446-5.186,2.145-7.688C311.258,451.342,313.439,451.479,316.002,451.641z"/>
<path fill-rule="evenodd" clip-rule="evenodd" d="M466.914,354.094c3.76-4.201-0.36-3.635-1.285-4.424
	c1.877-3.164,3.48-6.13,5.383-8.891c0.494-0.717,1.925-0.788,2.926-1.156c0.268,0.857,1.006,1.928,0.729,2.537
	c-1.777,3.924-3.777,7.746-5.703,11.602C468.279,353.873,467.597,353.982,466.914,354.094z"/>
<path fill-rule="evenodd" clip-rule="evenodd" d="M438.07,380.701c-3.407,8.713-11.902,11.944-17.955,17.806
	c-0.339-0.371-0.678-0.742-1.016-1.113C425.423,391.83,431.747,386.266,438.07,380.701z"/>
<path fill-rule="evenodd" clip-rule="evenodd" d="M197.734,305.129c0,0.734,0,1.467,0,2.563c1.734-1.311,3.173-2.396,5.202-3.928
	c-2.298,7.837-3.604,8.63-11.59,7.187c1.948-2.355,3.657-4.421,5.365-6.485C197.053,304.686,197.394,304.908,197.734,305.129z"/>
<path fill-rule="evenodd" clip-rule="evenodd" d="M351.933,67.207c3.7-5.207,7.767-9.598,15.176-6.073
	c-2.078,0.851-2.757,6.468-6.809,1.724c-2.506,1.841-5.031,3.695-7.556,5.551C352.474,68.007,352.203,67.607,351.933,67.207z"/>
<path fill-rule="evenodd" clip-rule="evenodd" d="M768.672,329.652c5.992,2.063,10.853,3.735,16.545,5.695
	C778.268,336.729,771.444,334.668,768.672,329.652z"/>
<path fill-rule="evenodd" clip-rule="evenodd" d="M406.373,452.672c1.112-4.568,5.854-5.844,8.445-9.07
	c0.521,0.467,1.042,0.934,1.563,1.4c-2.8,2.965-5.601,5.928-8.399,8.891C407.445,453.486,406.91,453.078,406.373,452.672z"/>
<path fill-rule="evenodd" clip-rule="evenodd" d="M352.295,72.422c-2.502,3.368-5.004,6.735-7.506,10.103
	c-2.676-6.678,4.155-7.225,5.436-11.33C350.914,71.605,351.604,72.013,352.295,72.422z"/>
<path fill-rule="evenodd" clip-rule="evenodd" d="M765.448,272.806c-3.911-3.467-10.602-2.285-12.637-8.929
	c4.594,2.407,9.188,4.814,13.781,7.222C766.211,271.667,765.83,272.237,765.448,272.806z"/>
<path fill-rule="evenodd" clip-rule="evenodd" d="M488.867,381.737c-2.099,0-4.197,0-6.295,0c-0.256-0.396-0.511-0.792-0.766-1.188
	c1.322-1.576,2.645-3.154,3.968-4.73c1.362,1.468,2.725,2.936,4.087,4.404C489.529,380.728,489.198,381.232,488.867,381.737z"/>
<path fill-rule="evenodd" clip-rule="evenodd" d="M333.684,217.578c-1.662,2.426-3.324,4.852-5.231,7.637
	c-1.686-1.57-3.147-2.932-4.609-4.293c1.806-0.4,3.69-0.598,5.395-1.262c1.453-0.565,2.699-1.666,4.036-2.531
	C333.41,217.279,333.547,217.427,333.684,217.578z"/>
<path fill-rule="evenodd" clip-rule="evenodd" d="M200.514,314.391c-3.385,4.121-6.309,7.682-9.421,11.471
	C191.104,320.6,195.696,314.893,200.514,314.391z"/>
<path fill-rule="evenodd" clip-rule="evenodd" d="M491.942,369.24c2.728-6.735,4.966-7.512,9.288-3.559
	C498.309,366.799,495.385,367.92,491.942,369.24z"/>
<path fill-rule="evenodd" clip-rule="evenodd" d="M386.792,437.264c0.525-0.479,1.051-0.957,1.576-1.436c1.042,0,2.084,0,3.912,0
	c-2.485,3.295-4.447,5.898-6.409,8.5c-0.56-0.301-1.119-0.602-1.679-0.902C385.059,441.373,385.926,439.318,386.792,437.264z"/>
<path fill-rule="evenodd" clip-rule="evenodd" d="M790.811,271.415c-3.401-1.009-6.041-1.792-9.994-2.966
	C789.023,265.66,789.023,265.66,790.811,271.415z"/>
<path fill-rule="evenodd" clip-rule="evenodd" d="M338.682,196.562c-1.701,2.708,0.955,7.595-6.16,8.844
	c1.928-3.843,3.354-6.688,4.782-9.534C337.764,196.101,338.223,196.332,338.682,196.562z"/>
<path fill-rule="evenodd" clip-rule="evenodd" d="M324.597,295.045c1.595-2.271,3.19-4.544,4.786-6.813
	c0.643,0.441,1.287,0.885,1.93,1.326c-1.641,2.245-3.281,4.489-4.922,6.733C325.793,295.875,325.194,295.46,324.597,295.045z"/>
</svg>
