<?xml version="1.0" encoding="utf-8"?>
<!-- Generator: Adobe Illustrator 16.0.0, SVG Export Plug-In . SVG Version: 6.00 Build 0)  -->
<!DOCTYPE svg PUBLIC "-//W3C//DTD SVG 1.1//EN" "http://www.w3.org/Graphics/SVG/1.1/DTD/svg11.dtd">
<svg version="1.1" id="Capa_1" xmlns="http://www.w3.org/2000/svg" xmlns:xlink="http://www.w3.org/1999/xlink" x="0px" y="0px"
	 width="1490.925px" height="841.89px" viewBox="0 0 1490.925 841.89" enable-background="new 0 0 1490.925 841.89"
	 xml:space="preserve">
<path fill-rule="evenodd" clip-rule="evenodd" d="M990.179,427.748c-1.639-3.289-3.041-6.725-4.977-9.826
	c-2.36-3.785-4.787-7.656-7.857-10.844c-9.062-9.404-19.316-16.496-33.123-17.369c-7.696-0.486-16.251,1.02-22.388-5.801
	c-2.144-2.383-4.028-5-5.373-6.686c2.796-1.475,4.858-2.701,7.033-3.676c2.859-1.281,5.926-2.145,8.677-3.611
	c1.799-0.959,3.196-2.67,4.773-4.045c-1.574-0.629-3.166-1.215-4.714-1.9c-0.896-0.398-1.722-0.955-3.485-1.955
	c2.102-0.998,3.531-1.678,5.628-2.674c-1.694-4.383-3.402-8.805-5.413-14.01c4.391-4.977,9.574-11.002,14.935-16.867
	c3.5-3.83,7.761-5.041,12.851-3.18c7.297,2.668,14.671,5.13,22.011,7.682c0.155,0.053,0.396,0.078,0.446,0.187
	c2.426,5.255,7.672,5.333,12.228,6.63c2.672,0.76,5.423,1.246,8.08,2.047c1.653,0.498,3.246,1.264,4.784,2.064
	c5.571,2.9,11.107,5.865,17.205,9.098c-0.146-2.586-0.229-4.02-0.356-6.27c16.106,8.311,31.401,16.201,47.11,24.307
	c-0.628,1.818-5.556,5.748,2.387,6.301c-0.675-1.301-1.281-2.473-1.808-3.488c1.63-0.654,3.25-1.305,5.241-2.102
	c-0.122,1.574-0.227,2.938-0.348,4.498c3.729-1.664,5.521-1.547,17.219,1.361c-5.435,1.379-3.347,10.467-10.89,9.777
	c-0.214-0.02-0.527,1.039-0.794,1.596c-0.417-1.051-1.183-2.1-1.187-3.152c-0.013-3.486-4.483-6.324-7.677-4.664
	c-0.293,0.152-0.298,0.859-0.504,1.527c1.179,0.557,2.299,1.084,3.611,1.703c-2.674,3.076-3.337,6.002-0.038,8.729
	c4.239,3.504,8.352,3.701,11.168,0.703c-1.602-1.396-3.205-2.795-4.809-4.193c4.402,1.096,8.805,2.191,13.029,3.242
	c1.026-1.936,1.848-3.486,3.063-5.777c-2.359-0.809-4.611-1.58-7.402-2.537c3.01-1.846,5.701-3.498,9.291-5.699
	c-1.966-0.285-3.462-0.5-4.771-0.689c2.007-3.381,3.205-3.309,8.275,0.73c-0.304-1.326-0.307-2.84-0.991-3.928
	c-0.762-1.209-2.144-2.025-3.255-3.014c0.235-0.328,0.47-0.656,0.705-0.984c2.991,1.389,5.982,2.777,8.99,4.174
	c0.128,7.248,1.619,9.568,8.088,11.529c-1.736-2.412-3.087-4.287-4.42-6.139c5.63,1.104,7.721,3.746,6.026,7.684
	c-0.298,0.693-0.864,1.834-1.28,1.822c-3.334-0.092-3.863,2.09-4.684,4.648c-0.401,1.252-2.466,1.971-4.016,3.104
	c-0.673-1.277-1.323-2.512-2.822-5.355c-1.209,3.83-2.625,6.307-2.64,8.791c-0.027,4.721,3.775,4.436,7.299,4.127
	c-1.523,4.305-0.404,7.369,3.146,9.861c1.752,1.232,3.003,3.176,4.785,5.133c1.572-1.135,3.816-2.754,6.568-4.742
	c0.21,2.383,0.366,4.158,0.607,6.912c1.83-7.197,5.176-8.035,13.037-4.506c1.684,0.756,3.665,0.848,5.832,1.314
	c0.392,2.33,5.135,5.258,8.598,5.846c2.476,0.42,4.737,2.324,6.996,3.725c2.201,1.363,4.277,2.928,6.522,4.484
	c-0.721,0.268-1.623,0.602-3.409,1.264c8.76,1.914,16.617,3.631,24.88,5.438c0-2.74,0-4.455,0-6.17
	c0.397-0.057,0.795-0.113,1.192-0.17c0.39,1.986,1.192,4.012,1.01,5.943c-0.104,1.102-1.87,2.979-2.79,2.922
	c-6.153-0.383-12.405-0.66-18.368-2.063c-3.579-0.842-6.693-3.656-10.244-5.717c0.137-0.238,0.596-1.045,1.917-3.365
	c-4.006,0.406-7.068,0.717-10.131,1.027c0.558,0.887,1.115,1.775,1.679,2.67c-2.771,1.865-4.927,0.553-5.812-3.125
	c-0.409-1.699-2.144-3.104-3.367-4.566c-0.35-0.418-1.395-0.486-1.479-0.859c-1.547-6.766-7.483-5.848-12.75-7.279
	c0.587,1.455,1.023,2.537,1.258,3.119c-2.197,0.744-4.445,1.506-6.694,2.27c-0.006,0.451-0.012,0.902-0.018,1.354
	c2.576,1.221,5.152,2.441,7.8,3.695c0.275-0.666,0.546-1.322,0.619-1.498c2.189,0.717,4.217,1.383,6.245,2.049
	c0.063-0.299,0.125-0.596,0.188-0.895c5.153,4.818,10.308,9.635,16.18,15.125c-2.548-0.371-4.442-1.195-5.097-0.617
	c-1.015,0.898-1.185,2.752-2.289,5.779c-1.293-3.477-2.275-6.119-3.552-9.553c-1.904,8.422-1.63,8.893,5.283,11.871
	c1.126,0.484,1.983,1.559,3.063,2.197c2.25,1.332,4.511,2.668,6.867,3.791c2.204,1.049,4.583,1.729,6.803,2.75
	c2.517,1.158,4.941,2.52,8.131,4.166c-0.262-5.521,3.061-6.342,6.063-7.357c3.053-1.033,5.171-0.016,6.131,3.594
	c-2.98,2.801-6.057,5.689-9.453,8.881c0.355,0.438,1.187,1.457,1.937,2.375c-4.965,0.652-9.674,1.27-14.383,1.887
	c-0.027,0.436-0.054,0.869-0.081,1.303c-1.767-1.662-3.534-3.324-5.302-4.988c-0.307,0.459-0.613,0.916-0.92,1.373
	c2.444,2.908,4.889,5.814,7.334,8.723c0.375-0.301,0.751-0.602,1.127-0.902c-0.365-0.93-0.73-1.859-1.551-3.951
	c1.963,1.545,2.937,2.311,4.33,3.408c0.43-0.953,0.873-1.939,1.317-2.926c0.599,0.482,1.198,0.965,1.797,1.447
	c-1.434,1.957-2.867,3.912-3.947,5.387c2.696,3.092,4.93,6.928,8.261,8.988c1.959,1.213,5.662-0.395,9.133-0.799
	c-1.109-2.191-1.614-3.188-2.528-4.992c5.449-0.773,10.7-2.781,15.34-1.824c4.702,0.971,8.8,4.869,12.814,7.277
	c1.392-2.303,2.964-4.904,4.536-7.506c0.725,0.193,1.449,0.387,2.174,0.582c0.365,3.527,0.873,7.051,1.053,10.588
	c0.152,2.984,0.987,4.34,4.439,4.344c9.635,0.01,19.278,0.371,28.896,0.961c1.74,0.107,3.619,1.709,5.016,3.053
	c9.396,9.051,18.665,18.23,28.03,27.313c0.602,0.584,1.662,0.697,2.964,0.57c-15.488-18.154-30.876-36.26-42.275-58.033
	c9.65-2.027,19.139-3.645,28.401-6.107c5.405-1.438,7.665,0.209,9.73,5.088c2.174,5.133,5.798,9.633,8.421,14.604
	c1.524,2.889,2.328,6.156,3.438,9.207c0.419,0.074,0.798,0.275,1.026,0.164c9.769-4.707,10.401-4.719,17.242,3.311
	c2.808,3.297,4.228,8.227,7.577,10.506c4.722,3.215,4.664,9.482,9.771,12.289c2.877,1.582,4.721,5.025,7.078,7.588
	c0.499,0.541,1.209,0.891,2.542,0.801c-0.607-1.148-1.216-2.299-1.823-3.447c0.153-0.143,0.308-0.287,0.461-0.43
	c6.142,7.492,12.284,14.984,18.755,22.879c0.385-3.395,0.693-6.125,1.085-9.596c1.497,0.385,3.062,0.365,4.033,1.115
	c3.527,2.717,6.543,6.236,10.344,8.424c4.159,2.396,8.329,5.947,13.389,5.445c3.683-0.365,5.495,1.441,7.45,3.553
	c5.188,5.598,10.253,11.309,15.395,16.949c0.736,0.809,1.627,1.477,2.979,1.822c-0.469-0.857-0.938-1.715-1.407-2.572
	c0.207-0.186,0.413-0.373,0.62-0.559c3.393,3.959,6.784,7.92,10.436,12.182c2.477-3.625,4.6-2.887,7.285-0.504
	c3.018,2.676,6.575,4.744,9.817,7.021c-0.339,0.037-1.278,0.139-2.682,0.291c0.891,1.428,1.672,2.68,2.453,3.932
	c-0.174,0.424-0.349,0.846-0.522,1.268c-1.552-0.52-3.104-1.041-5.431-1.822c2.256,3.355,6.162,6.564,0.948,9.893
	c-2.93,1.871-5.623,4.111-8.416,6.18c-1.07,1.67-2.351,3.666-3.911,6.098c-26.385-19.586-52.311-38.83-77.681-57.664
	c-3.567,2.322-6.248,5.488-8.294,5.121c-5.099-0.916-10.759-2.381-14.669-5.521c-10.211-8.203-19.623-17.406-29.291-26.277
	c-0.682-0.627-0.851-1.811-1.258-2.734c-0.643,0.539-1.285,1.078-1.928,1.617c2.704,3.725,5.003,7.846,8.19,11.096
	c7.845,7.996,16.003,15.693,24.219,23.313c5.399,5.008,4.436,16.133-2.188,21.906c-1.377,1.199-2.718,2.461-4.199,3.52
	c-3.48,2.488-2.93,5.229,0.067,7.215c6.635,4.398,13.461,8.525,20.386,12.451c1.495,0.85,3.747,0.287,5.621,0.568
	c1.208,0.182,2.768,0.354,3.479,1.148c10.137,11.326,22.273,19.887,35.866,26.531c3.96,1.938,6.139,9.695,4.058,12.961
	c6.38,3.693,12.816,7.303,19.123,11.125c2.986,1.809,4.319,3.688,3.68,8.215c-0.6,4.248,2.058,9.621,4.748,13.477
	c2.54,3.643,6.799,6.24,10.639,8.789c7.408,4.916,15.055,9.477,23.41,14.688c-6.662,1.525-13.247-0.109-17.12-4.941
	c-4.605-5.746-11.144-7.611-17.354-10.121c-9.807-3.961-19.836-7.369-29.688-11.225c-1.898-0.742-3.333-2.596-5.13-3.693
	c-2.409-1.471-4.825-3.35-7.48-3.916c-6.505-1.385-13.248-1.967-18.001-7.398c-2.522-2.883-4.804-5.975-7.193-8.973
	c-0.265,0.467-0.529,0.934-0.793,1.402c-1.542-0.131-3.242,0.104-4.587-0.48c-1.83-0.795-4.195-1.814-1.935-4.674
	c0.335-0.424-0.544-2.531-0.699-2.514c-6.031,0.727-8.701-4.879-12.172-7.615c-12.005-9.467-26.573-14.318-38.819-23.254
	c-6.749-4.926-11.376-11.25-14.727-18.328c-1.042-2.199,2.363-6.504,3.731-9.844c0.6-0.063,1.199-0.125,1.798-0.186
	c-1.836-1.516-3.673-3.029-6.17-5.088c3.746-2.361,7.659-4.826,11.802-7.438c-18.411-19.795-35.547-40.328-59.417-54.697
	c0,8.336-0.689,16.48,0.386,24.385c0.36,2.654,5.133,4.803,8.038,6.984c2.142,1.605,4.525,2.891,6.802,4.318
	c-0.365,0.666-0.729,1.33-1.095,1.996c-2.118-0.92-4.235-1.842-6.999-3.041c0.019-0.012-0.865,0.568-1.623,1.066
	c-0.819-1.967-1.55-3.723-2.279-5.477c-0.452,0.133-0.904,0.266-1.356,0.398c0.807,2.588,1.613,5.176,2.419,7.764
	c-5.212-5.283-5.041-4.881-12.133-1.883c-7.3,3.084-15.019,5.166-22.472,7.908c-3.148,1.158-4.471,0.139-5.489-2.813
	c-4.01-11.629-11.844-20.543-20.807-28.594c-0.952-0.854-2.195-1.387-2.132-1.348c-0.716-2.508-0.712-4.197-1.551-5.139
	c-3.934-4.412-8.058-8.658-12.247-12.832c-0.391-0.389-1.711,0.156-2.6,0.27c-1.005-1.932-2.01-3.863-3.03-5.822
	c-2.413,0-4.824,0-7.517,0c0.288,1.563,0.531,2.889,0.834,4.535c2.645-2.217,4.362-1.85,5.221,1.219
	c-1.409,0.188-2.818,0.377-4.228,0.566c-0.362,0.693-0.724,1.387-1.085,2.082c1.08,0.441,2.24,0.756,3.228,1.354
	c2.677,1.619,5.149,2.959,6.912,6.234c1.479,2.752,5.977,3.857,9.1,5.754c1.775,1.078,3.863,6.51,4.013,9.074
	c0.061,1.055,1.125,2.051,1.18,3.658c-0.857-0.771-1.907-1.412-2.54-2.336c-2.635-3.855-6.493-5.377-10.406-3.076
	c-1.617,0.949-2.977,3.648-3.067,5.615c-0.188,4.133,0.539,8.307,0.931,12.939c2.301-1.197,4.574-2.295,6.766-3.537
	c7.935-4.5,15.341-1.037,16.835,7.695c0.254,1.486,1.756,2.813,2.829,4.09c1.127,1.342,2.431,2.535,3.657,3.793
	c-0.325,0.367-0.65,0.732-0.976,1.1c-1.036-0.664-2.071-1.328-3.106-1.99c-0.203,0.129-0.405,0.258-0.608,0.389
	c1.187,1.775,2.373,3.553,3.942,5.9c0.787-1.479,1.239-2.328,1.782-3.348c5.237,5.033,10.356,9.951,15.476,14.871
	c0.476-0.492,0.951-0.982,1.427-1.475c-4.449-4.189-8.898-8.377-13.349-12.566c0.316-0.379,0.633-0.76,0.948-1.139
	c3.227,2.734,6.453,5.467,9.873,8.365c0.31-0.637,0.644-1.322,0.872-1.791c3.623,3.012,7.235,5.855,10.626,8.943
	c0.885,0.805,1.035,2.391,1.6,3.582c2.051,4.326,4.804,6.977,10.135,7.924c3.272,0.58,5.998,4.674,8.801,7.365
	c4.551,4.369,9.018,8.594,15.031,11.242c2.552,1.123,3.878,5.029,5.958,7.945c0.119-1.23,0.264-2.723,0.438-4.533
	c4.588,3.311,9.186,6.625,13.783,9.941c4.507,3.846,9.014,7.689,13.521,11.535c-1.45-3.17-5.623-5.678-5.385-7.654
	c0.605-5.037-1.588-3.865-4.378-2.945c0.213-1.211,0.387-2.203,0.688-3.922c-1.903,1.277-3.179,2.133-4.454,2.988
	c-1.092-5.354-5.718-9.5-10.153-8.631c0.419-1.338,0.776-2.48,1.232-3.939c9.111,3.697,15.854,10.371,23.338,16.059
	c11.435,8.688,23.408,16.666,34.969,25.195c3.86,2.848,7.523,5.508,12.62,5.049c0.254-0.023,0.477,1.236,0.945,1.602
	c0.898,0.699,1.964,1.184,2.96,1.758c0.259-0.318,0.519-0.637,0.778-0.955c-0.778-1.373-1.557-2.744-2.763-4.871
	c6.536,1.1,4.786,7.857,8.54,9.705c2.861-2.965,2.514,2.363,4.658,2.309c-0.133-0.781-0.281-1.662-0.372-2.193
	c4.191-1.289,2.606-4.553,2.138-7.92c2.13,2.727,3.696,4.732,5.285,6.766c-0.534,0.363-1.269,0.859-1.289,0.873
	c2.374,2.729,4.693,5.391,7.742,8.895c-2.789,0.512-4.874,0.896-7.089,1.303c2.035,1.32,4.31,2.797,6.585,4.273
	c-9.745-0.658-19.403,2.438-28.282-1.941c-8.484-4.186-16.896-8.514-25.804-13.014c0.1-0.557,0.286-1.598,0.293-1.637
	c-5.388-3.152-10.463-6.16-15.577-9.104c-6.362-3.662-12.742-7.297-19.166-10.85c-0.47-0.26-1.373,0.406-2.048,0.346
	c-1.158-0.104-3.044-0.105-3.327-0.732c-3.465-7.701-11.62-7.617-18.235-11.506c0.139,1.434,0.218,2.25,0.362,3.732
	c-1.083-0.723-2.32-1.086-2.64-1.838c-1.656-3.908-4.611-5.426-7.165-2.721c-2.747,2.908-5.193,0.717-6.368-0.334
	c-3.438-3.08-6.179-6.939-9.13-10.42c0.926-0.369,2.031-0.813,3.627-1.451c1.033,0.82,2.778,2.209,4.523,3.598
	c0.407-0.408,0.813-0.816,1.22-1.225c-2.398-2.367-4.798-4.734-7.439-7.34c1.019,0.107,1.902,0.201,2.291,0.244
	c0.504-10.836-9.505-8.254-15.463-12.111c3.562,8.512-4.313,8.545-7.797,11.65c-1.79-0.857-3.422-1.639-5.055-2.422
	c4.251,8.291,13.451,7.104,20.993,11.469c-1.827,0.389-2.527,0.537-3.874,0.824c2.165,1.441,3.852,2.564,5.538,3.688
	c-7.802-3.529-15.118-8.369-24.564-6.375c-0.516,0.953-1.187,2.191-1.582,2.922c4.329,3.467,8.179,7.086,12.574,9.828
	c1.991,1.244,5.069,0.746,8.357,1.117c0.042,0.197,0.298,1.395,0.729,3.41c5.379,0,10.948,0,14.72,0
	c5.351,3.414,9.678,6.176,14.713,9.387c-0.736,5.82,5.456,4.717,9.919,6.029c-0.826-1.361-1.652-2.723-2.479-4.084
	c0.164-0.15,0.328-0.301,0.491-0.451c7.078,7.42,14.155,14.842,21.232,22.264c0.591-0.422,1.181-0.842,1.771-1.262
	c-3.088-6.236-8.155-11.289-11.487-17.598c3.312,2.688,6.622,5.377,10.107,8.205c0.083-0.164,0.565-1.107,1.103-2.16
	c2.797,5.688,5.563,11.311,8.241,16.754c-0.369-0.018-1.841-0.084-3.313-0.15c-0.129,0.283-0.259,0.568-0.389,0.854
	c3.832,2.463,8.437,4.268,11.258,7.588c2.391,2.814,2.72,7.379,4.147,11.742c-2.473-0.32-4.449-0.576-6.53-0.844
	c-1.792-2.898-3.087-7.314-6.002-9.135c-3.881-2.422-9.023-2.824-13.94-3.715c1.446,0.945,2.892,1.893,4.338,2.838
	c-0.207,0.516-0.415,1.033-0.622,1.549c-2.237-1.01-4.499-1.971-6.705-3.045c-3.66-1.781-7.285-3.635-10.926-5.457
	c-1.171-1.676-2.342-3.352-3.513-5.027c0.269-0.201,0.538-0.404,0.807-0.605c2.81,1.439,5.618,2.879,8.427,4.318
	c-2.396-2.584-5.147-4.51-8.061-6.148c-1.139-0.641-2.68-0.523-3.971-0.951c-1.54-0.51-3.008-1.234-4.508-1.867
	c0.084-0.199,0.167-0.4,0.251-0.6c-7.046-2.139-14.092-4.277-21.138-6.416c-0.307,0.74-0.612,1.482-0.919,2.225
	c10.578,5.047,21.154,10.098,31.745,15.121c0.242,0.115,0.638-0.092,0.962-0.148c2.775,2.875,5.551,5.75,8.733,9.047
	c-0.85,3.477-1.94,7.936-3.249,13.287c-7.798-5.953-14.656-11.189-21.514-16.424c-0.274,0.225-0.549,0.451-0.824,0.676
	c1.011,2.156,2.021,4.311,3.677,7.846c-6.51-2.316-11.543-4.105-16.576-5.895c0.066-0.189,0.133-0.377,0.198-0.564
	c3.444,0.25,6.889,0.502,10.332,0.754c0.22-0.871,0.439-1.74,0.659-2.609c-6.657-2.982-13.314-5.963-20.474-9.17
	c0.299,1.504,0.5,2.518,0.789,3.971c-4.515-2.221-8.613-4.734-13.058-6.199c-1.991-0.656-4.675,0.791-7.929,1.469
	c3.923,2.008,6.372,3.26,8.821,4.514c-0.244,0.457-0.488,0.914-0.732,1.369c-1.254-0.609-2.508-1.219-4.541-2.205
	c1.621,8.766,8.647,6.324,13.851,7.141c-2.581,5.176-6.056,4.074-10.351,1.906c0.865,2,1.329,3.074,1.937,4.48
	c-6.499-1.957-12.667-3.699-18.759-5.676c-13.641-4.428-27.793-4.205-41.859-4.775c-8.46-0.344-16.926-0.531-25.384-0.912
	c-16.854-0.758-33.703-1.598-50.69-1.846c11.36,4.473,23.628,4.936,35.493,7.713c-2.596,0-5.19,0-8.373,0
	c0.904,1.143,1.372,1.734,1.614,2.041c-3.103,0.514-6.124,1.479-9.109,1.377c-2.78-0.094-5.484-1.578-8.29-2.004
	c-6.871-1.043-14.146-0.76-20.592-2.963c-10.398-3.553-21.721-3.803-31.516-8.877c-3.54-1.834-7.49-1.842-11.628-4.844
	c0.699,2.135,1.037,3.162,1.374,4.191c-4.019-5.961-10.713-7-17.209-8.619c1.304,0.951,2.607,1.904,2.977,2.174
	c-0.651,2.033-1.185,3.697-2.125,6.635c-5.043-2.248-10.789-4.809-16.536-7.369c0.188-0.473,0.377-0.945,0.565-1.416
	c1.748,0.602,3.496,1.205,4.924,1.695c-11.35-11.762-26.587-15.996-41.673-20.979c-7.423-2.451-14.017-7.408-20.994-11.215
	c-3.8-2.074-7.565-4.223-11.456-6.111c-1.381-0.67-3.075-0.842-4.645-0.938c-2.456-0.15-4.927-0.041-7.825-0.041
	c-0.044,0.844-0.146,2.813-0.244,4.736c-1.738-0.467-3.875-1.043-6.424-1.73c0.456,1.699,0.745,2.777,0.806,3.002
	c-5.462-0.68-10.889-1.355-16.548-2.061c2.968,3.186,5.294,5.684,7.62,8.182c-10.214-4.637-20.618-8.23-31.998-6.629
	c-1.801-7.453-6.884-9.133-12.751-4.676c-0.543,0.412-1.741-0.156-2.576,0.016c-1.025,0.211-1.988,0.723-2.979,1.104
	c0.102,0.408,0.203,0.816,0.306,1.223c4.156,0.383,8.313,0.764,12.471,1.146c0.031,0.203,0.063,0.406,0.093,0.609
	c-0.637,0.17-1.28,0.512-1.908,0.484c-11.885-0.541-23.099,3.582-34.705,4.955c-1.274,0.15-3.313,0.809-3.715,0.271
	c-3.836-5.131-8.499-2.191-12.784-1.428c-21.455,3.822-42.853,7.971-64.333,11.633c-6.863,1.17-13.984,0.793-20.874,1.857
	c-8.341,1.287-16.742,1.428-25.129,3.471c-8.161,1.988-17.224,0.719-25.832,0.078c-1.905-0.143-3.561-3.646-6.347-5.301
	c0.35,1.506,0.698,3.012,0.915,3.945c-16.972,5.07-33.896,10.127-51.264,15.314c1.667,3.938,3.047,7.197,4.496,10.619
	c-5.373,2.494-6.794-1.48-8.574-4.447c-2.099-3.498,0.213-5.063,3.626-6.086c-2.922-4.168-5.397-8.178-8.416-11.725
	c-0.922-1.082-3.453-1.486-5.042-1.17c-3.585,0.715-5.929-0.102-7.929-3.314c-5.888-9.453-12.033-18.748-18.27-28.402
	c8.285-1.461,16.146-2.846,24.502-4.318c-1.474-3.061-2.582-5.07-3.405-7.191c-0.421-1.086-0.713-2.52-0.321-3.498
	c0.207-0.516,2.146-0.793,3.066-0.479c2.471,0.842,5.513,1.455,7.07,3.25c4.054,4.67,8.573,3.695,13.514,2.52
	c6.623-1.576,13.282-3.041,19.987-4.205c2.813-0.488,5.779-0.08,9.146-0.08c-0.055-1.02-0.129-2.391-0.252-4.688
	c1.578,0.521,3.6,0.559,4.19,1.496c2.167,3.445,4.403,5.266,9.041,5.201c7.324-0.1,14.668,1.205,22.198,1.936
	c-2.274-7.021-6.679-11.336-15.002-10.664c-0.101-1.656-0.175-2.873-0.258-4.246c-2.276,0-4.504,0-7.559,0
	c1.239,2.074,2.101,3.514,2.854,4.775c-1.354,2.381-2.641,4.643-4.621,8.125c-1.86-2.898-3.909-5.176-4.896-7.846
	c-1.444-3.904-3.308-5.299-7.749-4.711c-13.304,1.758-26.683,2.941-40.038,4.287c-1.3,0.131-2.692,0.016-3.958-0.309
	c-5.507-1.41-10.136-1.193-11.424,5.707c-0.178,0.953-0.289,2.068,0.032,2.938c1.055,2.846-1.816,7.203-5.829,7.682
	c-11.173,1.326-22.372,2.961-33.589,3.209c-7.342,0.162-14.745-2.779-22.096-2.668c-6.586,0.1-13.16,2.379-19.695,3.889
	c-2.362,0.545-4.596,1.646-7.862,2.855c4.223,1.629,7.816,2.896,11.313,4.391c6.724,2.877,13.345,5.998,20.104,8.785
	c3.304,1.361,3.923,3.84,2.15,6.131c-1.277,1.65-2.556,3.879-6.63,2.293c-5.771-2.248-12.028-5.539-18.926-2.859
	c-1.126,0.438-2.884-0.754-4.35-1.191c-0.199,0.492-0.397,0.984-0.596,1.477c1.433,0.629,2.866,1.258,4.882,2.143
	c-0.807,1.023-1.593,2.02-2.614,3.314c1.266,0.443,2.439,0.857,3.612,1.27c-0.225,0.588-0.449,1.178-0.675,1.768
	c-2.134-1.051-4.268-2.102-6.509-3.205c-0.208,0.408-0.64,1.258-1.107,2.178c-2.488-2.131-4.59-5.172-7.367-6.033
	c-4.64-1.439-9.712-1.488-14.714-1.248c2.242,1.17,4.768,2,6.663,3.582c3.296,2.752,5.772,6.709,9.378,8.813
	c5.014,2.928,10.723,4.689,16.193,6.793c2.622,1.01,5.382,1.658,7.688,2.354c-0.795,1.764-1.524,3.379-2.288,5.07
	c-9.666-3.109-19.68-6.33-29.88-9.611c0,2.732,0,4.658,0,6.586c-1.984-0.111-3.969-0.223-6.628-0.371
	c1.13-1.482,1.637-2.146,2.574-3.377c-3.81-0.801-6.337-5.223-10.715-1.672c-0.381,0.311-2.109-1.484-3.308-1.664
	c-5.161-0.768-9.64-3.002-14.378-5.086c-6.555-2.885-13.993-3.842-21.111-5.346c-7.298-1.543-14.643-2.91-22.012-4.061
	c-6.741-1.051-13.188,0.379-19.603,4.061c1.54,0.461,3.051,1.098,4.624,1.357c9.339,1.533,18.708,2.885,28.029,4.512
	c2.657,0.465,5.409,1.029,6.142,4.709c0.236,1.188,2.604,2.127,4.167,2.746c0.386,0.154,2.174-1.934,2.078-2.063
	c-1.077-1.434-2.208-2.994-3.699-3.912c-1.89-1.164-4.125-1.768-5.835-3.67c32.395,9.119,64.79,18.238,98.78,27.807
	c-4.202,2.012-6.968,3.592-9.912,4.697c-9.813,3.686-19.723,7.107-29.526,10.813c-5.548,2.098-8.702-2.738-13.03-4.133
	c-0.986-0.318-1.716-1.432-3.021-2.582c-0.322,1.279-0.525,2.08-0.608,2.41c-1.899-1.139-3.82-2.982-6.031-3.449
	c-3.278-0.691-8.46-1.842-9.815-0.242c-3.044,3.594-5.227,1.418-7.95,0.84c-0.902-0.191-1.96,0.342-2.998,1.52
	c5.479,1.893,10.957,3.783,16.436,5.676c-0.063,0.271-0.126,0.543-0.189,0.813c-3.219-0.725-6.437-1.449-9.655-2.174
	c-0.172,0.604-0.343,1.205-0.515,1.807c6.232,2.006,12.464,4.01,18.696,6.014c0.045,0.383,0.09,0.766,0.135,1.148
	c-3.579,0.223-7.158,0.445-10.572,0.656c-1.021,0.859-2.308,2.875-3.851,3.096c-16.124,2.309-32.289,4.328-47.78,6.342
	c-0.992-1.213-1.233-1.428-1.377-1.695c-3.189-5.975-0.165-6.99,5.104-6.689c1.466,0.084,4.065,0.934,4.023-2.664
	c-0.009-0.783,3.889-1.592,5.975-2.42c2.354-0.932,5.735,0.156,6.628-3.828c0.163-0.729,3.101-1.305,4.667-1.131
	c1.841,0.203,3.584,1.301,5.507,2.064c-1.138-7.932-2.799-7.949-9.366-10.094c-11.792-3.852-24.235-1.57-35.995-5.369
	c-5.476-1.77-11.391-2.141-17.737-0.098c-3.364,1.082-8.853,0.271-13.796-3.203c-9.976-7.014-21.134-13.012-34.007-13.92
	c-4.586-0.324-9.141-1.084-13.71-1.643c-0.216,0.504-0.432,1.008-0.648,1.512c3.586,1.811,7.171,3.619,10.756,5.43
	c-0.125,0.361-0.251,0.723-0.376,1.084c-3.604-0.873-7.21-1.74-10.811-2.631c-0.307-0.076-0.785-0.27-0.83-0.482
	c-1.849-8.779-6.91-2.156-9.206-1.145c-5.416,2.385-12.039,2.967-15.805,8.563c-0.268,0.398-2.035,0.457-2.285,0.1
	c-3.622-5.178-8.664-2.605-13.21-2.518c-13.623,0.258-27.252,0.396-40.865,0.945c-9.198,0.371-18.362,1.547-27.559,1.998
	c-6.718,0.33-13.465,0.064-20.343,0.906c3.443,0.965,6.834,2.242,10.34,2.836c10.954,1.855,21.94,3.531,32.937,5.119
	c5.25,0.758,10.585,0.961,15.816,1.814c2.197,0.359,4.226,1.756,6.331,2.682c-0.181,0.596-0.361,1.191-0.542,1.787
	c-2.35,0.373-4.7,0.744-7.179,1.137c1.499,3.012,2.841,4.084,6.829,2.793c4.315-1.398,9.398-0.818,14.11-0.523
	c8.839,0.555,17.653,1.525,26.478,2.322c-0.052,0.664-0.104,1.33-0.156,1.994c-10.423-0.752-20.845-1.506-30.851-2.229
	c4.582,2.273,9.136,5.492,14.185,6.807c7.225,1.883,14.813,2.375,22.643,3.518c-0.019,0.125-0.211,1.408-0.553,3.676
	c3.397-1,6.256-1.873,9.138-2.668c0.762-0.211,1.605-0.316,2.388-0.236c14.468,1.48,28.95,2.842,43.391,4.553
	c14.955,1.77,29.854,1.291,44.781-0.164c2.876-0.279,5.802-0.041,8.704-0.041c0.011,0.443,0.021,0.887,0.032,1.332
	c-4.657,0.406-9.308,1.039-13.972,1.182c-19.103,0.582-37.715,3.939-55.999,9.387c-33.468,9.971-67.658,16.172-102.421,19.213
	c-3.146,0.275-6.4-0.68-9.521-2.24c1.457-0.305,2.915-0.609,4.372-0.914c-0.01-0.521-0.02-1.045-0.03-1.566
	c-4.787,0-9.616-0.412-14.352,0.076c-14.161,1.463-28.286,3.27-42.422,4.969c-1.308,0.156-2.585,0.561-3.891,0.756
	c-6.007,0.9-12.065,2.719-18.02,2.434c-9.84-0.473-18.696,2.373-27.588,5.676c-8.071,2.998-8.702,2.857-13.629-3.926
	c-6.832-9.404-13.661-18.811-20.944-28.842c4.923-0.805,9.226-1.09,13.282-2.242c18.164-5.162,36.206-10.766,54.419-15.74
	c3.898-1.064,8.329-0.236,12.513-0.182c4.234,0.055,8.471,0.152,12.699,0.369c10.365,0.531,20.72,1.271,31.089,1.684
	c10.043,0.4,20.098,0.514,30.148,0.689c0.746,0.014,1.501-0.473,2.864-0.936c-1.417-2.697-2.66-5.064-3.933-7.488
	c0.939-0.125,2.02-0.271,3.1-0.416c0.033-0.477,0.065-0.955,0.098-1.432c-6.388-0.65-12.776-1.299-19.164-1.949
	c-0.077,0.633-0.154,1.266-0.23,1.898c1.665,0.252,3.393,0.303,4.977,0.809c1.685,0.539,3.233,1.508,4.84,2.289
	c-0.084,0.439-0.168,0.877-0.253,1.316c-4.847-0.787-9.694-1.574-14.542-2.361c0.043-0.455,0.085-0.91,0.128-1.367
	c1.042-0.328,2.085-0.658,3.128-0.986c-0.004-0.564-0.009-1.127-0.013-1.691c-10.693,0-21.387,0-31.912,0
	c-0.398-3.623-0.654-5.955-0.974-8.859c2.205,0.41,4.505,0.838,6.805,1.266c0.145-0.355,0.291-0.711,0.436-1.068
	c-1.478-0.596-3.095-0.975-4.41-1.824c-5.751-3.713-11.949-4.426-18.537-3.197c-14.864,2.77-29.32-0.559-43.807-3.082
	c-13.058-2.273-25.692-0.256-38.359,2.875c-8.982,2.221-18.146,3.701-27.415,5.551c-0.087-1.16-0.134-2.139-0.238-3.113
	c-0.517-4.842,0.605-8.279,6.235-9.336c2.086-0.393,6.472-0.494,4.026-5.422c21.583-7.125,42.824-14.553,64.328-21.117
	c20.641-6.303,41.191-13.395,62.891-15.201c12.72-1.059,25.524-1.104,38.291-1.588c11.401-0.432,22.803-0.836,34.204-1.273
	c0.824-0.031,1.755-0.021,2.445-0.389c6.073-3.236,12.872-1.713,19.228-3.027c0.795-0.166,1.623-0.322,2.346-0.67
	c7.104-3.416,14.439-5.156,22.41-3.951c2.201,0.332,4.565-0.504,6.863-0.717c16.255-1.516,32.834,0.086,48.706-5.08
	c1.092-0.355,2.142-0.842,3.212-1.268c-0.052-0.475-0.104-0.949-0.154-1.424c-4.801-0.6-9.59-1.336-14.405-1.756
	c-3.44-0.299-6.919-0.15-10.379-0.246c-2.824-0.078-5.568-0.537-6.531,3.467c-0.264,1.094-2.774,2.125-4.367,2.338
	c-7.942,1.068-14.421-3.33-21.212-6.271c-9.94-4.305-19.754-8.912-29.526-13.59c-3.613-1.729-5.667-1.693-5.728,3.008
	c-0.021,1.641-0.505,3.275-0.777,4.914c-1.356,8.184-7.342,11.611-15.015,8.402c-2.46-1.029-3.961-2.303-3.547-6.008
	c0.401-3.596-1.695-7.496-2.827-11.223c-0.329-1.084-1.077-2.053-1.693-3.035c-4.374-6.977-3.377-13.969,0.333-20.705
	c2.626-4.77,5.702-9.309,8.789-13.803c2.091-3.047,4.835-2.527,7.172-0.305c9.444,8.984,19.846,17.055,27.006,28.252
	c0.873,1.365,3.448,3.318,3.82,3.049c1.87-1.355,4.186-3.139,4.676-5.174c2.188-9.08,6.224-16.953,14.03-22.223
	c3.631-2.451,7.954-4.018,12.144-5.467c7.357-2.547,14.843-4.73,22.297-6.992c2.694-0.816,5.422-1.6,8.188-2.084
	c5.934-1.043,6.444-0.373,6.688,5.66c0.187,4.586,0.809,9.162,1.459,13.713c0.128,0.893,1.142,2.162,1.972,2.373
	c7.19,1.83,14.427,3.486,21.669,5.102c0.719,0.16,1.979-0.02,2.305-0.504c4.506-6.672,11.597-4.971,17.933-5.627
	c2.665-0.275,5.357-0.287,8.855-0.459c-1.768-4.289-3.088-7.49-4.421-10.723c2.278,1.25,4.937,2.707,8.713,4.779
	c-0.797-2.256-1.12-3.17-1.376-3.893c7.649,0.49,15.151,0.971,22.653,1.453c0.135-0.525,0.27-1.053,0.404-1.578
	c-0.821-0.578-1.583-1.273-2.472-1.717c-8.186-4.078-16.371-8.154-24.605-12.133c-2.616-1.264-5.276-1.939-5.817,2.543
	c-3.553-2.006-4.563-4.553-4.361-8.115c0.081-1.434-1.072-3.83-2.258-4.305c-13.585-5.432-27.203-10.813-41.012-15.639
	c-3.464-1.211-6.945-2.033-9.134-4.986c-1.154-1.557-2.439-4.66-1.718-5.658c2.231-3.082,3.954-8.211,9.438-6.014
	c3.673,1.469,6.97,3.85,10.569,5.537c6.893,3.229,13.882,6.256,19.766,8.889c4.881-3.336,8.751-6.033,12.675-8.648
	c6.594-4.398,13.205-8.77,19.859-13.074c0.771-0.5,1.854-0.553,2.808-0.723c5.725-1.018,10.485-3.172,13.073-9.012
	c0.586-1.322,3.22-1.855,5.001-2.506c4.396-1.605,8.868-2.996,13.251-4.633c1.19-0.443,2.17-1.453,2.19-1.467
	c3.053,1.689,5.172,3.352,7.573,4.084c4.27,1.303,8.686,2.184,13.088,2.977c5.064,0.91,9.837-0.102,14.351-2.654
	c2.198-1.242,4.16-2.467,7.292-0.914c1.958,0.969,5.231-1.055,7.927-1.105c1.519-0.029,3.064,1.209,4.593,1.891
	c1.924,0.857,3.845,2.455,5.762,2.449c4.761-0.016,9.729-0.064,14.218-1.416c4.107-1.238,7.694-4.199,11.447-6.365
	c1.036,6.404,8.89,0.695,11.402,5.541c3.571-4.326,1.491-7.543-1.293-11.055c-1.896,1.248-3.821,2.516-5.748,3.783
	c-0.357-0.289-0.715-0.576-1.073-0.865c0.677-1.154,1.353-2.309,1.984-3.385c-1.245-1.404-2.6-2.932-3.977-4.486
	c-0.531,0.426-1.508,1.209-2.523,2.021c-1.075-5.594-2.103-10.936-3.175-16.516c2.65-2.27,3.123-5.318,0.89-8.543
	c-7.535-10.883-15.017-21.809-22.795-32.516c-6.086-8.379-12.446-16.566-18.938-24.637c-5.458-6.783-11.604-11.455-21.555-10.123
	c-7.065,0.945-15.157-0.02-20.411-5.686c-5.328-5.744-9.532-12.596-13.816-19.229c-5.158-7.98-9.382-16.611-14.988-24.24
	c-3.135-4.266-6.064-8.99-11.397-11.715c-8.188-4.186-11.226-12.597-14.406-20.618c-0.513-1.292-0.929-2.624-2.854-4.625
	c-0.604,1.329-1.207,2.659-2.094,4.612c-3.793-6.246-6.784-11.508-10.171-16.501c-0.79-1.165-3.614-0.995-4.327-2.16
	c-4.479-7.322-12.966-7.532-19.444-11.214c-9.517-5.406-19.472-10.039-30.34-15.561c5.032-3.359,9.169-6.119,13.488-9.002
	c-3.662-4.056-7.029-7.673-10.242-11.424c-0.829-0.967-1.829-2.483-1.623-3.524c0.92-4.647-2.708-6.999-4.626-10.233
	c-2.84-4.791-5.666-9.6-8.224-14.543c-0.6-1.158-0.514-3.039-0.041-4.33c7.475-20.438,10.322-41.619,10.417-63.263
	c0.002-0.314,0.188-0.628,0.829-2.628c2.731,6.131,4.942,11.093,7.493,16.818c-1.673-0.536-2.696-0.863-4.48-1.436
	c0.603,1.674,0.739,2.867,1.37,3.669c2.982,3.788,6.168,7.417,9.137,11.214c1.15,1.472,1.81,3.32,2.904,4.846
	c0.844,1.174,1.882,2.32,3.081,3.098c1.689,1.096,3.608,1.838,5.922,2.973c-3.476,3.035-6.312,5.514-9.794,8.555
	c2.712,3.193,5.708,6.221,8.09,9.672c2.134,3.094,3.329,6.828,5.419,9.958c2.254,3.374,5.423,6.155,7.55,9.593
	c3.106,5.023,6.486,9.388,11.992,12.15c2.74,1.375,2.189,2.857-1.942,6.287c0.132-2.063,0.238-3.74,0.375-5.887
	c-1.864,1.394-3.208,2.397-4.861,3.633c2.962,6.689,6.149,13.421,13.286,17.609c2.054,1.205,2.937,4.404,5.306,6.252
	c-0.222-1.282-0.443-2.564-0.587-3.398c6.895,5.354,13.582,11.308,21.017,16.105c7.32,4.725,11.601,13.688,21.581,15.228
	c0.137-1.452,0.265-2.81,0.568-6.02c2.948,3.22,4.924,5.569,7.105,7.709c2.454,2.407,5.447,4.347,7.553,7.006
	c2.168,2.737,3.526,6.111,5.291,9.177c0.478,0.829,1.093,1.594,1.734,2.309c0.628,0.701,1.592,1.178,2.025,1.964
	c3.536,6.415,6.714,13.043,10.521,19.288c5.507,9.035,11.354,17.869,17.298,26.625c1.056,1.555,3.292,2.309,4.982,3.432
	c0.578-0.496,1.157-0.992,1.735-1.488c6.229,11.967,11.971,24.223,18.846,35.805c5.381,9.066,12.186,17.285,18.325,25.904
	c5.857,8.223,11.664,16.482,17.512,24.711c2.976,4.189,6.628,8.041,8.832,12.598c2.832,5.855,7.861,4.066,12.226,4.764
	c1.729,0.275,3.539,0.045,5.314,0.045c-1.352-2.855-3.296-6.357-4.661-10.072c-0.818-2.225-1.4-4.926-0.927-7.166
	c1.326-6.277,1.21-11.943-2.201-17.795c-1.726-2.961-0.872-7.311-2.029-10.748c-1.431-4.25-3.575-8.291-5.704-12.266
	c-3.284-6.137-6.729-12.191-10.274-18.182c-2.51-4.238-5.521-8.188-7.912-12.486c-4.44-7.98-8.072-16.455-12.985-24.119
	c-7.406-11.555-15.664-22.561-23.483-33.852c-7.076-10.222-14.184-20.426-21.036-30.797c-9.555-14.459-19.404-28.59-32.003-40.727
	c-5.021-4.837-8.497-11.26-12.775-16.886c-11.195-14.723-22.568-29.312-33.623-44.138c-6.105-8.189-12.146-16.489-17.402-25.229
	c-4.121-6.854-7.006-14.452-10.404-21.736c-0.559-1.197-1.036-2.453-1.374-3.729c-0.801-3.029-3.52-3.069-5.189-2.19
	c-1.079,0.567-1.017,3.37-1.396,5.186c-0.479,2.293-0.14,5.447-1.527,6.674c-1.492,1.316-4.66,1.368-6.95,1.016
	c-4.547-0.699-6.779-4.699-8.846-8.141c-3.987-6.643-7.37-13.646-11.042-20.48c-0.375-0.699-1.01-1.258-1.742-2.146
	c1.623-1.01,3.087-1.919,5.175-3.217c-2.37-2.854-4.526-5.449-6.683-8.046c0.486-0.356,0.973-0.713,1.459-1.069
	c3.032,4.482,9.065,6.828,8.743,13.83c-0.054,1.152,2.604,2.541,4.144,3.631c2.535,1.796,5.078,3.643,7.846,5.004
	c0.729,0.357,2.295-0.984,3.794-1.697c2.2,1.727,4.847,3.807,7.494,5.885c0.33-0.264,0.66-0.526,0.99-0.789
	c-0.751-1.174-1.509-2.342-2.251-3.521c-1.682-2.669-3.476-5.276-4.996-8.034c-1.183-2.146-2.261-4.411-2.945-6.752
	c-0.642-2.193-1.359-4.704-0.883-6.813c0.849-3.75-1.01-6.028-3.632-7.371c-3.02-1.547-6.654-4.676-9.663,0.378
	c-0.457,0.768-1.131,1.406-1.705,2.104c-0.348-0.219-0.695-0.437-1.043-0.654c0.978-1.545,2.354-2.986,2.79-4.672
	c0.288-1.109-0.78-2.568-1.24-3.872c-3.768,1.989-4.293-1.554-4.897-3.444c-0.398-1.244,1.066-3.084,2.015-5.449
	c-0.172-0.299-0.849-1.477-1.715-2.984c4.08,1.49,4.141,1.635,3.719,8.632c1.812-1.392,3.328-2.558,5.35-4.11
	c-0.412,3.087-0.729,5.457-1.046,7.827c0.388,0.245,0.774,0.491,1.162,0.736c0.771-1.614,1.544-3.229,2.637-5.513
	c3.31,4.367,5.246,7.674,7.896,10.246c4.088,3.967,8.669,7.424,13.027,11.113c0.602,0.509,1.344,1.008,1.653,1.681
	c2.813,6.114,5.776,12.177,8.201,18.445c1.226,3.171,0.699,7.117,2.225,10.06c7.743,14.939,14.885,30.336,24.15,44.305
	c13.604,20.508,28.618,40.099,43.454,59.762c7.459,9.887,16.209,18.799,23.69,28.67c5.063,6.68,9.174,14.131,13.283,21.475
	c7.458,13.331,17.051,24.951,26.724,36.723c13.765,16.752,25.949,34.803,38.77,52.328c7.111,9.721,14.201,19.459,21.185,29.271
	c3.065,4.309,5.539,9.074,8.9,13.117c1.37,1.648,5.059,3.316,6.535,2.598c7.443-3.623,15.285-1.732,22.886-2.404
	c4.542-0.4,8.803-0.252,10.163-5.725c0.414-1.664,1.326-4.061,0.585-5.02c-4.803-6.215-6.222-14.676-14.62-18.721
	c-4.454-2.146-7.113-8.016-11.006-12.715c2.712-1.428,4.701-2.475,7.167-3.773c0.045,6.049,4.495,8.854,8.195,11.461
	c5.688,4.006,12.167,6.885,18.311,10.242c2.665,0.682,4.08-0.371,3.08-2.988c-0.952-2.49-2.61-4.711-3.958-7.051
	c-2.629-2.813-5.396-5.51-7.849-8.469c-2.622-3.166-4.676-6.83-9.362-7.492c-0.971-0.137-2.03-1.252-2.628-2.184
	c-5.156-8.053-13.569-12.408-20.561-18.381c-3.953-3.375-8.103-6.785-11.111-10.941c-4.737-6.541-9.314-13.395-12.651-20.713
	c-5.602-12.282-14.428-21.844-23.809-31.039c-11.838-11.602-20.442-25.502-28.954-39.513c-2.231-3.675-4.819-7.132-7.142-10.755
	c-1.286-2.006-2.36-4.149-3.53-6.23c0.493-0.389,0.986-0.775,1.48-1.162c3.753,3.873,7.972,7.4,11.168,11.689
	c7.892,10.588,15.209,21.604,22.958,32.302c7.095,9.795,16.265,17.313,26.239,24.125c13.362,9.125,27.843,16.88,38.937,28.985
	c8.568,9.352,18.487,17.791,22.714,30.4c0.667,1.992,1.474,4.184,1.256,6.178c-0.625,5.744,2.883,8.301,6.98,11.129
	c6.125,4.227,11.873,9.012,17.64,13.73c0.865,0.707,0.964,2.352,1.973,3.018c0.997,1.268,1.909,2.613,3.008,3.785
	c2.351,2.508,4.573,5.219,7.283,7.273c1.821,1.381,4.387,1.779,7.884,3.092c-1.732-2.195-2.759-3.496-3.786-4.797
	c0.126-0.236,0.252-0.471,0.379-0.705c1.036,0.689,2.163,1.277,3.095,2.09c4.628,4.035,9.652,4.264,15.641,3.289
	c6.782-1.105,13.183-2.572,19.073-6.125c0.404-0.244,1.196,0.154,2.281,0.332c-2.77,2.279-5.172,4.258-7.574,6.236
	c0.174,0.262,0.348,0.521,0.522,0.783c2.927-1.766,5.719-3.846,8.833-5.168c1.748-0.742,5.646-4.236,5.202,2.025
	c-0.034,0.49,1.153,1.066,1.978,1.779c-3.782,0.895-7.067,1.672-10.893,2.578c3.923,1.24,7.042,2.229,10.161,3.217
	c-0.089,0.346-0.179,0.691-0.268,1.037c-3.299-0.395-6.597-0.789-9.895-1.186c0.035,0.32,0.069,0.639,0.104,0.957
	c6.514,2.555,13.021,5.125,19.552,7.635c0.56,0.215,1.283,0.09,1.913,0c0.277-0.041,0.51-0.391,1.015-0.809
	c-0.669-0.811-1.333-1.615-1.996-2.418c0.28-0.262,0.56-0.521,0.839-0.781c1.854,2.078,3.709,4.158,5.506,6.174
	c0.479-1.166,1.028-2.51,1.893-4.617c-1.418-1.996-3.022-4.92-5.267-7.219c-1.939-1.986-4.604-3.264-6.948-4.854
	c0.225-0.459,0.448-0.918,0.673-1.377c1.609,0.17,3.219,0.342,4.73,0.502c-8.718-10.072-17.383-20.084-26.354-30.449
	c1.346-0.99,2.58-1.896,4.336-3.186c-3.219-4.309-6.628-8.473-9.551-12.951c-1.493-2.291-5.212-4.381-2.077-8.109
	c0.188-0.225-1.053-1.76-1.74-2.592c-1.988-2.406-4.238-4.629-5.95-7.211c-0.647-0.979-0.104-2.744-0.104-4.422
	c-3.346-3.395-7.179-7.323-11.061-11.203c-1.17-1.168-2.542-2.135-3.705-3.31c-2.881-2.908-6.121-5.046-7.074-9.985
	c-0.66-3.419-5.2-6.063-7.941-9.111c-7.476-8.313-15.119-16.489-22.298-25.054c-4.382-5.228-7.907-11.166-12.091-16.573
	c-1.042-1.348-3.183-2.638-4.746-2.557c-1.433,0.073-2.768,2.033-3.397,2.55c-4.146-0.788-8.407-2.542-12.477-2.177
	c-8.521,0.767-17.034,4.127-25.369,3.591c-6.29-0.404-12.793-4.485-18.289-8.259c-5.177-3.553-9.16-8.844-12.594-12.291
	c-15.734-6.513-26.693-17.604-39.285-27.223c0.202,1.029,0.283,1.743,0.495,2.416c0.166,0.529,0.494,1.008,0.75,1.508
	c-0.48,0.237-0.961,0.475-1.441,0.712c-2.291-5.198-4.602-10.389-6.848-15.606c-0.317-0.738-0.12-1.725-0.501-2.406
	c-3.574-6.396-1.171-11.236,3.745-15.63c0.912-0.815,1.153-2.38,1.739-3.679c1.847,0,4.47,0.094,7.079-0.061
	c0.72-0.041,1.582-0.672,2.061-1.281c2.219-2.826-1.282-12.082-4.797-12.849c2.837-11.604-1.881-22.194-13.338-29.935
	c-3.983-2.691-7.988-5.351-11.938-8.088c-1.114-0.771-2.072-1.77-3.103-2.663c0.387-0.579,0.772-1.159,1.158-1.739
	c8.779,5.313,17.358,10.998,26.393,15.835c9.44,5.054,16.073,12.488,21.169,22.089c-1.015,0.42-2.195,0.908-3.727,1.543
	c0.844,1.662,1.557,3.065,2.313,4.555c-1.259,0.674-2.459,1.316-4.136,2.213c-1.944-2.757-4.09-5.799-6.235-8.842
	c-0.476,0.248-0.95,0.496-1.426,0.744c1.839,4.32,3.678,8.64,5.517,12.959c-0.479,0.348-0.959,0.693-1.438,1.041
	c-1.583-1.446-3.166-2.893-4.749-4.338c4.244,8.092,3.459,18.719,12.472,24.237c0.631,0.387,1.213,1.256,1.348,1.987
	c1.201,6.527,6.089,9.347,11.416,12.008c2.116,1.057,3.621,3.277,5.609,4.676c1.212,0.852,2.815,1.147,4.243,1.693
	c0.496-0.803,0.992-1.605,1.488-2.408c-1.726-0.588-3.451-1.178-5.176-1.766c0.398-0.523,0.796-1.047,1.194-1.569
	c3.537,2.753,6.951,2.472,10.897,0.892c1.791-0.719,5.084,0.185,6.69,1.542c4.429,3.743,8.328,8.114,12.437,12.237
	c0.443-0.342,0.886-0.686,1.328-1.027c-1.898-2.883-3.797-5.766-5.695-8.648c3.519,1.932,7.741,2.705,6.963,8.58
	c-0.818,6.187-0.183,12.566-0.183,19.076c7.933,0,16.35,0.201,24.752-0.076c4.973-0.164,9.939-0.965,14.873-1.71
	c3.043-0.46,4.624,0.212,6.065,3.343c4.427,9.616,8.922,19.271,14.342,28.342c6.341,10.615,16.976,17.012,26.443,24.532
	c11.256,8.94,22.366,18.085,33.208,27.522c8.946,7.788,18.046,15.559,25.949,24.352c14.901,16.58,29.408,33.557,43.26,51.018
	c8.467,10.674,15.464,22.52,22.979,33.932c1.346,2.045,2.13,4.496,2.949,6.84c2.237,6.393,7.267,7.945,13.343,8.492
	c2.596,0.234,5.061,1.93,7.632,2.98c2.086-1.006,4.649-1.848,6.661-3.404c0.807-0.623,0.995-3.143,0.406-4.219
	c-0.904-1.65-2.915-2.656-4.089-4.213c-0.811-1.074-1-2.617-0.671-4.166c-3.569-3.672-7.14-7.346-10.709-11.02
	c0.313-0.334,0.627-0.67,0.94-1.006c1.084,0.768,2.168,1.535,3.386,2.398c-1.847-2.199-3.625-4.314-5.644-6.717
	c-0.17,0.984-0.314,1.814-0.618,3.578c-4.962-4.861-9.49-9.301-14.02-13.738c0.326-0.416,0.651-0.83,0.978-1.244
	c2.005,1.127,4.01,2.254,6.015,3.383c0.174-0.176,0.348-0.352,0.521-0.529c-2.759-2.805-5.582-5.551-8.264-8.43
	c-5.735-6.154-11.441-12.338-17.078-18.584c-5.887-6.525-4.359-14.672,3.647-17.344c2.646-0.883,6.021,0.42,9.536,0.771
	c-6.822-7.986-12.974-15.941-19.913-23.139c-10.862-11.262-21.841-22.482-33.557-32.829c-9.415-8.314-19.896-15.446-30.117-22.808
	c-3.352-2.415-4.267-4.932-2.491-8.439c1.958-3.872,4.845-4.43,8.698-2.474c13.013,6.603,26.096,13.067,39.17,19.547
	c2.182,1.081,4.457,1.976,6.689,2.956c0.401-0.337,0.803-0.674,1.205-1.012c-1.495-2.65-2.679-5.551-4.562-7.887
	c-2.423-3.007-2.593-5.673-0.063-8.447c2.049-2.247,1.112-3.84-0.827-5.411c-2.197-1.78-4.654-3.356-6.446-5.485
	c-1.816-2.158-2.891-4.925-4.416-7.345c-1.17-1.855-2.537-3.587-4.625-6.503c5.71,3.332,10.506,5.924,15.088,8.851
	c7.815,4.991,15.698,9.916,23.18,15.38c8.674,6.334,16.977,13.179,25.375,19.883c3.996,3.19,7.846,6.564,11.752,9.865
	c4.836,4.086,5.712,8.369,2.443,11.863c-4.341,4.643-9.2,4.756-13.771,0.251c-7.675-7.563-15.228-15.255-23.019-22.696
	c-2.931-2.799-6.382-5.055-10.808-8.502c0.869,3.583,1.269,6.014,2.063,8.308c1.081,3.12,0.59,5.511-2.34,7.279
	c-2.982,1.801-5.652,1.935-8.752-0.194c-6.92-4.752-13.919-9.44-21.218-13.568c-3.986-2.256-8.649-3.314-13.008-4.912
	c-0.284,0.553-0.567,1.106-0.852,1.66c4.75,3.967,9.578,7.848,14.236,11.92c12.481,10.913,25.325,21.461,37.228,32.978
	c17.71,17.136,34.95,34.774,51.927,52.642c5.577,5.869,11.964,9.275,18.356,11.355c-2.018-2.68-4.145-6.023-6.791-8.887
	c-3.231-3.496-6.812-6.689-10.396-9.836c-6.824-5.988-8.464-13.924-8.635-22.414c-0.04-1.975,0.917-4.076,0.512-5.92
	c-1.969-8.963,4.909-14.508,14.379-13.412c12.87,1.492,25.419,4.379,36.389,11.975c2.126,1.471,4.744,2.234,7.135,3.324
	c0.199-0.375,0.397-0.75,0.596-1.125c-1.957-3.887-3.622-7.963-5.96-11.607c-1.983-3.092-5.004-5.508-7.098-8.546
	c-3.248-4.714-5.729-9.987-9.211-14.503c-4.528-5.871-7.271-13.057-14.495-17.063c-3.661-2.031-5.602-7.029-8.612-10.428
	c-1.477-1.666-3.618-2.744-5.459-4.087c-1.051-0.767-2.276-1.374-3.124-2.321c-4.831-5.396-9.476-10.965-14.396-16.277
	c-1.828-1.975-4.438-3.216-6.32-5.151c-2.306-2.369-3.73-5.926-6.4-7.548c-7.675-4.66-11.418-14.049-20.588-16.744
	c-0.147-0.043-0.365-0.167-0.385-0.281c-0.999-5.869-8.352-5.986-10.612-12.664c3.273,1.158,6.229,1.387,7.995,2.956
	c17.22,15.295,34.448,30.592,51.257,46.335c15.663,14.67,29.282,31.226,40.835,49.285c6.771,10.586,12.325,21.963,18.165,33.119
	c0.831,1.59,0.179,3.955,0.213,5.961c-1.764-0.188-3.572-0.191-5.286-0.596c-9.448-2.229-18.779-5.158-28.338-6.641
	c-6.799-1.055-13.895-0.205-22.297-0.205c1.193,2.992,1.536,6.451,3.445,8.217c11.543,10.678,23.409,21.008,35.286,31.32
	c1.092,0.947,3.013,0.939,3.363,1.039c4.885-6.338,9.205-11.943,13.759-17.854c0.984,0.068,3.039,0.209,5.607,0.385
	c3.122,6.211,1.146,11.617-6.018,14.523c-1.947,0.791-3.852,1.688-4.949,2.172c5.854,3.871,11.765,7.779,17.664,11.674
	c-1.088-0.012-2.164-0.012-3.241-0.012c-0.056,0.365-0.11,0.73-0.166,1.096c1.947,1.52,3.894,3.039,6.526,5.094
	c-2.208,0.205-3.407,0.318-4.607,0.43c-0.145,0.461-0.29,0.924-0.436,1.385c1.549,0.611,3.374,2.078,4.597,1.684
	c4.492-1.453,4.905-1.092,5.842,3.27c0.499,2.328,2.582,4.416,4.328,6.254c0.225,0.236,3.148-1.396,4.03-2.699
	c0.686-1.014,0.643-3.127,0.033-4.283c-1.294-2.451-3.168-4.596-5.363-7.641c0,2.07,0,3.211,0,4.814
	c-3.862-3.059-7.28-5.764-10.697-8.471c1.896,0.994,3.708,2.281,5.724,2.863c1.037,0.299,2.437-0.658,3.673-1.047
	c-1.801-2.854-3.601-5.705-5.4-8.559c-1.36,1.223-2.721,2.445-4.597,4.133c-0.13-2.143-0.249-4.125-0.41-6.779
	c0.272,0.092-0.602,0.033-1.1-0.432c-0.525-0.488-1.128-1.832-0.948-2c3.033-2.83,3.059-2.803,1.251-6.521
	c1.703,0.469,3.269,0.898,4.834,1.33c0.154-0.266,0.308-0.531,0.462-0.797c-1.101-1.211-2.201-2.422-2.526-2.779
	c2.221-3.582,4.113-6.635,6.169-9.951c2.438,3.508,10.021,5.027,3.49,12.406c2.877,0,4.865,0,6.864,0
	c-1.514,3.119-2.968,6.117-4.421,9.115c-0.166-0.057-0.331-0.111-0.497-0.168c0.381-1.99,0.762-3.982,1.143-5.973
	c-0.252-0.082-0.503-0.164-0.755-0.248c-0.679,1.117-1.358,2.232-2.03,3.338c-0.777-0.461-1.443-0.855-2.062-1.221
	c-2.267,8.5,3.543,14.178,7.561,21.988c-0.719-4.67-1.228-7.973-1.817-11.805c2.277,2.641,4.337,5.031,6.396,7.42
	c0.444-0.355,0.889-0.711,1.333-1.066c-1.941-4.059-3.884-8.117-5.826-12.176c0.334-0.162,0.668-0.324,1.002-0.486
	c1.837,3.229,3.674,6.455,5.512,9.684c0.327-0.117,0.654-0.232,0.981-0.348c-0.061-0.963-0.122-1.926-0.177-2.783
	c3.903,0.482,7.824,1.287,11.735,1.242c1.086-0.012,3.342-2.988,3.022-3.85c-2.399-6.49,2.981-5.004,5.779-6.182
	c0.243,0.316,0.423,0.541,0.593,0.773c4.984,6.783,10.728,12.379,19.176,14.975c2.295,0.705,3.779,4.049,6.024,6.627
	c-1.251-0.115-2.077-0.193-2.904-0.27c-0.379,0.373-0.759,0.748-1.138,1.121c1.786,1.859,3.571,3.721,5.203,5.42
	c-3.958,2.533,3.16,1.834,2.483,3.998c-1.636,0.484-3.472,1.025-5.307,1.568c0.047-0.26,0.095-0.52,0.142-0.781
	c-2.691-0.691-5.383-1.383-8.073-2.076c-0.155,0.682-0.311,1.363-0.466,2.045c1.419,0.271,2.839,0.543,4.475,0.855
	c-1.266,1.047-2.464,2.039-4.939,4.086c7.286,2.451,13.575,4.568,19.865,6.684c0.153-0.381,0.308-0.762,0.462-1.145
	c-2.131-1.621-4.262-3.242-6.393-4.863c0.279-0.377,0.558-0.754,0.836-1.131c3.485,1.975,7.038,3.84,10.438,5.951
	c3.786,2.352,7.788,0.215,9.133-5.563c-1.075,0.561-1.801,0.938-3.397,1.77c-0.367-3.938-0.711-7.623-1.049-11.254
	c4.095-0.908,4.775,1.139,4.822,3.85c-0.165-0.029-0.336-0.098-0.491-0.074c-0.146,0.023-0.407,0.184-0.396,0.219
	c1.692,5.84,6.87,9.658,13.938,9.266C996.897,434.199,993.538,430.973,990.179,427.748z M934.692,438.125
	c-1.696-2.088-3.393-4.176-5.468-6.727c-0.916,0.623-2.675,1.596-4.051,2.957c-0.262,0.258,1.402,3.027,1.487,2.99
	c2.818-1.182,5.117,3.936,8.007,0.699c1.494,0.664,2.988,1.326,4.482,1.99c0.396-0.49,0.794-0.982,1.19-1.473
	c-2.159-2.543-4.318-5.088-6.479-7.631c-0.403,0.135-0.807,0.27-1.21,0.404c0.172,1.117,0.22,2.271,0.548,3.34
	C933.564,435.865,934.183,436.979,934.692,438.125z M712.286,427.748c-1.857-0.834-3.706-2.301-5.575-2.326
	c-1.935-0.027-3.889,1.344-6.415,2.33c2.689,0.598,5.137,1.475,7.613,1.566c1.492,0.055,3.028-1.115,4.545-1.736
	c0.429,0.658,0.75,1.748,1.307,1.885c1.141,0.283,2.644-0.389,3.583,0.111c5.147,2.736,10.232,5.604,15.213,8.635
	c3.667,2.23,7.141,4.779,10.699,7.188c0.308-0.445,0.616-0.891,0.924-1.336c-1.426-1.029-2.852-2.059-4.277-3.088
	c0.443-3.367,0.266-6.82-1.176-9.625c-0.813-1.582-3.706-2.098-6.479-3.51c-0.136-0.295-0.848-1.848-1.56-3.4
	c-0.742,6.758-7.151,3.418-7.972,2.91C718.824,424.939,715.699,427.373,712.286,427.748z M1327.198,634.795
	c-2.052,2.846-3.744,1.02-5.698-0.273c-3.817-2.525-7.776-4.836-11.677-7.234c-0.364,0.508-0.728,1.018-1.091,1.525
	c3.534,3.777,6.876,7.764,10.657,11.275c3.727,3.461,7.897,6.445,11.875,9.637c1.022,0.82,1.988,1.73,3.085,2.436
	c3.512,2.256,7.52,6.68,10.502,6.084c3.813-0.76,4.669,0.906,6.12,2.729c2.762,3.465,5.886,3.191,10.01,1.637
	c-3.95-3.4-7.366-6.438-10.887-9.348c-4.323-3.576-8.733-7.045-13.106-10.559c1.635,0.738,3.369,1.314,4.888,2.244
	c6.644,4.061,13.225,8.225,19.828,12.352c0.337-0.469,0.675-0.938,1.013-1.406c-3.712-2.496-7.425-4.992-11.134-7.494
	c-0.918-0.619-1.904-1.17-2.717-1.91c-2.032-1.848-3.925-3.854-5.982-5.672c-2.145-1.896-4.478-3.58-6.621-5.477
	c-3.639-3.223-9.399-4.939-13.112-3.521C1324.612,632.893,1325.905,633.844,1327.198,634.795z M1022.186,400.789
	c-0.274-0.021-0.549-0.045-0.822-0.07c-4.029-3.16-8.058-6.32-12.086-9.48c1.09,3.205,2.645,5.928,4.651,8.264
	c6.289,7.318,11.103,16.441,21.779,18.594c1.154,0.232,2.423-0.098,3.639-0.168c0.257-0.598,0.513-1.193,0.77-1.789
	c1.126,1.594,2.141,3.283,3.406,4.756c1.497,1.742,2.938,3.857,4.892,4.805c3.095,1.498,7.73,1.182,9.652,3.41
	c2.798,3.246,4.716,1.494,6.107,0.986c2.857,1.895,5.079,3.365,7.301,4.836c0.499-0.578,0.999-1.156,1.499-1.732
	c-1.132-1.223-2.052-2.832-3.438-3.584c-2.904-1.578-5.952-3.076-9.122-3.947c-8.506-2.34-13.058-8.295-15.773-16.168
	c-0.087-0.254-0.485-0.402-0.847-0.684c-0.704,0.584-1.424,1.18-1.648,1.367c-3.671-2.418-7.122-4.689-10.574-6.963
	c-0.181,0.305-0.36,0.607-0.541,0.912c3.887,3.521,7.774,7.045,11.661,10.566c-0.298,0.301-0.597,0.602-0.895,0.9
	C1035.259,410.662,1028.723,405.725,1022.186,400.789z M745.489,472.037c-1.908-6.344-8.751-7.553-13.562-13.207
	c1.14,3.93,1.883,6.494,2.627,9.059c-0.498,0.117-0.995,0.236-1.492,0.354c-0.319-1.385-0.639-2.77-1.064-4.621
	c-0.617,1.201-0.956,1.859-1.327,2.582c-5.175-8.465-17.439-14.6-22.571-11.326c3.772,1.43,7.802,2.373,11.216,4.369
	c8.698,5.082,8.589,5.271,8.152,9.992c-7.664-11.162-18.723-11.717-29.734-12.27c5.405,13.813,19.497,12.498,30.248,17.539
	c-1.733,0-3.467,0-5.2,0c0.002,0.336,0.004,0.672,0.006,1.008c5.509,0.625,11.019,1.252,16.527,1.877
	c0.173-0.277,0.346-0.553,0.519-0.83c-1.224-0.598-2.447-1.197-3.672-1.795c0.285-0.273,0.57-0.547,0.854-0.82
	c1.283-0.168,2.565-0.334,3.849-0.502c-0.561,4.465,2.961,4.816,6.48,6.561c-2.753-3.928,4.192-8.045-1.855-11.133
	C745.489,470.131,745.489,471.084,745.489,472.037z M1147.137,654.588c6.155,3.379,12.311,6.758,18.792,10.316
	c-1.24-1.383-2.31-2.572-3.379-3.764c0.149-0.199,0.3-0.396,0.449-0.596c4.161,1.762,8.323,3.525,12.6,5.336
	c-0.661-2.381-0.602-4.912-1.832-6.057c-2.993-2.787-6.278-5.756-10.007-7.139c-5.743-2.133-9.989-5.451-13.384-10.879
	c2.751,0.434,5.067,0.801,7.974,1.26c-1.588-1.873-2.64-3.115-3.691-4.357c0.389-0.578,0.778-1.158,1.167-1.736
	c3.026,1.479,6.053,2.955,9.079,4.434c0.488-0.566,0.977-1.135,1.465-1.703c-1.967-0.887-3.934-1.775-5.9-2.664
	c0.347-0.268,0.692-0.535,1.039-0.805c6.307,2.967,12.613,5.934,18.92,8.9c0.368-0.369,0.736-0.736,1.104-1.105
	c-1.884-1.023-3.768-2.049-5.651-3.072c0.471-0.529,0.942-1.057,1.414-1.586c2.272,1.385,4.545,2.77,6.818,4.152
	c-2.261-4.109-4.513-8.334-8.03-10.516c-15.232-9.447-30.855-18.266-46.288-27.395c-3.599-2.129-6.968-2.791-10.637,0.35
	c4.84,7.945,9.661,15.859,14.689,24.113c-3.566,0.891-6.443,1.611-9.32,2.33c0.073,0.428,0.146,0.857,0.219,1.285
	c1.729-0.205,3.458-0.41,5.179-0.627c0.611,4.975,3.71,7.703,8.232,9.199c3.258,1.076,8.371,1.424,9.289,3.551
	c1.367,3.168,3.546,3.449,5.714,4.529c2.106,1.049,4.293,1.938,6.445,2.896c-3.041,0.289-5.863-0.461-8.708-0.553
	c-1.181-0.037-2.406,1.336-3.615,2.068c-0.609-0.133-1.37-0.078-1.806-0.43c-7.492-6.031-14.845-12.244-22.466-18.107
	c-2.325-1.789-5.33-3.535-8.091-3.648c-2.153-0.09-4.412,2.381-6.265,3.496c-4.892-4.205-10.624-9.135-16.792-14.439
	c-2.095,7.688-0.675,12.348,6.064,14.324c0.607,0.18,1.117,0.686,1.676,1.035c8.418,5.279,16.456,11.357,25.368,15.604
	c8.197,3.902,14.632,12.152,25.179,10.904c1.641-0.193,3.485,1.33,5.236,2.059c0.161-0.303,0.322-0.607,0.484-0.91
	c-3.667-2.523-7.334-5.045-11.559-7.951c1.682,0.309,2.695,0.496,3.852,0.709C1147.754,656.277,1147.446,655.434,1147.137,654.588z
	 M1008.876,641.023c42.466,23.488,88.535,25.158,135.05,25.291c-0.27-0.492-0.347-0.887-0.576-1.02
	c-11.77-6.828-23.268-14.207-35.432-20.246c-8.29-4.115-14.197-13.512-26.145-10.465c-7.522,1.92-15.903,0.396-23.889,0.699
	c-0.829,0.031-1.587,1.973-2.184,2.768C1039.969,633.072,1024.668,639.998,1008.876,641.023z M635.012,467.881
	c-2.686-2.082-6.163-4.158-8.813-7.006c-2.908-3.123-5.054-6.957-8.113-11.313c2.717,0.344,4.236,0.537,5.858,0.742
	c-4.495-9.475-11.266-17.891-7.584-30.396c-10.715,1.299-20.622,2.502-30.834,3.74c0.87,4.439,1.68,8.568,2.697,13.762
	c-1.626-1.818-2.525-2.824-3.671-4.107c-4.946,6.365-0.443,11.51,1.806,17.174c-1.814-1.498-3.167-2.617-4.521-3.734
	c-0.435,0.301-0.869,0.604-1.304,0.904c1.981,4.613,3.963,9.227,6.398,14.895c0.732,0.045,2.9,0.176,5.742,0.348
	c0.985,2.689,2.214,6.047,3.518,9.605c0.89-0.104,2.061-0.242,3-0.352c-1.233-2.604-2.371-5.006-3.509-7.41
	c0.317-0.141,0.636-0.281,0.954-0.422c2.554,3.072,5.108,6.146,7.671,9.23c0-3.516,0-6.809,0-10.102
	c0.405-0.02,0.81-0.039,1.215-0.057c0.197,1.582,0.37,3.166,0.597,4.744c0.84,5.863,2.945,7.305,8.907,7.621
	c2.2,0.117,4.291,2.055,6.463,3.1c0.876,0.42,1.833,0.672,3.283,1.191c-0.714-1.768-1.124-2.783-2.068-5.121
	c6.286,6.877,5.175-0.336,6.539-1.656c1.753,0.699,3.257,1.299,4.761,1.898c0.208-0.467,0.416-0.934,0.625-1.4
	c-1.199-1.049-2.398-2.096-4.358-3.809C632.418,469.014,633.945,468.348,635.012,467.881z M424.383,543.703
	c0.08,0.414,0.159,0.828,0.239,1.242c11.763,4.84,23.503,9.738,35.296,14.504c8.767,3.541,8.797,3.467,12.905-0.348
	c-2.969-0.248-5.777-0.48-7.408-0.617c-0.836-2.178-1.368-3.564-1.958-5.104c3.509-3.133,7.286-2.096,11.522-0.701
	c3.977,1.309,8.326,1.486,12.512,2.162c0.055-0.277,0.11-0.553,0.166-0.83c-1.294-0.711-2.587-1.422-3.883-2.133
	c1.944-0.959,3.564-1.756,5.186-2.555c-1.082-2.105-1.731-4.678-3.363-6.191c-1.747-1.619-4.358-2.41-6.704-3.258
	c-3.02-1.09-6.149-1.875-9.925-2.996c-1.125-5.047-6.409-3.463-10.661-4.027c-4.532-0.602-9.06-1.242-13.578-1.865
	c-0.25,1.869-0.422,3.156-0.647,4.848c-2.544-2.791-4.651-5.104-6.76-7.416c-0.488,0.443-0.977,0.885-1.466,1.328
	c1.251,1.551,2.502,3.104,4.597,5.701c-2.925,0-5.177,0-8.348,0c-0.432,0.738-1.408,2.41-2.334,3.994
	C424.936,537.33,426.667,542.879,424.383,543.703z M1215.555,523.371c-7.56-11.963-17.623-21.025-28.67-29.986
	c-0.855,3.383-1.491,5.898-2.184,8.639c-1.687,0-3.195,0-4.705,0c0.443,0.33,0.886,0.662,1.329,0.992
	c-1.137,2.574-2.049,5.295-3.567,7.619c-0.381,0.582-2.712-0.111-3.984-0.207c-2.195,11.486-2.395,22.857,8.37,31.34
	c2.57-1.143,5.474-2.301,8.252-3.703c2.876-1.455,5.984-2.752,8.339-4.85c2.253-2.006,3.617-4.99,5.46-7.479
	C1207.1,521.814,1210.242,518.729,1215.555,523.371z M1124.852,561.012c-3.92-4.594-7.992-3.475-12.613-2.992
	c-8.59,0.895-12.305,3.488-13.07,11.91c-0.368,4.041,0.107,8.199,3.809,10.492c9.183,5.686,18.677,10.971,29.808,11.436
	c2.61,0.109,5.297-1.605,8.654-2.715c-2.15-2.293-3.223-3.438-4.753-5.07c2.249,0.229,3.743,0.381,5.376,0.547
	c0.502-5.166-0.718-8.938-4.468-12.428c-4.135-3.85-8.125-8.295-6.862-14.85c-1.934,0-3.485,0-5.107,0
	C1125.431,558.26,1125.233,559.205,1124.852,561.012z M706.896,469.998c7.075,14.949,21.899,20.801,34.275,29.512
	c0.659,0.465,2.021-0.205,2.92,0.08c1.856,0.59,4.043,1.082,5.241,2.393c0.566,0.621-0.827,3.033-1.582,5.424
	c3.018,4.922,6.659,10.65,10.065,16.518c1.605,2.764,3.234,2.285,5.206,0.676c3.383-2.76,5.928-14.031,3.642-17.629
	c-2.955-4.648-4.861-9.328-3.021-15.051c-1.065,1.164-2.132,2.33-3.341,3.65c-0.973-0.648-2.023-1.352-3.134-2.094
	c1.275-1.047,2.283-1.873,3.816-3.133c-1.806-0.557-2.797-0.863-4.118-1.271c0.899-1.168,1.583-2.059,2.267-2.947
	c-3.66,1.232-5.542,0.314-5.22-3.631c-8.545,2.018-33.821-2.576-35.288-6.268c0.388-0.975,0.775-1.949,1.172-2.947
	C715.31,472.137,711.157,471.082,706.896,469.998z M703.813,551.424c-0.549-4.945-1.55-8.965-7.539-8.664
	c-0.993,0.051-2.384-0.635-2.999-1.436c-3.842-4.992-8.327-9.172-13.282-13.135c-4.842-3.871-9.086-6.621-15.418-2.797
	c2.691,1.596,5.254,3.115,7.815,4.635c-0.139,0.154-0.277,0.309-0.415,0.463c-6.504-1.225-13.008-2.451-18.522-3.49
	c2.147,3.77,4.751,8.232,7.222,12.766c0.498,0.914,0.128,2.521,0.782,3.094c4.405,3.848,9.489,11.252,10.268,15.207
	c11.543,0.607,23.028,1.213,34.514,1.816c0.222-0.467,0.442-0.936,0.663-1.404c-2.407-1.92-4.814-3.838-8.036-6.404
	C701.259,551.76,702.358,551.615,703.813,551.424z M1126.611,498c-1.688-3.998-2.848-7.24-4.397-10.283
	c-1.773-3.482-3.663-6.951-5.924-10.125c-2.75-3.861-6.469-2.459-10.604-0.893c2.41,1.625,4.539,3.061,6.667,4.496
	c-0.105,0.143-0.212,0.283-0.317,0.426c-7.252-2.014-14.503-4.029-21.674-6.021c-6.679,10.223,3.857,15.797,6.065,22.375
	c2.018,1.496,3.539,2.23,4.444,3.43c0.658,0.871,0.349,2.408,0.733,3.561c2.398,7.176,9.128,8.926,15.645,11.244
	c-4.217-5.012-8.434-10.025-11.912-14.16C1111.81,500.816,1119.147,499.42,1126.611,498z M642.319,550.672
	c0.205-0.463,0.41-0.926,0.615-1.389c-1.639-3.176-2.978-6.555-4.976-9.484c-4.81-7.051-9.811-13.98-14.993-20.76
	c-1.582-2.068-4.021-4.836-6.046-4.818c-1.893,0.016-4.118,3.066-5.521,5.221c-1.116,1.715-1.472,4.064-1.714,6.182
	c-0.728,6.375-4.166,10.166-10.332,11.67c-6.105,1.492-12.238,2.895-18.271,4.643c-3.2,0.926-6.121,2.244-9.374,0.008
	c-0.584-0.4-2.281,0.82-3.465,1.291c0.115,0.664,0.229,1.33,0.344,1.994c10.583-0.475,21.174-0.83,31.745-1.486
	c3.628-0.227,7.189-1.391,10.818-1.795c4.216-0.469,8.896-1.824,12.619-0.564C630.257,543.578,636.167,547.482,642.319,550.672z
	 M1079.932,435.654c-10.583,1.572-18.913-1.934-27.682-4.488c5.509,8.33,11.338,16.07,17.44,23.59
	c1.032,1.271,3.243,1.588,5.071,2.42c0.357-1.875,0.563-2.955,0.768-4.023c2.91,1.465,5.417,2.729,8.273,4.166
	c-0.269-2.291-0.52-4.436-0.792-6.768c-0.78-0.221-2.217-0.631-3.652-1.039c0.099-0.361,0.197-0.725,0.296-1.086
	c3.769,0.74,7.536,1.479,11.817,2.32c-1.964,1.227-3.316,2.072-5.845,3.65c3.485,1.809,6.08,3.154,8.676,4.502
	c0.077-0.125-0.313,0.516-0.424,0.697c4.729,3.979,9.313,7.836,13.548,11.398c1.026-1.793,1.641-2.865,2.254-3.938
	c0.535-0.145,1.07-0.289,1.605-0.436c-5.258-5.381-10.439-10.84-15.794-16.123C1090.131,445.209,1084.599,440.094,1079.932,435.654z
	 M428.176,618.371c-0.541-0.035-1.082-0.07-1.623-0.105c-4.539,8.482-4.107,19.527-13.276,25.408
	c-2.28-2.078-10.644-0.572-13.496,3.523c15.346,3.42,30.433,6.781,45.52,10.145c0.171-0.326,0.341-0.652,0.511-0.979
	c-2.672-1.473-5.344-2.945-6.92-3.814c-0.242-1.832-0.182-3.09-0.588-4.172c-2.58-6.855-5.393-13.627-7.854-20.521
	C429.362,624.811,428.914,621.539,428.176,618.371z M626.155,605.189c-16.126-6.803-43.214-11.549-50.293-9.57
	c-1.532,3.725-2.851,6.926-3.67,8.916c-0.135,2.773-0.211,4.361-0.285,5.893C589.988,613.162,607.348,609.031,626.155,605.189z
	 M690.439,522.924c0.112-0.363,0.225-0.725,0.337-1.086c-7.297-3.281-15.4-5.479-21.667-10.145
	c-6.423-4.781-11.048-11.979-16.46-18.119c-0.399,0.348-0.799,0.695-1.198,1.043c1.74,2.26,3.48,4.52,5.221,6.779
	c-8.313-4.891-9.76-7.988-6.077-11.477c-2.917-4.756-5.85-9.537-8.184-13.344c-2.747,2.385-5.144,4.465-7.617,6.611
	c-1.09-1.025-1.901-1.789-2.584-2.432c-1.44,1.084-2.701,2.031-3.875,2.912c2.98,3.658,5.96,7.314,8.939,10.973
	c-0.268,0.25-0.536,0.502-0.804,0.752c1.489,0.285,2.979,0.57,4.193,0.803c0.068-1.113,0.125-2.021,0.208-3.375
	c2.28,1.881,4.018,3.314,5.899,4.867c-0.46,0.529-0.937,0.83-1.016,1.213c-0.344,1.645-1.202,3.543-0.698,4.92
	c0.856,2.34,2.345,1.475,3.374-0.256c1.063,1.037,2.124,2.074,3.186,3.113c3.134,2.516,6.02,5.27,9.024,7.889
	c1.899,1.654,3.977,3.105,5.974,4.648c0.254-0.359,0.507-0.719,0.761-1.076c-0.313-0.91-0.624-1.818-0.803-2.338
	C674.601,518.197,682.52,520.561,690.439,522.924z M541.337,506.588c-0.041-0.631-0.083-1.264-0.124-1.896
	c-4.41-0.197-9.07-1.393-13.172-0.363c-6.303,1.584-12.232,4.672-18.29,7.193c-0.723,0.299-1.544,0.93-1.832,1.613
	c-2.031,4.807-6.221,7.109-10.533,9.264c-0.972,0.484-2.101,0.656-3.156,0.971c0.501,0.385,1.003,0.768,1.504,1.152
	c13.746-1.465,27.492-2.93,41.602-4.434c0.376-1.543,0.829-3.402,1.64-6.729c-2.768,1.822-4.381,2.885-6.552,4.314
	c-1.259-1.438-2.709-3.094-4.158-4.75c1.8-1.293,3.463-2.879,5.436-3.807C536.11,507.984,538.781,507.406,541.337,506.588z
	 M924.767,495.273c-6.898-12.77-19.699-18.918-29.246-28.727c-3.613,3.316-4.93,6.172-0.814,9.654
	c-3.563-0.98-6.479-1.783-9.396-2.586c1.749,2.916,4.258,4.541,5.945,6.783c4.479,5.949,11.09,10.059,19.52,11.199
	c-2.127-3.039-4.006-5.723-5.884-8.406c0.278-0.332,0.557-0.664,0.835-0.998C911.713,487.113,916.961,493.205,924.767,495.273z
	 M1083.651,679.539c12.604,3.145,24.084,6.008,35.494,8.854c0.086-0.922,0.237-2.531,0.278-2.969
	c4.667,0.146,8.523,0.619,12.309,0.283c3.35-0.297,6.605-2.055,9.93-2.139c3.667-0.094,7.363,0.982,11.032,1.549
	c0.861-1.23,1.715-2.447,2.924-4.168c-7.806-3.637-15.746-2.521-23.506-3.055c-0.064,0.412-0.128,0.822-0.192,1.234
	c1.331,0.469,2.662,0.936,3.993,1.404c-0.079,0.291-0.158,0.584-0.236,0.877C1118.696,680.799,1101.715,680.189,1083.651,679.539z
	 M535.959,526.891c-13.203,1.098-26.045,2.164-40.052,3.328c7.671,7.164,12.406,8.32,20.894,6.18
	c1.22-0.309,2.598-0.088,3.891,0.021c4.991,0.422,9.979,0.898,15.268,1.381C535.959,534.203,535.959,531.242,535.959,526.891z
	 M758.228,621.648c0.102,0.553,0.204,1.107,0.306,1.662c11.728,1.91,23.456,3.818,35.313,5.75
	c-0.151-6.385-4.622-14.359-8.691-13.787C776.061,616.553,767.19,619.424,758.228,621.648z M589.009,492.615
	c-1.08-1.334-2.083-2.24-2.644-3.365c-0.536-1.076-0.609-2.381-0.92-3.729c-1.6,0.729-2.793,1.271-3.986,1.814
	c-0.182-0.242-0.365-0.484-0.547-0.727c1.132-1.238,2.264-2.477,3.349-3.664c-1.763-1.52-3.238-3.209-5.073-4.289
	c-3.682-2.172-7.449,1.648-7.475,7.357c-1.967-2.248-3.933-4.496-6.126-7.004c-0.866,0.594-2.241,1.537-4.079,2.797
	c5.806,5.852,10.983,11.068,16.434,16.561C580.84,496.861,584.636,494.889,589.009,492.615z M1013.087,671.789
	c0,0.24,0.069,0.664-0.01,0.693c-1.765,0.668-3.545,1.293-6.312,2.277c9.179,4.648,18.672,6.338,28.534,8.658
	c-0.368-2.23-0.59-3.572-0.642-3.887c3.023,0.248,5.957,0.488,8.892,0.727c-1.126-2.555-2.349-4.588-4.006-5.045
	c-10.25-2.82-20.599-5.287-32.058-8.158C1009.882,669.08,1011.481,670.434,1013.087,671.789z M1098.233,619.391
	c0.419-0.43,0.838-0.859,1.258-1.291c1.359,0.84,2.719,1.68,4.078,2.518c0.134-0.18,0.268-0.361,0.4-0.541
	c-1.348-1.648-2.695-3.295-4.043-4.941c0.368-0.275,0.736-0.551,1.104-0.826c0.86,0.98,1.72,1.961,2.904,3.313
	c0.479-3.346,1.137-6.381,1.201-9.428c0.018-0.83-1.942-2.563-2.677-2.404c-4.419,0.953-3.8-2.406-5.075-4.789
	c-2.307-4.311-4.922-8.771-11.388-11.393c1.429,2.869,2.207,4.414,2.969,5.965c0.788,1.604,2.052,3.156,2.247,4.832
	c0.58,4.969,1.086,9.996,0.953,14.984c-0.113,4.25,2.653,5.637,5.575,7.01c1.693,0.797,3.647,1.037,5.483,1.527
	c0.541-0.57,1.083-1.141,1.624-1.711C1102.642,621.273,1100.438,620.332,1098.233,619.391z M797.491,641.914
	c0.163-0.439,0.326-0.879,0.489-1.318c-2.696-2.137-5.148-5.623-8.134-6.164c-10.444-1.895-21.065-2.834-31.639-3.949
	c-1.206-0.127-2.537,0.932-3.81,1.439c0.122,0.559,0.243,1.117,0.365,1.678C768.1,641.002,783.381,638.467,797.491,641.914z
	 M406.313,551.086c1.717,1.344,2.517,2.152,3.47,2.686c7.229,4.037,14.856,7.488,21.636,12.17
	c6.999,4.836,15.016,4.289,22.596,5.971c3.077,0.684,6.434,0.113,9.103,0.113C444.88,565.303,426.203,558.418,406.313,551.086z
	 M897.407,581.967c-1.354-9.057-7.168-15.125-14.527-20.066c-1.25,1.484-2.405,2.855-3.27,3.881
	c1.784,4.111,3.225,7.957,5.129,11.559c0.744,1.408,2.369,2.818,3.874,3.254C891.507,581.428,894.602,581.568,897.407,581.967z
	 M1074.934,591.74c-3.702-3.742-7.242-10.361-11.367-10.75c-5.674-0.533-7.753-8.844-14.633-5.064
	c2.45,2.084,4.688,3.986,6.926,5.891c-0.943,0.508-1.47,0.338-1.993,0.156c-0.695-0.238-1.389-0.486-2.19-0.768
	c-0.155,3.805,0.917,6.189,4.662,7.162C1062.316,589.916,1068.511,590.623,1074.934,591.74z M950.733,435.918
	c-2.382-2.473-4.2-4.361-6.02-6.25c0.267-0.236,0.533-0.473,0.799-0.709c1.131,0.92,2.262,1.84,3.393,2.758
	c0.245-0.281,0.49-0.564,0.736-0.848c-3.664-4.156-7.328-8.313-10.433-11.832c-2.526,2.926-4.556,5.277-6.292,7.289
	c2.423,3.371,5.21,7.414,8.224,11.279c0.503,0.646,1.987,0.525,3.02,0.758c0.117-0.807,0.235-1.611,0.284-1.945
	C946.472,436.258,948.409,436.104,950.733,435.918z M623.862,490.955c-0.485,0.281-0.971,0.563-1.457,0.844
	c-1.382-2.094-2.765-4.188-4.396-6.658c-1.306,10.078,4.359,14.9,11.628,18.701c-1.968-3.533-3.936-7.068-5.902-10.602
	c0.629-0.383,1.258-0.764,1.887-1.146c2.432,3.756,4.864,7.51,7.297,11.266c0.475-6.635-0.534-12.074-7.308-14.045
	c-0.793-0.23-0.77-2.564-1.631-3.406c-1.799-1.76-3.936-3.172-5.934-4.729c-0.221,0.318-0.44,0.635-0.661,0.953
	C619.544,485.072,621.703,488.014,623.862,490.955z M809.54,614.953c4.243,5.311,6.209,11.629,12.852,15.205
	c1.45-5.359,2.729-10.088,4.355-16.102c-2.55,0.303-5.053,0.729-7.57,0.861C816.353,615.068,813.516,614.953,809.54,614.953z
	 M543.865,588.596c-0.064-0.479-0.13-0.957-0.195-1.436c5.454-2.467,10.908-4.932,16.362-7.398
	c-0.076-0.418-0.152-0.834-0.228-1.252c-11.278,0.568-22.557,1.135-33.835,1.701c-0.065,0.521-0.131,1.041-0.196,1.563
	c2.042,0.336,4.095,1.008,6.122,0.938c3.478-0.121,7.056-1.314,8.723,3.424C540.994,587.205,542.747,587.789,543.865,588.596z
	 M794.968,546.898c-1.287,2.297-2.381,4.248-3.462,6.176c5.674,3.725,20.775,1.58,23.678-4.018
	C808.34,548.326,801.864,547.635,794.968,546.898z M431.023,719.207c-7.721-4.607-14.732-7.031-22.526-2.549
	c1.124-0.771,2.248-1.543,3.371-2.314c-5.215-0.648-8.073,1.824-9.853,7.811C411.858,721.154,420.956,720.23,431.023,719.207z
	 M1157.768,589.271c5.866,2.439,11.394,4.182,16.343,6.955c4.814,2.697,9.036,6.451,14.203,10.244
	c-3.032-6.248-10.083-12.82-16.163-15.643c-0.994-0.461-2.162-0.982-2.744-1.824
	C1165.916,583.951,1162.301,585.463,1157.768,589.271z M540.148,551.475c3.938,2.574,7.019,6.117,10.373,6.398
	c4.159,0.348,8.544-2.006,13.772-3.451C550.62,548.613,545.785,547.873,540.148,551.475z M614.623,490.48
	c0.401-0.213,0.802-0.426,1.203-0.637c-1.353-2.707-2.167-5.959-4.205-7.973c-2.197-2.172-5.392-3.814-8.424-4.523
	c-2.908-0.682-6.165,0.127-9.27,0.281c6.821,2.496,13.386,4.951,11.018,15.113c0.48-0.24,0.961-0.48,1.441-0.721
	c0.919-2.078,1.838-4.156,2.843-6.428C611.302,487.473,612.962,488.977,614.623,490.48z M1102.556,421.387
	c5.926,4.244,11.329,8.115,16.732,11.984c0.47-0.279,0.938-0.561,1.407-0.84c-2.531-2.162-5.848-4.225-2.565-6.383
	c-1.743-1.338-3.433-2.635-5.49-4.215c-1.262,0-3.161,0-5.33,0c3.813-6.5-4.292-7.549-4.754-11.926
	C1102.556,414.234,1102.556,418.461,1102.556,421.387z M877.095,489.727c7.292,7.141,26.471,17.156,30.287,16.096
	C904.054,501.545,886.848,492.283,877.095,489.727z M1156.79,678.729c-0.197,0.578-0.395,1.154-0.591,1.73
	c2.356,1.654,4.573,4.428,7.099,4.744c6.803,0.852,13.738,0.658,20.622,0.879c0.167-3.83-2.983-5.686-7.309-4.074
	c-1.799,0.67-4.057,0.814-5.94,0.416C1165.993,681.432,1161.41,679.99,1156.79,678.729z M465.394,595.914
	c0.031-0.625,0.062-1.25,0.092-1.875c-12.946-0.906-25.893-1.813-38.839-2.719c-0.054,0.939-0.107,1.879-0.161,2.816
	C439.456,594.729,452.424,595.322,465.394,595.914z M1234.367,635.627c-2.941-5.018-10.073-5.881-10.049-12.568
	c0.001-0.184-0.49-0.424-0.788-0.545c-3.008-1.227-6.023-2.434-9.512-3.836C1218.531,627.264,1224.437,633.381,1234.367,635.627z
	 M469.32,693.35c0.11-0.314,0.221-0.627,0.331-0.941c-0.666-0.434-1.28-1.002-2.005-1.279c-8.34-3.205-16.681-6.406-25.076-9.461
	c-0.69-0.252-1.775,0.584-2.678,0.914c0.834,0.996,1.485,2.557,2.531,2.893c4.873,1.57,9.869,2.75,14.793,4.168
	C461.271,690.809,465.287,692.109,469.32,693.35z M465.458,633.189c-2.271-7.521-4.44-14.703-6.609-21.887
	c-0.568,5.158,0.488,10.227,0.073,15.172C458.454,632.068,460.74,633.539,465.458,633.189z M1137.91,446.225
	c0.16-2.043,0.284-3.617,0.401-5.117c-1.207,0-3.153,0.063-3.158-0.01c-0.159-2.309-0.131-4.633-0.131-7.004
	c-7.309-0.891-7.89-0.537-8.187,4.52C1130.635,441.225,1134.092,443.602,1137.91,446.225z M694.795,416.352
	c1.8-0.162,5.153-1.039,5.471-0.402c2.313,4.635,5.14,2.738,9.631,0.947c-4.393-2.619-7.75-4.623-10.921-6.514
	C697.25,412.848,695.965,414.682,694.795,416.352z M591.673,489.361c-1.223,2.881-2.606,5.016-2.941,7.307
	c-0.242,1.648,0.553,3.773,1.59,5.158c0.567,0.756,2.829,0.896,3.885,0.391c0.644-0.307,0.89-3.35,0.561-3.498
	c-3.929-1.777-1.602-4.664-1.6-7.168C593.167,490.854,592.243,490.156,591.673,489.361z M403.582,599.297
	c0.88,6.672,5.998,1.686,8.462,3.574c3.896,2.99,6.677-0.197,9.826-1.785C415.875,600.5,409.881,599.914,403.582,599.297z
	 M663.871,619.6c4.686,6.574,7.688,7.973,12.649,6.18C673.553,621.598,670.28,617.867,663.871,619.6z M676.507,621.324
	c3.342,4.018,5.767,8.074,11.415,5.914C687.815,618.713,680.742,623.619,676.507,621.324z M968.299,466.447
	c-0.896-2.715-1.671-5.061-2.383-7.217c-2.922,2.279-5.475,4.271-8.018,6.258C959.454,467.305,959.454,467.305,968.299,466.447z
	 M1005.061,618.652c4.158-1.068,7.594-1.951,11.029-2.834c0.025-0.434,0.052-0.867,0.077-1.299
	c-2.988-1.008-5.976-2.016-9.292-3.135C1006.259,613.852,1005.794,615.715,1005.061,618.652z M410.405,536.689
	c4.006,2.346,7.514,4.4,11.355,6.65C421.758,536.105,418.665,534.314,410.405,536.689z M1305.69,670.496
	c-3.387-2.109-6.749-4.205-10.111-6.299c-0.34,0.463-0.68,0.928-1.02,1.393c4.596,3.459,9.191,6.918,13.787,10.379
	c0.091-1.775-0.794-2.627-1.105-3.652c-0.282-0.928,0.061-2.045,0.129-3.078c-0.252-0.072-0.504-0.146-0.757-0.219
	C1306.18,669.711,1305.749,670.402,1305.69,670.496z M713.147,419.945c-0.174,0.641-0.348,1.281-0.521,1.922
	c4.86,0.852,9.72,1.705,14.579,2.557C723.719,417.154,717.978,420.688,713.147,419.945z M868.875,451.088
	c-0.524-0.285-1.048-0.57-1.571-0.855c-2.49,1.566-5.096,2.986-7.393,4.797c-0.596,0.471-0.225,2.166-0.297,3.297
	c2.464-1.109,5.085-1.977,7.321-3.436C867.969,454.217,868.251,452.391,868.875,451.088z M959.833,472.943
	c1.141,2.221,1.675,3.803,2.674,4.994c0.582,0.693,2.039,1.221,2.868,0.988c0.933-0.262,1.867-1.336,2.321-2.287
	c0.615-1.287,0.773-2.791,1.207-4.514C966.607,472.332,963.543,472.609,959.833,472.943z M977.151,620.396
	c0.529-0.313,1.059-0.627,1.588-0.939c0.213-6.322-6.645-8.475-8.718-13.449c-0.367,0.217-0.735,0.436-1.103,0.652
	C971.663,611.238,974.407,615.816,977.151,620.396z M878,449.457c-0.049-0.633-0.098-1.266-0.146-1.9
	c-2.896-0.277-5.792-0.555-8.688-0.832c-0.153,0.406-0.307,0.814-0.46,1.221c1.291,1.561,2.582,3.123,3.997,4.834
	C874.742,451.5,876.371,450.479,878,449.457z M1157.661,464.283c-2.397,1.127-2.509,2.611,0.09,4.287
	c0.804,0.518,1.677,0.971,2.367,1.615c0.824,0.77,1.486,1.713,2.219,2.582c0.5-0.693,1.528-1.523,1.393-2.055
	c-0.318-1.24-1.01-2.516-1.897-3.447C1160.829,466.215,1159.446,465.525,1157.661,464.283z M560.358,479.619
	c-1.69-1.066-3.637-2.293-5.305-3.346c0,3.135,0,6.553,0,9.969c0.362,0.063,0.724,0.125,1.086,0.186
	C557.622,484.035,559.105,481.641,560.358,479.619z M345.42,121.252c1.51,6.377,6.322,10.527,11.945,10.822
	C353.419,128.5,349.792,125.213,345.42,121.252z M726.545,602.525c4.344,4.068,8.688,8.135,13.03,12.201
	C737.078,608.637,732.792,604.451,726.545,602.525z M1028.006,402.121c0.44-0.529,0.88-1.061,1.319-1.592
	c-4.329-3.578-8.657-7.156-12.987-10.734c-0.31,0.381-0.62,0.762-0.931,1.143C1019.608,394.666,1023.807,398.395,1028.006,402.121z
	 M870.481,640.971c-3.692-4.688-7.35-4.92-9.372-1.09C864.45,640.27,867.465,640.619,870.481,640.971z M754.905,475.467
	c-0.51,0.494-1.021,0.99-1.531,1.484c2.754,3.064,5.508,6.129,8.262,9.191c0.438-0.371,0.875-0.744,1.313-1.115
	C760.266,481.84,757.585,478.654,754.905,475.467z M707.201,411.184c2.359,5.123,5.439,6.361,10.086,4.273
	C713.352,413.789,710.277,412.486,707.201,411.184z M634.757,479.182c2.459,1.307,3.894-1.039,4.336-3.363
	c0.283-1.484-1.079-3.283-1.76-5.088C636.366,473.904,635.677,476.162,634.757,479.182z M430.777,585.842
	c-2.245-1.566-3.513-2.605-4.95-3.293c-0.224-0.107-1.904,1.742-1.729,2.084c0.672,1.318,1.669,2.627,2.884,3.422
	C427.386,588.318,428.806,587.031,430.777,585.842z M521.434,556.479c-3.151-2.455-5.749-4.479-8.604-6.703
	C513.476,555.018,515.703,556.756,521.434,556.479z M600.067,495.17c-2.536,2.672-0.812,5.881,4.855,7.475
	C603.09,499.824,601.714,497.705,600.067,495.17z M1278.48,652.666c-0.182,0.236-0.362,0.475-0.543,0.713
	c1.501,1.145,3.002,2.291,4.711,3.594c1.742-6.234,1.742-6.234-1.962-6.768c0.617,1.193,1.263,2.438,1.907,3.684
	c-0.286,0.211-0.572,0.422-0.858,0.633C1280.65,653.902,1279.565,653.283,1278.48,652.666z"/>
<path fill-rule="evenodd" clip-rule="evenodd" d="M318.295,270.545c17.373-2.722,31.984,2.66,45.76,11.064
	c1.548,0.945,3.169,3.283,3.188,4.992c0.224,19.626,0.143,39.256,0.143,59.824C350.944,321.012,334.791,296.043,318.295,270.545z"/>
<path fill-rule="evenodd" clip-rule="evenodd" d="M283.91,718.287c-2.78-2.379-5.154-4.412-6.747-5.775
	c15.728-4.338,32.38-1.752,49.166,0.996c11.886,1.945,23.994,2.531,36.004,3.719c0.482,0.047,0.992,0.137,1.453,0.037
	c6.829-1.494,7.971-0.49,7.282,5.965c-13.427-0.994-26.845-1.955-40.256-3.002c-4.595-0.359-9.167-0.996-13.758-1.408
	c-10.164-0.912-20.328-1.834-30.507-2.523C285.598,716.23,284.54,717.785,283.91,718.287z"/>
<path fill-rule="evenodd" clip-rule="evenodd" d="M482.792,453.461c-0.514,0.098-1.503,0.285-3.126,0.594
	c7.82,4.863,15.108,9.395,22.396,13.926c-0.172,0.359-0.345,0.721-0.517,1.082c-5.575-2.133-11.15-4.268-16.726-6.4
	c-0.251,0.512-0.501,1.023-0.752,1.537c7.372,3.625,14.744,7.252,22.116,10.877c-0.025,0.152-0.051,0.303-0.075,0.453
	c-4.436-1.207-8.871-2.416-13.306-3.625c-0.174,0.404-0.347,0.809-0.521,1.213c3.104,1.535,6.209,3.07,10.01,4.947
	c-10.235-2.84-19.655-5.457-29.077-8.07c-3.97-1.104-3.241-5.486-5.519-7.895c-3.5-3.705,0.112-8.398-1.02-12.686
	c-0.684-2.592,4.011-3.488,7.648-1.271C477.241,449.92,480.111,451.773,482.792,453.461z"/>
<path fill-rule="evenodd" clip-rule="evenodd" d="M892.298,339.676c2.651-3.576,4.607-8.284,8.127-10.451
	c4.678-2.881,7.047-7.031,10.177-10.979c1.782-2.249,5.233-3.212,8.02-4.576c0.307-0.149,1.665,0.82,1.73,1.367
	c0.729,6.126,1.344,12.267,1.845,18.415c0.046,0.561-0.801,1.596-1.398,1.744c-9.034,2.246-18.096,4.379-27.151,6.537
	C893.198,341.047,892.749,340.361,892.298,339.676z"/>
<path fill-rule="evenodd" clip-rule="evenodd" d="M456.53,114.272c-1.775-0.476-3.558-1.382-5.323-1.35
	c-6.824,0.124-11.923-3.341-17.078-7.202c-4.584-3.434-9.638-6.232-14.429-9.396c-1.996-1.319-3.848-2.858-5.765-4.297
	c0.118-0.504,0.235-1.008,0.354-1.511c1.46,0,3.124-0.464,4.347,0.073c9.622,4.23,19.328,8.33,28.641,13.174
	c3.782,1.967,6.652,5.687,9.938,8.608C456.985,113.006,456.757,113.639,456.53,114.272z"/>
<path fill-rule="evenodd" clip-rule="evenodd" d="M915.928,662.912c-1.048-0.814-2.096-1.627-3.144-2.441
	c0.157-0.326,0.314-0.654,0.472-0.982c3.877,1.768,7.754,3.535,11.163,5.09c0.102-1.344,0.198-2.615,0.305-4.008
	c2.757,1.391,5.006,2.523,7.255,3.656c0.156-0.279,0.313-0.557,0.469-0.834c-1.368-0.928-2.736-1.855-4.247-2.881
	c6.438,0.131,12.825,4.594,19.866,14.621c-19.694-4.889-38.604-12.273-57.592-18.641c-0.229-2.15-0.422-3.951-0.776-7.268
	C896.795,658.574,906.887,659.559,915.928,662.912z"/>
<path fill-rule="evenodd" clip-rule="evenodd" d="M1203.425,711.797c-5.125-1.006-10.269-1.926-15.368-3.043
	c-3.918-0.859-7.748-2.125-11.673-2.938c-8.693-1.797-17.422-3.422-25.722-5.035c8.42-3.588,17.604-3.828,26.674-1.02
	c9.051,2.801,17.873,6.338,26.796,9.553C1203.897,710.143,1203.661,710.969,1203.425,711.797z"/>
<path fill-rule="evenodd" clip-rule="evenodd" d="M503.037,679.77c7.63,2.543,15.211,5.066,23.262,7.75
	c-5.858,3.355-9.288,3.428-14.238,1.936C507.199,687.988,502.855,686.471,503.037,679.77z"/>
<path fill-rule="evenodd" clip-rule="evenodd" d="M985.285,274.201c3.768-3.453,17.044,0.809,22.681,7.381
	C999.125,282.807,991.773,280.444,985.285,274.201z"/>
<path fill-rule="evenodd" clip-rule="evenodd" d="M333.369,433.252c-2.372-6.082-4.477-11.479-6.817-17.482
	c2.652,0.621,4.261,1.047,5.889,1.371c2.861,0.568,4.915,0.715,2.936,4.998c-1.043,2.254,1.289,6.068,2.193,9.547
	C336.693,432.012,335.375,432.504,333.369,433.252z"/>
<path fill-rule="evenodd" clip-rule="evenodd" d="M1091.247,338.99c-10.765-5.299-21.529-10.597-32.293-15.895
	c0.224-0.461,0.448-0.922,0.672-1.383c10.795,5.355,22.56,8.699,32.476,15.879C1091.816,338.059,1091.532,338.523,1091.247,338.99z"
	/>
<path fill-rule="evenodd" clip-rule="evenodd" d="M888.614,293.482c0.569,4.061,1.138,8.12,1.776,12.678
	c-3.035,0.701-5.636,1.303-9.276,2.146c2.223-5.751,4.014-10.388,5.805-15.023C887.484,293.35,888.048,293.416,888.614,293.482z"/>
<path fill-rule="evenodd" clip-rule="evenodd" d="M1056.454,322.047c-9.477-3.389-18.953-6.778-28.43-10.168
	c0.158-0.407,0.315-0.814,0.473-1.223c9.867,2.556,19.838,4.842,28.686,10.063C1056.939,321.162,1056.697,321.604,1056.454,322.047z
	"/>
<path fill-rule="evenodd" clip-rule="evenodd" d="M526.275,699.162c6.526-8.893,6.526-8.893,16.744-4.979
	C537.691,695.768,532.364,697.352,526.275,699.162z"/>
<path fill-rule="evenodd" clip-rule="evenodd" d="M1046.502,325.341c10.227,4.607,20.453,9.214,30.679,13.821
	c-0.273,0.643-0.548,1.285-0.821,1.926c-4.86-2.424-9.649-5.008-14.6-7.23c-5.285-2.374-10.724-4.408-16.096-6.592
	C1045.944,326.625,1046.223,325.982,1046.502,325.341z"/>
<path fill-rule="evenodd" clip-rule="evenodd" d="M235.401,571.707c-6.167,4.984-12.333,9.969-18.5,14.953
	c-0.189-0.158-0.379-0.318-0.569-0.477c0.383-0.629,0.639-1.404,1.169-1.859c5.494-4.73,11.033-9.41,16.559-14.104
	C234.507,570.715,234.955,571.211,235.401,571.707z"/>
<path fill-rule="evenodd" clip-rule="evenodd" d="M905.7,360.969c6.619,0.447,9.906,5.932,13.672,10.691
	c-4.82-3.166-9.64-6.332-14.46-9.5C905.174,361.764,905.437,361.365,905.7,360.969z"/>
<path fill-rule="evenodd" clip-rule="evenodd" d="M832.983,242.605c6.011,4.463,12.021,8.926,18.031,13.388
	c-0.325,0.437-0.651,0.873-0.978,1.31c-6.024-4.448-12.05-8.896-18.075-13.344C832.302,243.508,832.643,243.057,832.983,242.605z"/>
<path fill-rule="evenodd" clip-rule="evenodd" d="M895.521,362.709c2.937,1.303,5.874,2.605,9.352,4.148
	c-1.099,1.053-2.029,1.941-2.926,2.801c-2.515-2.012-4.831-3.863-7.148-5.717C895.04,363.531,895.28,363.119,895.521,362.709z"/>
<path fill-rule="evenodd" clip-rule="evenodd" d="M1092.758,368.691c-3.553-2.32-6.146-4.014-8.738-5.709
	C1087.554,363.402,1091.686,362.928,1092.758,368.691z"/>
<path fill-rule="evenodd" clip-rule="evenodd" d="M614.5,458.691c2.31,2.523,4.767,4.932,6.866,7.619
	c0.979,1.252,2.202,3.762,1.677,4.447c-1.176,1.537-3.377,2.289-5.993,2.826c6.184-3.098,3.449-5.781,0.53-8.674
	c-1.583-1.57-2.83-3.477-4.229-5.232C613.733,459.35,614.117,459.02,614.5,458.691z"/>
<path fill-rule="evenodd" clip-rule="evenodd" d="M695.609,547.48c-0.389,0.596-1.078,1.652-2.339,3.582
	c-3.512-4.635-6.817-8.996-10.122-13.359c0.479-0.416,0.958-0.832,1.438-1.248c2.479,1.318,5.769,1.131,6.222,5.68
	C690.99,543.973,693.784,545.551,695.609,547.48z"/>
</svg>
