<?xml version="1.0" encoding="utf-8"?>
<!-- Generator: Adobe Illustrator 16.0.0, SVG Export Plug-In . SVG Version: 6.00 Build 0)  -->
<!DOCTYPE svg PUBLIC "-//W3C//DTD SVG 1.1//EN" "http://www.w3.org/Graphics/SVG/1.1/DTD/svg11.dtd">
<svg version="1.1" id="Capa_1" xmlns="http://www.w3.org/2000/svg" xmlns:xlink="http://www.w3.org/1999/xlink" x="0px" y="0px"
	 width="1068.107px" height="841.89px" viewBox="0 0 1068.107 841.89" enable-background="new 0 0 1068.107 841.89"
	 xml:space="preserve">
<path fill-rule="evenodd" clip-rule="evenodd" d="M272.105,623.068c4.43-1.266,8.902-2.406,13.273-3.852
	c2.112-0.699,6.048-0.193,3.386-4.551c11.591-1.355,15.514-3.709,15.133-8.142c-4.289-1.611-8.408-3.006-12.335-4.817
	c-0.523-0.241-0.072-2.597-0.072-4.106c3.788,1.351,6.054,6.251,10.024,3.177c1.514,1.044,2.899,1.999,4.285,2.955
	c0.436-1.554,0.873-3.106,1.565-5.575c0.246-0.095,1.593-0.61,2.939-1.128c-0.141,1.47-0.048,3.012-0.469,4.397
	c-0.931,3.062,0.821,4.528,3.2,5.138c2.755,0.706,5.14-0.053,6.011-3.393c-4.769-0.085-4.769-0.085-5.322-3.474
	c1.991,0.2,3.994,0.401,5.997,0.604c0.114-0.861,0.229-1.724,0.343-2.585c-3.425,0.556-6.032-3.186-9.848-0.574
	c-3.94-4.872-9.886-4.806-15.232-6.287c-1.823-0.505-3.473-1.634-5.203-2.478c0.218-0.474,0.436-0.946,0.654-1.42
	c15.538,4.239,31.076,8.478,46.614,12.716c0.246-0.672,0.492-1.343,0.737-2.015c-1.991-1.201-3.983-2.402-5.976-3.604
	c0.145-0.354,0.288-0.708,0.433-1.062c2.282,1.021,4.483,2.338,6.866,2.995c3.525,0.973,7.394,2.612,10.743,1.984
	c14.843-2.783,29.553-6.275,45.309-9.729c-2.414-3.185-5.043-6.406-7.402-9.815c-5.333-7.703-10.322-15.652-15.865-23.198
	c-3.285-4.472-7.528-8.229-10.982-12.593c-1.202-1.52-1.286-3.905-1.959-5.868c-0.446-1.3-1.031-2.551-1.554-3.824
	c-0.562,1.474-1.354,2.902-1.646,4.428c-1.501,7.876-2.209,15.977-4.503,23.604c-1.772,5.892-8.563,5.55-13.403,7.209
	c-5.304,1.819-10.879,2.847-16.334,4.224c-0.159,0.04-0.356,0.239-0.447,0.193c-6.783-3.502-12.254,2.293-18.561,2.719
	c-6.562,0.444-13.009,2.531-19.522,3.82c-0.9,0.178-1.892-0.104-2.798-0.17c-1.3-19.923,1.4-38.792,11.16-56.197
	c3.713-6.621,4.305-13.696,3.46-20.941c-0.199-1.702,0.071-5.001-4.336-3.811c-1.546,0.417-4.736-3.168-6.362-5.494
	c-7.112-10.179-13.626-20.784-20.939-30.81c-6.313-8.655-13.4-16.747-20.169-25.068c-5.184-6.373-10.03-13.089-15.803-18.878
	c-2.139-2.145-6.482-2.829-9.838-2.876c-8.685-0.12-17.862,0.496-24.415-5.891c-5.459-5.321-9.477-12.215-13.686-18.703
	c-5.17-7.969-9.43-16.56-14.95-24.26c-3.286-4.584-6.479-9.424-12.03-12.397c-7.873-4.217-10.885-12.508-14.016-20.379
	c-0.365-0.917-0.516-1.916-0.85-2.848c-0.158-0.442-0.512-0.813-0.979-1.523c-1.32,1.257-2.313,2.204-3.663,3.489
	c-3.319-5.54-6.35-10.954-9.798-16.087c-0.78-1.161-3.778-0.906-4.442-2.059c-3.98-6.909-11.827-6.905-17.739-10.252
	c-9.547-5.406-19.474-10.142-29.226-15.188c-0.546-0.282-0.961-0.816-1.783-1.535c4.32-2.915,8.404-5.67,12.696-8.566
	c-3.465-3.838-6.708-7.337-9.824-10.946c-0.84-0.973-1.925-2.346-1.813-3.423c0.518-5.03-2.985-7.854-5.383-11.466
	c-2.797-4.213-3.636-9.548-7.462-13.351c-0.85-0.844-0.771-3.323-0.255-4.734c7.458-20.443,10.297-41.626,10.458-63.264
	c0.002-0.286,0.253-0.57,1.037-2.229c2.542,5.722,4.699,10.578,7.125,16.039c-1.479-0.348-2.538-0.598-4.171-0.982
	c0.426,1.37,0.489,2.586,1.103,3.373c2.964,3.796,6.16,7.412,9.095,11.228c1.227,1.595,1.895,3.611,3.04,5.282
	c0.746,1.089,1.764,2.122,2.892,2.788c1.744,1.029,3.686,1.722,6.167,2.838c-3.562,3.167-6.467,5.75-9.822,8.733
	c2.849,3.337,5.795,6.43,8.292,9.851c1.432,1.961,1.851,4.648,3.227,6.667c2.847,4.177,6.096,8.078,9.055,12.183
	c3.563,4.944,6.821,9.852,12.635,12.938c3.423,1.816,0.484,4.267-2.313,6.155c0.263-2.25,0.455-3.885,0.722-6.17
	c-1.961,1.418-3.298,2.385-4.989,3.608c2.852,6.698,5.973,13.449,13.128,17.64c2.084,1.221,3.018,4.408,5.314,6.373
	c-0.159-1.262-0.318-2.524-0.483-3.833c0.352,0,0.734-0.119,0.881,0.018c5.342,4.94,10.352,10.3,16.059,14.77
	c7.943,6.222,16.405,11.78,25.481,18.215c0.262-2.598,0.399-3.954,0.59-5.85c1.971,1.089,4.073,1.768,5.514,3.141
	c3.631,3.461,7.167,7.07,10.338,10.949c1.822,2.229,2.83,5.115,4.263,7.673c0.595,1.062,1.306,2.064,2.032,3.043
	c0.57,0.769,1.645,1.377,1.813,2.197c1.801,8.786,8.604,14.586,12.934,21.85c4.662,7.821,9.408,15.602,14.436,23.189
	c1.203,1.814,3.667,2.793,5.552,4.156c0.559-0.466,1.117-0.932,1.676-1.397c6.218,11.988,11.926,24.28,18.816,35.869
	c5.387,9.059,12.288,17.212,18.427,25.832c5.955,8.36,11.726,16.852,17.708,25.193c4.619,6.439,9.438,12.735,14.434,19.452
	c-3.593,9.07-2.606,28.523,2.36,31.802c0-1.537,0-2.811,0-5.371c1.777,1.977,3.332,3.014,3.888,4.44
	c2.761,7.076,8.841,9.088,15.028,5.024c3.553-2.333,7.42-4.188,11.132-6.25c-1.141-2.32-2.249-4.572-3.501-7.12
	c-1.092,0.603-2.252,1.242-3.411,1.882c-0.219-0.262-0.437-0.522-0.655-0.784c1.073-1.23,2.146-2.461,2.813-3.227
	c-3.788-4.564-8.063-8.686-11.062-13.587c-3.848-6.286-6.848-13.121-9.829-19.89c-0.93-2.11-1.186-4.878-0.757-7.157
	c1.11-5.902,1.485-11.416-2.039-16.835c-2.237-3.441-2.544-7.369-2.531-11.751c0.012-4.053-3.464-8.184-5.62-12.162
	c-3.241-5.979-6.587-11.905-10.048-17.761c-2.504-4.237-5.475-8.207-7.871-12.501c-4.611-8.264-8.464-16.99-13.539-24.945
	c-7.201-11.287-15.253-22.029-22.883-33.045c-7.173-10.357-14.452-20.649-21.357-31.184c-9.415-14.364-19.294-28.251-31.635-40.39
	c-5.444-5.354-9.26-12.344-13.948-18.489c-10.917-14.309-22.052-28.454-32.824-42.87c-6.115-8.183-12.108-16.517-17.37-25.257
	c-4.041-6.711-6.87-14.154-10.2-21.29c-1.04-2.228-1.956-4.514-2.874-6.645c-1.829,0.219-3.202,0.383-4.46,0.534
	c-0.45,3.168-0.456,6.48-1.456,9.459c-1.416,4.219-9.296,5.221-11.72,1.611c-4.705-7.007-9.311-14.086-13.74-21.269
	c-1.486-2.409-2.312-5.226-3.534-8.076c1.359-0.769,2.742-1.551,4.722-2.672c-2.24-2.966-4.292-5.683-6.344-8.399
	c0.56-0.389,1.12-0.777,1.68-1.166c2.577,3.574,6.622,6.852,7.417,10.786c1.511,7.479,8.726,7.633,12.634,11.803
	c0.375,0.4,2.522-0.862,4.164-1.47c2.139,1.674,4.777,3.738,7.415,5.803c0.336-0.29,0.672-0.58,1.008-0.87
	c-0.807-1.169-1.658-2.31-2.411-3.511c-1.677-2.673-3.403-5.322-4.921-8.083c-1.261-2.293-2.428-4.671-3.308-7.129
	c-0.628-1.755-1.505-4.038-0.888-5.504c1.752-4.166-0.407-6.564-3.337-8.274c-3.493-2.039-7.487-4.159-10.139,1.447
	c-0.214,0.454-0.85,0.708-1.919,0.597c0.455-0.931,0.837-1.906,1.375-2.786c2.366-3.874,2.382-3.864-1.999-5.089
	c-2.546-0.711-3.352-5.089-1.991-7.366c0.775-1.296,0.14-3.435,0.14-5.082c3.214,1.38,3.214,1.38,2.968,8.408
	c1.738-1.398,3.218-2.59,5.317-4.279c-0.443,3.3-0.759,5.649-1.074,7.999c0.379,0.219,0.758,0.438,1.137,0.657
	c0.846-1.557,1.692-3.114,2.831-5.209c3.065,4.047,4.914,7.231,7.464,9.688c4.22,4.065,8.892,7.662,13.371,11.458
	c0.489,0.414,1.162,0.755,1.409,1.289c2.966,6.401,8.02,12.742,8.292,19.275c0.427,10.266,6.683,17.458,10.351,25.803
	c4.769,10.848,11.951,20.662,18.364,30.749c5.062,7.961,10.323,15.814,15.867,23.445c7.881,10.848,15.918,21.595,24.231,32.114
	c8.098,10.247,16.963,19.899,24.846,30.301c4.964,6.55,8.944,13.885,13.005,21.071c7.508,13.287,16.86,25.071,26.707,36.738
	c12.375,14.662,23.075,30.741,34.428,46.261c8.482,11.594,16.884,23.247,25.262,34.915c5.014,6.982,10.146,13.9,14.729,21.16
	c1.411,2.236,1.182,5.509,1.714,8.358c0.887-0.381,1.758-0.755,2.629-1.129c-0.403,1.506-0.807,3.013-1.421,5.308
	c-1.57-1.766-2.464-2.77-3.648-4.103c-4.782,6.293-0.915,11.273,2.312,17.58c-2.245-1.908-3.528-2.999-4.812-4.09
	c-0.505,0.248-1.01,0.496-1.514,0.744c0.65,1.695,1.098,3.509,1.997,5.061c1.622,2.799,1.914,6.578,3.15,8.689
	c3.461,5.908,2.547,14.346,9.769,17.999c2.068,1.046,5.289,0.882,6.446,2.424c2.107,2.809,3.066,6.479,4.601,10.009
	c0.743-1.665,1.669-3.74,2.721-6.098c1.978,1.81,3.644,3.332,5.354,4.896c1.604-3.604-4.084-11.597-9.213-14.571
	c-0.558-2.854-1.047-4.556-1.188-6.285c-0.168-2.071-0.04-4.168,0.561-6.507c0.531,11.286,10.161,16.041,16.692,23.99
	c-1.819-0.621-2.87-0.979-3.48-1.188c0,2.29-0.488,4.533,0.125,6.419c0.735,2.259,2.052,4.579,3.743,6.23
	c5.435,5.309,11.157,10.32,17.03,15.686c2.205-3.507,0.91-5.983-1.173-8.884c-1.999-2.782-3.066-6.233-4.556-9.384
	c-0.486-1.03-0.841-2.776-1.551-2.944c-6.204-1.467-6.787-8.333-11.215-11.475c-0.539-0.383-0.216-1.98,0.821-3.642
	c4.57,4.327,9.141,8.654,13.711,12.981c0.347,0.327,0.889,0.58,1.025,0.977c2.11,6.101,2.834,13.28,6.614,18.037
	c3.806,4.789,4.561,10.494,7.777,15.172c0.84,1.22,1.92,2.315,3.043,3.293c3.114,2.709,5.271,5.562,6.667,9.873
	c1.711,5.284,6.025,9.716,9.151,14.558c0.988,1.531,1.771,3.195,2.879,5.222c10.814,0.586,22.411,1.215,35.804,1.94
	c-4.481-10.784-8.489-20.492-12.563-30.173c-0.884-2.102-1.757-4.283-3.083-6.102c-1.213-1.663-2.934-3.976-4.598-4.125
	c-11.908-1.063-20.429-7.261-26.836-16.83c-7.986-11.93-15.766-23.998-23.744-35.933c-5.761-8.614-11.807-17.039-17.523-25.683
	c-3.552-5.37-5.336-11.25-3.95-17.844c0.348-1.649-0.106-3.469-0.214-5.65c1.205,0.317,2.28,0.601,2.463,0.648
	c0.874-2.578,1.777-4.757,2.317-7.022c0.33-1.386,0.725-3.399,0.023-4.284c-4.885-6.155-6.243-14.658-14.648-18.703
	c-4.455-2.145-7.116-8.017-11.021-12.729c2.696-1.428,4.683-2.48,7.018-3.718c0.365,6.063,4.882,9.015,8.706,11.736
	c5.528,3.935,11.922,6.655,17.946,9.895c2.66,0.684,4.077-0.363,3.077-2.979c-0.951-2.486-2.61-4.701-3.958-7.036
	c-2.627-2.815-5.391-5.519-7.845-8.478c-2.625-3.164-4.681-6.875-9.372-7.473c-0.704-0.09-1.486-0.847-1.931-1.5
	c-6.716-9.877-17.069-15.441-26.245-22.431c-2.402-1.829-4.261-4.545-5.925-7.138c-4.466-6.956-9.421-13.729-12.847-21.189
	c-5.632-12.265-14.43-21.846-23.82-31.036c-11.85-11.597-20.425-25.52-28.944-39.528c-2.234-3.674-4.833-7.125-7.158-10.747
	c-1.281-1.996-2.339-4.134-3.498-6.208c0.492-0.393,0.983-0.785,1.475-1.177c3.759,3.885,7.954,7.441,11.187,11.723
	c6.557,8.685,12.728,17.671,18.813,26.699c8.104,12.022,18.385,21.598,30.386,29.734c13.252,8.985,27.554,16.68,38.566,28.662
	c8.703,9.469,18.751,17.984,23.078,30.735c0.674,1.986,1.469,4.186,1.243,6.177c-0.654,5.779,2.968,8.271,7.022,11.096
	c6.108,4.255,11.865,9.026,17.627,13.756c0.873,0.717,0.963,2.39,2.079,3.017c0.942,1.286,1.781,2.665,2.848,3.838
	c2.218,2.44,4.305,5.11,6.925,7.034c1.964,1.442,4.676,1.866,8.185,3.16c-1.674-2.151-2.709-3.482-3.743-4.813
	c0.127-0.209,0.254-0.418,0.381-0.626c1.075,0.723,2.235,1.346,3.21,2.185c4.658,4.009,9.692,4.158,15.674,3.191
	c6.788-1.097,13.148-2.678,19.078-6.108c0.383-0.222,1.152,0.223,2.061,0.43c-2.684,2.227-5.074,4.209-7.464,6.191
	c0.142,0.188,0.284,0.375,0.426,0.563c3.326-1.788,6.624-3.635,9.99-5.344c2.127-1.079,4.642-2.626,4.018,2.065
	c-0.067,0.507,1.209,1.192,2.082,1.998c-3.676,0.938-7.055,1.802-10.687,2.729c3.732,1.193,6.874,2.198,10.016,3.203
	c-0.104,0.345-0.21,0.69-0.315,1.036c-3.302-0.431-6.604-0.861-9.906-1.291c-0.079,0.519-0.158,1.037-0.237,1.557
	c1.951,0.458,3.98,0.711,5.839,1.416c4.774,1.812,9.459,3.86,14.219,5.713c0.658,0.256,1.54-0.061,3.034-0.16
	c-0.978-1.403-1.622-2.329-2.267-3.254c0.279-0.245,0.559-0.489,0.838-0.733c1.89,2.148,3.779,4.298,6.24,7.095
	c-0.111-2.821,0.357-5.255-0.423-7.185c-1.013-2.504-2.56-5.687-4.716-6.604c-2.636-1.122-4.799-1.746-5.655-5.167
	c2.115,0.234,3.764,0.418,5.138,0.571c-8.738-10.103-17.442-20.166-26.444-30.573c1.41-0.915,2.588-1.681,3.928-2.551
	c-2.129-8.09-12.349-12.337-11.963-23.438c-2.173-2.703-7.984-5.207-7.06-13.041c-2.904-2.778-6.822-6.586-10.814-10.314
	c-1.813-1.693-3.861-3.141-5.646-4.86c-2.79-2.688-4.034-6.301-5.859-9.577c-2.531-4.545-7.521-7.665-11.193-11.641
	c-6.05-6.55-12.15-13.084-17.729-20.028c-4.576-5.695-8.314-12.058-12.677-17.937c-1.041-1.402-3.169-2.942-4.655-2.811
	c-1.565,0.138-2.962,2.201-3.428,2.587c-4.6-0.775-8.832-2.353-12.893-1.994c-8.532,0.754-17.208,4.385-25.391,3.361
	c-8.409-1.052-17.415-4.014-22.646-12.769c-2.032-3.401-5.964-5.667-7.513-7.074c-7.056-3.812-12.495-6.749-17.186-9.283
	c-3.75-3.497-6.869-6.717-10.327-9.518c-2.303-1.865-5.09-3.132-8.509-5.172c-0.406-0.657-1.472-2.384-2.538-4.111
	c-0.402,0.18-0.804,0.359-1.206,0.54c0.35,1.22,0.7,2.439,1.048,3.652c-0.248,0.054-0.779,0.217-0.8,0.166
	c-3.152-7.472-6.541-14.861-9.284-22.482c-1.702-4.729,2.621-7.295,5.037-10.484c0.875-1.156,1.23-2.707,1.667-3.717
	c2.479-0.128,5.273-0.21,8.051-0.469c0.546-0.051,1.182-0.684,1.515-1.213c1.895-3.013-1.667-11.958-5.081-12.882
	c3.057-9.301,0.606-17.855-7.25-24.151c-5.793-4.642-11.825-8.984-17.733-13.483c-1.128-0.859-2.174-1.826-2.721-3.415
	c18.084,9.517,37.917,16.662,48.172,36.589c-4.11,1.642-4.11,1.642-1.387,6.26c-1.277,0.7-2.568,1.407-4.17,2.284
	c-2.004-2.819-4.177-5.875-6.35-8.931c-0.438,0.261-0.875,0.522-1.313,0.783c1.833,4.385,3.667,8.771,5.5,13.157
	c-0.934,0.75-1.868,1.501-2.802,2.252c-0.832-2.098-1.664-4.195-2.496-6.293c-0.425,0.307-0.851,0.614-1.277,0.92
	c1.286,3.423,2.917,6.761,3.78,10.288c1.419,5.801,4.607,10.198,9.282,13.697c0.383,0.287,0.833,0.719,0.909,1.145
	c1.356,7.533,6.91,10.723,13.266,13.383c1.673,0.7,2.612,2.992,4.167,4.192c1.106,0.854,2.68,1.102,4.045,1.621
	c0.507-0.771,1.014-1.541,1.521-2.311c-1.696-0.614-3.393-1.229-4.879-1.767c4.633-0.454,8.285-1.062,11.938-1.075
	c2.167-0.008,4.884,0.274,6.404,1.554c4.468,3.763,8.461,8.089,12.641,12.194c0.374-0.24,0.749-0.481,1.124-0.721
	c-1.831-2.946-3.662-5.892-6.231-10.024c5.462,2.98,8.495,5.459,7.675,11.166c-0.843,5.856-0.701,11.854-1.042,18.845
	c13.332-0.854,26.076-1.44,38.766-2.612c4.152-0.383,6.352-0.099,8.37,4.268c4.776,10.339,9.271,21.194,16.176,30.051
	c6.581,8.443,15.979,14.726,24.303,21.766c10.853,9.179,22.043,17.964,32.755,27.301c9.067,7.904,18.303,15.774,26.325,24.687
	c14.805,16.446,29.198,33.31,42.938,50.653c8.459,10.68,15.423,22.549,22.972,33.941c1.083,1.636,1.878,3.531,2.468,5.413
	c2.203,7.021,6.868,10.309,14.229,9.937c0.893-0.045,2.069,0.412,2.696,1.048c4.476,4.539,7.819-0.75,11.652-1.437
	c0.228-0.04,0.547-3.278-0.195-4.255c-1.553-2.042-3.785-3.567-5.965-5.506c0.59-0.956,1.146-1.857,1.597-2.589
	c-3.637-3.717-7.248-7.406-10.858-11.095c0.275-0.324,0.551-0.648,0.826-0.973c1.199,0.716,2.397,1.432,3.597,2.148
	c0.327-0.358,0.655-0.716,0.982-1.074c-2.34-1.485-4.68-2.971-6.841-4.344c0.04-0.182-0.134,0.622-0.512,2.363
	c-4.904-4.761-9.443-9.168-13.983-13.574c0.334-0.445,0.668-0.892,1.001-1.337c1.968,1.12,3.935,2.239,5.902,3.359
	c0.156-0.132,0.313-0.263,0.47-0.394c-2.08-2.268-4.143-4.553-6.243-6.801c-6.538-6.996-13.274-13.816-19.58-21.016
	c-5.234-5.976-3.284-14.025,4.172-16.607c2.643-0.915,6.052,0.383,9.622,0.718c-6.916-8.065-13.191-16.119-20.237-23.429
	c-10.742-11.146-21.603-22.248-33.198-32.479c-9.419-8.312-19.89-15.458-30.112-22.819c-3.338-2.403-4.335-4.898-2.57-8.422
	c1.926-3.845,4.786-4.522,8.674-2.55c13.014,6.602,26.1,13.063,39.176,19.543c2.191,1.086,4.471,1.997,6.709,2.989
	c0.407-0.333,0.814-0.667,1.223-1.001c-1.477-2.635-2.638-5.524-4.508-7.841c-2.411-2.984-2.684-5.661-0.149-8.45
	c2.016-2.218,1.249-3.823-0.731-5.422c-2.2-1.776-4.645-3.363-6.444-5.489c-1.824-2.153-2.933-4.899-4.463-7.317
	c-1.174-1.854-2.516-3.603-4.53-6.457c5.597,3.239,10.376,5.786,14.928,8.69c7.818,4.988,15.694,9.925,23.177,15.389
	c8.677,6.333,16.989,13.169,25.392,19.871c3.997,3.188,7.837,6.573,11.751,9.866c4.878,4.104,5.794,8.357,2.548,11.864
	c-4.328,4.678-9.214,4.838-13.769,0.357c-7.682-7.557-15.225-15.258-23.023-22.69c-3.026-2.885-6.588-5.208-11.079-8.699
	c1.04,3.878,1.586,6.398,2.4,8.829c0.996,2.976,0.474,5.729-2.441,6.668c-2.537,0.816-6.102,1.352-8.174,0.178
	c-7.152-4.05-13.653-9.245-20.794-13.318c-4.282-2.443-9.292-3.611-13.976-5.352c-0.298,0.562-0.596,1.124-0.894,1.686
	c4.718,3.952,9.511,7.818,14.141,11.871c12.602,11.03,25.564,21.693,37.591,33.323c17.598,17.019,34.676,34.589,51.607,52.275
	c5.565,5.813,11.941,9.418,18.4,11.452c-2-2.665-4.172-5.953-6.764-8.869c-1.704-1.917-4.422-2.979-5.968-4.98
	c-3.555-4.597-8.326-7.842-10.687-13.937c-2.926-7.559-1.982-14.815-2.062-22.243c-0.074-7.018,6.047-11.59,14.509-10.501
	c12.858,1.654,25.418,4.417,36.396,11.996c2.128,1.47,4.732,2.249,7.506,2.745c-3.016-5.288-3.915-11.422-9.533-14.936
	c-2.137-1.337-2.825-5.026-4.102-7.679c-0.401-0.834-0.293-2.069-0.883-2.633c-6.583-6.286-9.902-14.918-15.672-21.721
	c-3.187-3.758-7.398-6.637-11.065-10.002c-0.749-0.688-0.975-1.932-1.705-2.653c-2.468-2.438-4.979-4.844-7.613-7.101
	c-3.94-3.376-7.769-6.637-10.626-11.243c-2.585-4.167-6.204-8.328-10.385-10.693c-4.285-2.423-5.276-7.293-9.172-9.488
	c-7.823-4.407-11.508-13.902-20.644-16.642c-0.147-0.044-0.366-0.163-0.387-0.275c-1.033-5.848-8.317-6.021-10.657-12.67
	c3.289,1.151,6.247,1.366,8.009,2.929c17.225,15.292,34.462,30.583,51.269,46.33c15.663,14.675,29.289,31.229,40.837,49.298
	c6.769,10.59,12.331,21.962,18.174,33.119c0.833,1.592,0.187,3.959,0.226,5.968c-1.765-0.184-3.573-0.179-5.286-0.582
	c-9.45-2.228-18.784-5.158-28.345-6.642c-6.801-1.055-13.897-0.205-22.303-0.205c1.198,2.995,1.547,6.45,3.457,8.217
	c11.546,10.677,23.413,21.008,35.292,31.318c1.091,0.947,3.015,0.937,3.358,1.033c4.886-6.347,9.209-11.964,13.744-17.855
	c0.998,0.069,3.066,0.212,5.622,0.389c3.369,6.809,1.531,11.43-6.531,14.668c-1.794,0.721-3.504,1.65-4.372,2.063
	c5.798,3.84,11.71,7.755,17.61,11.657c-1.094-0.013-2.176-0.013-3.259-0.013c-0.062,0.352-0.123,0.703-0.185,1.055
	c1.955,1.527,3.911,3.054,6.835,5.337c-1.843,0-2.372-0.03-2.896,0.007c-0.675,0.048-1.345,0.149-2.017,0.228
	c-0.141,0.452-0.281,0.905-0.421,1.357c1.549,0.609,3.376,2.072,4.596,1.674c4.489-1.465,4.89-1.104,5.835,3.288
	c0.501,2.328,2.604,4.412,4.36,6.247c0.225,0.234,3.528-1.431,3.963-2.707c0.546-1.604-0.058-3.86-0.789-5.567
	c-0.762-1.779-2.256-3.249-3.461-4.83c-0.139-0.181-0.479-0.209-0.895-0.377c-0.059,1.118-0.111,2.132-0.19,3.643
	c-3.83-3.036-7.243-5.741-10.656-8.446c1.895,0.993,3.705,2.278,5.718,2.858c1.041,0.3,2.971-0.278,3.565-1.12
	c1.068-1.51-4.103-8.971-5.724-8.308c-1.424,0.582-2.339,2.411-4.135,4.427c-0.156-2.608-0.274-4.585-0.433-7.236
	c0.267,0.087-0.608,0.036-1.104-0.424c-0.528-0.491-1.142-1.834-0.958-2.009c3.027-2.885,3.054-2.857,1.229-6.552
	c1.728,0.48,3.291,0.916,4.855,1.351c0.154-0.261,0.309-0.521,0.463-0.782c-1.098-1.212-2.195-2.425-2.529-2.795
	c2.222-3.552,4.126-6.597,6.194-9.905c2.391,3.457,10.043,4.902,3.507,12.336c2.81,0,4.779,0,6.851,0
	c-1.517,3.135-2.972,6.142-4.428,9.149c-0.175-0.049-0.351-0.097-0.525-0.145c0.39-1.973,0.779-3.944,1.17-5.917
	c-0.26-0.104-0.52-0.209-0.779-0.313c-0.668,1.085-1.337,2.171-2.03,3.298c-0.663-0.405-1.327-0.813-1.956-1.196
	c-3.055,1.41,0.535,11.542,7.256,20.677c-0.513-3.406-1.022-6.798-1.584-10.532c2.291,2.702,4.326,5.104,6.362,7.506
	c0.55-0.427,1.1-0.854,1.649-1.281c-1.195-1.981-2.537-3.893-3.543-5.967c-0.965-1.99-1.581-4.15-1.588-6.558
	c1.813,3.214,3.625,6.427,5.438,9.641c0.297-0.087,0.594-0.174,0.891-0.26c0-0.919,0-1.837,0-2.752
	c3.818,0.463,7.691,1.257,11.552,1.2c1.138-0.017,3.459-2.886,3.165-3.687c-2.254-6.145,2.475-5.473,6.13-6.399
	c0.142,0.519,0.125,1.217,0.466,1.587c5.504,5.978,10.794,12.047,19.287,14.287c2.211,0.583,3.645,4.114,5.698,6.611
	c-1.271-0.121-2.133-0.203-2.994-0.285c-0.427,0.449-0.854,0.899-1.28,1.35c1.878,1.87,3.756,3.741,5.379,5.357
	c-3.881,2.363,3.41,1.644,2.398,3.848c-1.358,0.357-3.026,0.798-3.789,0.998c-3.638-0.907-6.466-1.613-9.294-2.319
	c-0.148,0.693-0.297,1.387-0.446,2.08c1.441,0.262,2.882,0.524,4.457,0.811c-1.239,1.049-2.443,2.067-4.774,4.039
	c7.13,2.47,13.35,4.623,19.568,6.777c0.203-0.381,0.406-0.762,0.608-1.142c-2.152-1.607-4.306-3.215-6.459-4.822
	c0.24-0.39,0.48-0.779,0.72-1.168c3.302,1.783,6.495,3.828,9.944,5.252c2.15,0.889,4.925,1.599,6.971,0.957
	c1.495-0.469,2.258-3.269,2.451-5.728c-0.725,0.403-1.449,0.808-3.037,1.693c-0.346-4.008-0.667-7.715-0.98-11.354
	c4.086-0.929,4.714,1.174,4.78,3.86c-0.166-0.025-0.338-0.093-0.492-0.064c-0.146,0.026-0.401,0.193-0.39,0.231
	c1.811,5.94,6.877,9.651,13.934,9.216c-3.965-3.787-7.332-7.002-10.698-10.217c-1.532-3.152-2.799-6.474-4.662-9.417
	c-2.651-4.188-5.198-8.676-8.749-12.017c-9.265-8.716-19.137-16.202-32.979-16.636c-7.486-0.235-15.92,0.986-21.895-5.741
	c-2.132-2.399-4.055-4.985-5.489-6.765c2.789-1.441,4.869-2.635,7.046-3.612c3.005-1.351,6.214-2.303,9.081-3.887
	c1.728-0.954,2.972-2.785,4.434-4.222c-1.553-0.479-3.13-0.892-4.649-1.461c-0.913-0.342-1.737-0.926-3.559-1.929
	c2.11-1.005,3.511-1.673,5.614-2.676c-1.671-4.376-3.357-8.793-5.367-14.058c4.218-4.81,9.281-10.7,14.476-16.474
	c3.732-4.148,8.196-5.515,13.673-3.473c7.274,2.713,14.653,5.147,21.985,7.706c0.153,0.054,0.326,0.141,0.42,0.265
	c5.252,7.021,13.258,7.039,20.813,8.306c1.2,0.201,2.234,1.307,3.384,1.923c5.707,3.061,11.427,6.099,17.952,9.576
	c-0.269-2.677-0.418-4.162-0.651-6.493c16.235,8.381,31.524,16.273,47.192,24.361c-0.729,1.858-5.44,5.723,2.388,6.301
	c-0.691-1.328-1.307-2.512-1.826-3.509c1.66-0.657,3.287-1.302,5.287-2.095c-0.123,1.581-0.23,2.945-0.353,4.504
	c3.805-1.692,5.473-1.582,17.219,1.372c-5.426,1.388-3.35,10.469-10.895,9.774c-0.215-0.021-0.529,1.039-0.798,1.595
	c-0.42-1.041-0.659-2.214-1.298-3.098c-1.349-1.866-2.714-3.823-4.481-5.227c-0.608-0.483-2.436,0.568-3.706,0.92
	c0.056,0.381,0.111,0.762,0.166,1.143c1.125,0.527,2.25,1.055,3.577,1.676c-2.705,3.055-3.324,5.983-0.061,8.716
	c4.14,3.466,8.362,3.677,11.175,0.723c-1.599-1.398-3.201-2.798-4.803-4.198c4.409,1.078,8.817,2.157,13.118,3.209
	c0.844-1.756,1.543-3.211,2.706-5.633c-2.016-0.779-4.307-1.666-6.971-2.696c1.563-0.931,2.985-1.757,4.387-2.617
	c1.288-0.792,2.553-1.621,4.781-3.04c-2.032-0.275-3.538-0.479-4.866-0.658c2.096-3.391,3.285-3.315,8.39,0.66
	c-0.352-1.323-0.432-2.817-1.129-3.922c-0.758-1.199-2.09-2.035-3.172-3.03c0.245-0.32,0.491-0.642,0.736-0.963
	c2.995,1.415,5.99,2.829,9.005,4.253c-0.01,7.183,1.492,9.507,7.963,11.406c-1.681-2.354-3.033-4.25-4.4-6.165
	c5.766,1.463,7.574,3.629,6.234,7.406c-0.166,0.47-0.128,1.131-0.443,1.413c-3.158,2.815-6.371,5.57-9.771,8.518
	c-0.614-1.26-1.177-2.416-2.45-5.028c-1.183,3.084-2.338,5.086-2.687,7.219c-0.695,4.27,0.902,5.444,7.071,5.728
	c-1.268,3.8-0.723,6.85,2.942,9.266c1.902,1.253,3.202,3.421,4.967,5.391c1.517-1.114,3.659-2.688,6.458-4.743
	c0.271,2.416,0.469,4.165,0.752,6.689c1.766-6.974,5.138-7.81,13.02-4.275c1.687,0.756,3.681,0.825,5.804,1.269
	c0.409,2.353,5.197,5.335,8.588,5.903c2.473,0.414,4.744,2.28,6.999,3.672c2.2,1.358,4.266,2.936,6.557,4.532
	c-0.71,0.271-1.609,0.614-3.096,1.181c4.284,1.021,8.007,1.953,11.751,2.789c4.106,0.918,8.233,1.746,12.767,2.701
	c0-2.688,0-4.417,0-6.146c0.385-0.068,0.769-0.136,1.153-0.203c0.404,1.8,0.891,3.586,1.195,5.403
	c0.424,2.536-0.716,3.895-3.313,3.63c-5.81-0.592-11.738-0.758-17.367-2.128c-3.756-0.914-7.08-3.603-10.873-5.645
	c0.218-0.424,0.682-1.326,1.842-3.586c-4.002,0.421-6.988,0.735-9.974,1.05c0.543,0.889,1.086,1.777,1.641,2.685
	c-2.667,1.894-5.776,0.634-5.539-3.019c0.206-3.177-1.192-3.996-3.557-4.672c-0.559-0.159-1.455-0.404-1.541-0.765
	c-1.581-6.661-7.408-5.983-12.704-7.247c0.541,1.339,0.973,2.405,1.245,3.081c-2.197,0.706-4.456,1.431-6.716,2.156
	c-0.012,0.444-0.024,0.89-0.037,1.334c2.544,1.247,5.088,2.494,7.782,3.814c0.257-0.66,0.514-1.322,0.614-1.58
	c2.138,0.718,4.162,1.397,6.187,2.077c0.188-0.427,0.376-0.853,0.563-1.279c2.349,2.798,4.463,5.846,7.114,8.318
	c2.449,2.285,5.475,3.952,8.117,6.736c-5.319-2.325-5.85,0.542-5.737,4.237c-0.432,0.187-0.863,0.374-1.296,0.561
	c-0.986-2.64-1.974-5.279-3.214-8.6c-2.001,7.76-1.387,9.021,4.684,11.621c1.283,0.55,2.354,1.576,3.575,2.291
	c2.257,1.319,4.518,2.64,6.842,3.831c2.59,1.326,5.229,2.563,7.893,3.736c2.144,0.944,4.354,1.736,7.064,2.804
	c-0.258-5.108,3.042-5.946,6.042-6.983c3.063-1.058,5.136,0.037,6.258,3.573c-3.115,2.894-6.311,5.861-9.602,8.919
	c0.459,0.539,1.267,1.487,2.003,2.351c-5.056,0.71-9.901,1.391-15.524,2.181c-0.821-0.778-2.5-2.37-4.18-3.962
	c-0.327,0.431-0.653,0.862-0.979,1.294c2.443,2.946,4.886,5.893,7.329,8.839c0.374-0.287,0.748-0.575,1.121-0.862
	c-0.363-0.942-0.727-1.886-1.301-3.375c2.327,0.595,4.167,5.038,6.044-0.709c0.379,0.643,0.759,1.286,1.138,1.93
	c-1.411,1.96-2.823,3.92-3.913,5.433c2.745,3.116,5.14,6.933,8.559,9.22c1.542,1.031,5.475-0.402,7.701-1.746
	c3.986-2.408,6.589-0.312,9.913,1.72c-7.567-0.489-5.796,5.767-7.434,9.613c-1.544-0.094-2.948-0.18-2.921-0.178
	c-1.636,3.575-2.817,6.474-4.366,9.16c-0.203,0.352-2.293-0.386-3.594-0.635c-2.11,11.317-2.547,22.655,8.265,31.368
	c4.694-2.073,9.808-4.303,14.887-6.608c0.698-0.317,1.353-0.923,1.809-1.554c2.013-2.781,3.888-5.664,5.921-8.43
	c2.814-3.83,5.996-5.852,10.214-1.029c0.543-1.195,0.892-1.964,1.238-2.728c6.155,7.362,3.912,16.086,4.027,24.348
	c0.119,8.526,1.547,10.479,9.937,13.538c2.047,0.747,3.511,3.092,5.242,4.701c-0.305,0.526-0.609,1.053-0.914,1.579
	c-2.112-0.915-4.225-1.83-7.002-3.033c0.036-0.024-0.85,0.562-1.622,1.072c-0.812-1.966-1.538-3.724-2.264-5.482
	c-0.454,0.129-0.908,0.258-1.361,0.387c0.8,2.596,1.6,5.191,2.399,7.787c-5.201-5.285-5.032-4.884-12.109-1.896
	c-7.302,3.081-15.02,5.167-22.475,7.905c-3.139,1.153-4.469,0.148-5.492-2.81c-4.021-11.616-11.857-20.529-20.794-28.597
	c-0.949-0.856-2.197-1.383-2.175-1.369c-0.692-2.469-0.679-4.168-1.516-5.106c-3.937-4.412-8.066-8.655-12.259-12.827
	c-0.395-0.392-1.705,0.139-2.591,0.24c-1.014-1.943-2.027-3.887-3.006-5.764c-2.504,0-4.911,0-7.525,0
	c0.246,1.508,0.45,2.752,0.743,4.545c3.674-3.879,4.669,0.225,6.574,1.791c-1.763-0.145-3.525-0.288-5.288-0.433
	c-0.131,0.604-0.261,1.206-0.392,1.809c1.52,1.102,3.154,2.078,4.527,3.34c1.416,1.301,2.53,2.925,3.869,4.319
	c0.765,0.795,1.612,1.648,2.596,2.068c4.36,1.864,8.955,3.117,9.79,9.095c0.354,2.534,2.269,4.851,2.795,7.823
	c-0.812-0.622-2.056-1.081-2.365-1.895c-2.042-5.373-6.424-4.809-10.305-3.57c-3.829,1.223-3.827,4.444-2.896,8.201
	c0.79,3.191,0.163,6.734,0.163,10.658c2.622-1.396,4.918-2.528,7.128-3.81c7.724-4.48,15.168-0.883,16.758,7.913
	c0.265,1.468,1.859,2.727,2.931,4.007c1.119,1.335,2.347,2.579,3.527,3.862c-0.334,0.347-0.667,0.693-1,1.04
	c-1.04-0.669-2.08-1.339-3.12-2.009c-0.193,0.161-0.388,0.321-0.582,0.481c1.246,1.757,2.492,3.513,4.127,5.817
	c0.653-1.499,0.995-2.283,1.531-3.513c6.269,3.891,8.657,12.429,17.835,14.33c-5.3-5.019-9.734-9.217-14.169-13.415
	c0.321-0.369,0.643-0.738,0.964-1.106c3.146,2.669,6.292,5.337,9.701,8.228c0.253-0.45,0.619-1.103,1.266-2.252
	c1.772,1.848,3.417,3.632,5.143,5.333c1.176,1.159,2.549,2.123,3.685,3.316c1.084,1.141,1.931,2.502,2.959,3.7
	c2.591,3.018,4.981,8.224,7.891,8.542c6.568,0.718,8.305,6.452,12.663,9.206c4.584,2.896,9.204,5.824,13.354,9.283
	c2.511,2.092,4.157,5.22,6.269,7.981c0.061-0.902,0.166-2.45,0.259-3.831c4.731,2.879,9.705,5.905,14.678,8.932l-0.127-0.088
	c4.69,4.01,9.38,8.02,14.07,12.029c0,4.333,0,8.667,0,13c-4.468-1.955-9.243-5.979-13.328-5.371
	c-5.812,0.867-6.406-2.411-8.254-5.549c-0.223-0.379-0.797-0.601-1.252-0.783c-4.525-1.807-9.06-3.59-14.041-5.558
	c0.163,1.3,0.267,2.124,0.37,2.948c-0.549,0.512-1.099,1.022-1.648,1.533c-0.325-1.065-0.617-2.143-0.981-3.193
	c-1.192-3.436-4.86-5.088-6.964-2.502c-2.48,3.048-5.094,0.917-5.968,0.119c-3.612-3.303-6.614-7.274-9.591-10.712
	c1.164-0.574,2.254-1.112,3.381-1.668c1.419,1.105,3.167,2.468,4.915,3.83c0.398-0.429,0.797-0.857,1.195-1.286
	c-2.499-2.418-4.997-4.836-7.573-7.328c1.082,0.052,2.023,0.098,3.962,0.19c-2.68-3.54-4.274-7.103-7.023-8.862
	c-2.678-1.715-6.536-1.584-9.701-2.228c0.946,4.056-1.198,6.449-4.086,8.571c-3.546,2.605-6.583-0.087-11.2,0.189
	c5.546,4.524,9.672,8.065,16.113,7.537c1.838-0.151,3.854,1.875,6.262,3.154c-1.188,0.557-1.864,0.873-2.9,1.358
	c1.957,1.34,3.553,2.433,5.148,3.524c-7.777-3.76-15.027-8.402-24.606-6.492c-0.462,0.963-1.11,2.311-1.656,3.448
	c3.674,2.387,7.751,3.927,10.121,6.85c3.145,3.879,5.957,5.15,10.456,2.01c0.507,1.794,0.877,3.104,1.394,4.933
	c5.512,0,11.109,0,16.876,0c2.025,5.61,7.349,6.882,12.642,8.198c-0.533,5.314,2.003,6.188,9.82,7.323
	c-0.964-1.581-1.789-2.937-2.614-4.291c0.157-0.082,0.315-0.164,0.473-0.246c7.157,7.436,14.314,14.872,21.472,22.309
	c1.052-1.949,1.468-3.889,0.849-4.313c-5.247-3.586-6.921-9.908-11.665-13.808c0.293-0.294,0.587-0.587,0.88-0.88
	c3.37,2.793,6.739,5.586,10.151,8.414c0.22-0.481,0.626-1.366,1.053-2.297c1.195,2.141,3.104,4.014,3.113,5.897
	c0.019,3.729,1.29,6.252,4.408,8.028c0,4,0,8,0,12c-4.62-0.995-9.24-1.99-14.345-3.09c1.724,1.16,3.187,2.146,4.65,3.132
	c-0.224,0.503-0.446,1.005-0.67,1.507c-2.249-1.039-4.518-2.038-6.743-3.125c-3.639-1.778-7.25-3.614-10.874-5.426
	c-1.173-1.673-2.345-3.347-3.517-5.021c0.271-0.201,0.541-0.402,0.813-0.604c2.807,1.435,5.612,2.868,8.419,4.303
	c-2.396-2.58-5.151-4.511-8.071-6.149c-1.137-0.638-2.683-0.497-3.971-0.927c-1.546-0.515-3.016-1.259-4.519-1.903
	c0.087-0.189,0.174-0.379,0.261-0.567c-7.037-2.139-14.074-4.276-21.111-6.414c-0.306,0.74-0.611,1.481-0.917,2.222
	c10.574,5.046,21.147,10.095,31.733,15.115c0.242,0.115,0.638-0.093,0.962-0.15c2.775,2.877,5.551,5.753,8.734,9.052
	c-0.851,3.477-1.94,7.935-3.255,13.308c-7.79-5.976-14.631-11.223-21.472-16.471c-0.283,0.234-0.567,0.469-0.851,0.703
	c1.008,2.151,2.015,4.304,3.668,7.836c-6.505-2.309-11.535-4.095-16.566-5.88c0.065-0.192,0.131-0.384,0.195-0.575
	c3.44,0.249,6.881,0.499,10.321,0.748c0.233-0.863,0.468-1.727,0.701-2.591c-6.661-2.979-13.322-5.957-20.517-9.174
	c0.309,1.501,0.517,2.514,0.817,3.976c-4.522-2.225-8.622-4.731-13.063-6.202c-1.979-0.655-4.649,0.775-7.931,1.449
	c3.914,2.011,6.362,3.269,8.811,4.526c-0.244,0.456-0.487,0.911-0.731,1.367c-1.256-0.609-2.512-1.218-3.793-1.84
	c-0.239,3.427-0.339,3.669,4.979,5.864c2.342,0.967,5.183,0.724,8.064,1.062c-2.529,4.976-5.978,3.988-10.293,1.736
	c0.863,2.018,1.323,3.093,1.926,4.499c-6.489-1.954-12.658-3.69-18.747-5.672c-13.642-4.439-27.796-4.198-41.864-4.774
	c-8.459-0.346-16.925-0.542-25.383-0.921c-16.848-0.754-33.692-1.588-50.673-1.824c11.377,4.416,23.623,4.994,35.498,7.727
	c-2.604,0-5.207,0-8.372,0c0.877,1.075,1.312,1.608,1.769,2.168c-0.252,0.181-0.463,0.459-0.697,0.48
	c-2.722,0.252-5.47,0.776-8.165,0.584c-1.955-0.14-3.794-1.595-5.765-1.854c-7.871-1.033-16.106-0.724-23.584-2.978
	c-10.507-3.167-21.593-4.204-31.679-8.758c-1.471-0.664-2.778-1.688-3.833-2.343c-2.435-0.432-4.694-0.832-7.24-1.284
	c0.336,0.887,0.72,1.902,0.866,2.287c-5.114-3.065-10.603-6.355-16.091-9.646c-0.329,0.536-0.657,1.072-0.986,1.608
	c1.352,0.962,2.703,1.924,4.054,2.886c-0.464-0.071-0.928-0.143-1.392-0.214c-0.415,1.704-0.831,3.408-1.524,6.254
	c-5.235-2.309-10.944-4.825-16.653-7.343c0.155-0.46,0.311-0.919,0.466-1.378c1.803,0.511,3.605,1.021,4.633,1.313
	c-11.076-11.599-26.263-16.168-41.588-20.716c-4.635-1.376-8.688-4.688-13.037-7.059c-6.433-3.506-12.865-7.016-19.362-10.397
	c-1.242-0.646-2.775-0.914-4.195-0.999c-2.598-0.155-5.212-0.045-8.315-0.045c0,1.077,0,3.043,0,4.973
	c-1.854-0.556-3.843-1.152-6.272-1.88c0.29,1.713,0.489,2.893,0.508,3.004c-5.425-0.678-10.757-1.345-16.889-2.11
	c3.242,3.319,5.613,5.748,7.983,8.176c-10.18-4.106-20.395-8.188-31.674-6.508c-2.572-7.629-6.487-8.853-13.11-4.517
	c-0.592,0.388-1.836-0.375-2.688-0.19c-1.002,0.218-1.905,0.886-2.432,2.411c4.176,0.368,8.352,0.737,12.826,1.132
	c-0.52,0.553-0.727,0.961-0.922,0.955c-12.869-0.362-25.123,3.485-37.649,5.452c-0.76,0.119-2.015,0.229-2.288-0.17
	c-3.375-4.923-7.822-2.301-11.79-1.592c-21.779,3.891-43.494,8.146-65.303,11.862c-7.188,1.225-14.668,0.711-21.866,1.895
	c-7.844,1.291-15.761,1.455-23.654,3.306c-8.353,1.958-17.545,0.772-26.314,0.164c-1.843-0.128-3.446-3.72-6.203-5.289
	c0.339,1.543,0.678,3.086,1.115,5.075c-3.95,0.223-7.765,1.818-10.749-2.786c-2.051-3.164-5.755-3.038-9.044-2.051
	c-7.318,2.198-14.643,1.611-22.158,1.457c-6.938-0.142-14.042,2.134-20.867,4.069c-5.231,1.483-8.556,0.949-11.529-4.177
	c-5.248-9.046-11.261-17.649-17.549-27.357c25.5-1.163,48.082-14.069,73.744-13.434c0-0.907,0-2.27,0-4.52
	c1.38,0.329,3.651,0.257,4.021,1.061c2.028,4.408,5.337,5.417,9.896,5.517c7.04,0.155,14.063,1.104,20.961,1.703
	c-1.109-6.502-4.031-8.856-14.637-11.218c0-2.09,0-4.249,0-6.933c1.97,0.364,3.943,0.729,5.917,1.094
	c-6.278-3.176-11.781-9.104-20.77-5.009c3.146,1.622,5.803,2.992,7.629,3.934c0.705,3.338,1.256,5.94,1.892,8.949
	c-0.91,1.61-2.191,3.878-4.071,7.203c-1.82-2.675-3.371-4.989-4.958-7.278c-2.961-4.272-5.438-9.06-9.128-12.571
	c-1.838-1.749-5.932-1.04-8.968-1.633c-9.596-1.874-19.101-4.655-28.781-5.518c-8.32-0.741-16.876,0.291-25.25,1.229
	c-8.874,0.994-17.619,3.17-26.496,4.104c-4.538,0.478-5.196-4.119-6.479-7.394L272.105,623.068z M678.762,467.357
	c-1.692-2.093-3.386-4.187-5.456-6.745c-0.927,0.63-2.685,1.602-4.063,2.959c-0.259,0.255,1.4,3.024,1.489,2.987
	c2.822-1.174,5.108,3.915,8.005,0.721c1.501,0.653,3.002,1.307,4.502,1.96c0.385-0.483,0.771-0.966,1.155-1.449
	c-2.151-2.544-4.303-5.088-6.454-7.632c-0.412,0.13-0.823,0.26-1.235,0.39c0.185,1.124,0.253,2.284,0.585,3.363
	C677.653,465.099,678.261,466.212,678.762,467.357z M456.353,456.974c-1.856-0.834-3.703-2.299-5.571-2.326
	c-1.934-0.028-3.887,1.34-6.388,2.313c2.664,0.599,5.109,1.482,7.584,1.578c1.49,0.057,3.027-1.113,4.544-1.732
	c0.432,0.656,0.758,1.74,1.317,1.879c1.14,0.282,2.641-0.39,3.579,0.109c5.148,2.737,10.234,5.604,15.215,8.636
	c3.666,2.23,7.138,4.779,10.696,7.187c0.307-0.446,0.614-0.893,0.921-1.339c-1.43-1.027-2.86-2.054-4.291-3.08
	c0.478-3.185,0.48-6.544-0.906-9.171c-0.917-1.739-3.826-2.428-5.844-3.587c-0.107,0.297-0.214,0.595-0.32,0.892
	c-0.71-1.559-1.421-3.117-1.521-3.339c-3.427,0.75-6.911,2.68-8.637,1.653C462.804,454.311,459.765,456.599,456.353,456.974z
	 M766.248,430.005c-0.272-0.019-0.545-0.041-0.817-0.064c-4.025-3.154-8.052-6.309-12.077-9.463
	c1.099,3.201,2.659,5.928,4.669,8.269c6.287,7.322,11.121,16.427,21.792,18.58c1.151,0.232,2.423-0.13,3.639-0.216
	c0.332-0.592,0.664-1.185,0.997-1.777c1.044,1.784,1.923,3.694,3.178,5.315c1.253,1.616,2.638,3.505,4.399,4.27
	c3.012,1.307,6.944,1.048,9.416,2.889c2.765,2.06,4.799,3.342,6.911,1.589c2.751,1.813,4.973,3.276,7.195,4.741
	c0.504-0.575,1.008-1.15,1.513-1.726c-1.148-1.221-2.089-2.823-3.488-3.582c-2.905-1.577-5.955-3.052-9.121-3.953
	c-8.438-2.405-13.086-8.276-15.762-16.188c-0.084-0.25-0.495-0.391-0.824-0.636c-0.707,0.589-1.422,1.186-1.629,1.359
	c-3.707-2.435-7.153-4.697-10.6-6.96c-0.178,0.302-0.354,0.604-0.531,0.906c3.886,3.521,7.771,7.042,11.658,10.563
	c-0.301,0.302-0.601,0.603-0.9,0.903C779.326,439.884,772.787,434.944,766.248,430.005z M891.213,683.811
	c6.148,3.378,12.298,6.755,18.758,10.304c-1.218-1.375-2.277-2.571-3.337-3.768c0.149-0.191,0.3-0.384,0.45-0.575
	c4.16,1.76,8.319,3.52,12.838,5.431c-1.652-6.504-5.743-10.615-10.811-12.746c-5.946-2.501-11.135-5.362-14.546-11.273
	c2.469,0.306,4.889,0.604,7.909,0.979c-1.61-1.707-2.658-2.817-4.136-4.383c1.892-0.71,3.181-1.194,3.97-1.49
	c2.348,1.748,4.311,3.21,6.273,4.671c0.62-0.691,1.241-1.383,1.861-2.073c-1.972-0.866-3.944-1.731-5.916-2.598
	c0.363-0.289,0.728-0.577,1.092-0.866c6.298,2.972,12.597,5.943,18.896,8.915c0.438-0.445,0.874-0.89,1.312-1.335
	c-1.937-0.964-3.873-1.927-5.811-2.891c0.456-0.509,0.912-1.018,1.367-1.527c2.263,1.383,4.524,2.765,6.786,4.147
	c-2.259-4.125-4.525-8.335-8.048-10.519c-15.234-9.446-30.858-18.265-46.29-27.396c-3.607-2.135-6.968-2.766-10.566,0.373
	c4.84,7.96,9.653,15.876,14.663,24.117c-3.584,0.887-6.45,1.597-9.316,2.306c0.102,0.441,0.204,0.883,0.307,1.324
	c1.703-0.21,3.406-0.421,5.108-0.645c0.588,4.992,3.686,7.693,8.229,9.168c3.262,1.059,8.332,1.443,9.276,3.589
	c1.382,3.143,3.556,3.428,5.715,4.512c2.102,1.055,4.286,1.942,6.434,2.903c-3.04,0.289-5.862-0.463-8.705-0.554
	c-1.182-0.038-2.409,1.334-3.619,2.066c-0.74-0.236-1.631-0.284-2.197-0.738c-8.034-6.42-15.932-13.018-24.096-19.266
	c-1.895-1.449-4.785-2.627-6.998-2.324c-2.035,0.277-3.775,2.716-5.798,4.324c-1.788-2.042-3.982-5.126-6.752-7.556
	c-2.936-2.574-6.417-4.526-9.758-6.818c-1.934,6.962-0.451,11.594,6.263,13.581c0.606,0.18,1.114,0.689,1.672,1.04
	c8.42,5.281,16.454,11.375,25.373,15.605c8.192,3.885,14.608,12.152,25.15,10.886c1.621-0.195,3.456,1.38,5.192,2.136
	c0.173-0.33,0.347-0.66,0.52-0.99c-3.67-2.523-7.34-5.047-11.562-7.95c1.704,0.307,2.711,0.487,3.851,0.692
	C891.819,685.498,891.516,684.654,891.213,683.811z M888.135,695.475c-0.472-0.526-0.712-0.968-1.083-1.184
	c-11.339-6.578-22.382-13.771-34.144-19.48c-8.628-4.188-14.714-14.002-27.014-10.966c-7.547,1.863-15.903,0.367-23.887,0.655
	c-0.841,0.03-1.614,1.924-2.2,2.673c-15.872-4.409-31.346,1.781-46.964,3.175C795.209,693.5,841.325,695.586,888.135,695.475z
	 M472.729,495.52c-0.478,0.854-0.955,1.707-1.434,2.561c-7.386-10.8-18.479-11.293-29.749-11.93c0.1,0.559,0.008,1.311,0.339,1.724
	c10.37,12.946,17.992,28.15,35.227,34.873c7.969,3.108,13.635,11.255,18.064,19.232c2.169,3.906,4.456,7.777,7.085,11.375
	c0.631,0.862,3.231,1.266,4.252,0.688c3.88-2.195,6.68-13.862,4.297-17.75c-2.856-4.66-5.04-9.295-3.064-15.132
	c-1.04,1.127-2.081,2.254-3.286,3.56c-0.943-0.56-2.019-1.196-3.298-1.955c1.3-1.059,2.31-1.881,3.798-3.094
	c-1.711-0.659-2.777-1.069-3.916-1.508c0.85-1.217,1.478-2.117,3.051-4.37c-6.271,3.74-5.823-0.158-6.093-3.328
	c-1.87,0.95-3.43,1.742-4.642,2.357c-0.949-2.341-1.875-4.621-2.893-7.129c1.732-2.342,3.169-5.001-0.433-7.494
	c-0.603,0.795-1.104,1.455-1.181,1.557c-2.017-2.141-3.631-4.23-5.622-5.859c-1.927-1.577-4.241-2.679-6.714-4.189
	c0.649,2.25,1.399,4.847,2.148,7.443c-0.501,0.135-1.002,0.27-1.503,0.404c-0.354-1.393-0.707-2.784-1.146-4.513
	c-0.513,0.989-0.846,1.632-1.198,2.313c-5.503-8.488-17.326-14.415-23.494-10.855C460.324,485.818,467.284,489.467,472.729,495.52z
	 M868.877,590.286c-5.754-7.048-12.437-3.218-18.098-2.325c-5.381,0.848-7.784,7.242-7.618,13.106
	c0.101,3.549,1.149,6.809,3.852,8.504c9.161,5.745,18.679,11.049,29.836,11.505c2.616,0.107,5.308-1.606,8.659-2.711
	c-2.15-2.301-3.222-3.446-4.733-5.063c2.233,0.221,3.729,0.368,5.36,0.529c0.459-4.978-0.488-8.782-4.137-12.128
	c-4.346-3.984-8.278-8.518-7.262-15.143c-1.931,0-3.478,0-5.036,0C869.48,587.56,869.271,588.502,868.877,590.286z M833.12,504.449
	c0,4.212-1.645,9.776,0.354,11.884c3.77,3.976,3.94,11.248,10.797,12.43c0.215,0.037,0.205,1.521,0.253,2.332
	c0.036,0.61-0.212,1.324,0.024,1.822c3.305,6.956,9.152,10.734,16.76,12.476c-4.189-4.981-8.379-9.963-11.936-14.192
	c6.512-1.222,13.937-2.614,21.073-3.954c-1.693-4.605-2.814-8.755-4.722-12.505c-1.618-3.182-4.048-5.978-6.29-8.808
	c-2.953-3.727-6.031-0.108-9.265,0.337c2.108,1.378,4.217,2.757,6.326,4.135c-0.084,0.168-0.168,0.336-0.252,0.504
	C849.013,508.889,841.78,506.868,833.12,504.449z M823.422,478.91c0.146-0.427,0.291-0.854,0.437-1.281
	c3.71,0.709,7.419,1.418,11.579,2.213c-1.855,1.285-3.245,2.248-5.747,3.982c3.591,1.68,6.265,2.93,8.836,4.133
	c-0.094,0.143-0.521,0.787-0.571,0.865c4.808,4.024,9.382,7.854,13.403,11.22c1.28-1.884,1.954-2.876,3.35-4.93
	c-4.737-4.795-9.972-10.208-15.336-15.491c-5.356-5.275-10.841-10.42-15.44-14.826c-10.329,1.746-18.727-1.664-27.602-4.461
	c5.617,8.506,11.621,16.459,17.905,24.186c0.892,1.096,3.144,1.084,4.897,1.626c0.131-1.704,0.21-2.734,0.3-3.895
	c2.951,1.481,5.573,2.798,8.407,4.221c-0.229-2.352-0.438-4.52-0.644-6.626C826.164,479.59,824.793,479.25,823.422,478.91z
	 M653.76,521.428c0.278-0.253,0.557-0.505,0.835-0.758c-1.86-2.792-3.721-5.584-5.581-8.376c6.972,3.773,11.823,10.453,19.837,12.21
	c-6.719-12.952-19.848-18.858-29.182-28.609c-4.158,3.249-4.274,6.27-1.521,9.225c-3.02-0.743-5.915-1.456-8.812-2.168
	c2.056,3.019,4.264,5.128,6.516,7.188c2.476,2.264,4.746,4.878,7.554,6.616C646.598,518.73,650.286,519.904,653.76,521.428z
	 M863.426,717.655c-0.076-2.347-1.848-6.418,3.85-2.881c2.084,1.294,5.64,0.638,8.439,0.253c3.354-0.46,6.599-2.167,9.922-2.262
	c3.669-0.104,7.372,1.007,11.052,1.587c0.879-1.207,1.758-2.415,3.154-4.334c-7.979-3.024-15.87-2.679-23.881-1.742
	c1.356,0.485,2.712,0.971,4.067,1.457c-0.073,0.295-0.146,0.59-0.22,0.885c-16.941-0.594-33.882-1.188-51.793-1.816
	C840.488,711.92,851.863,714.764,863.426,717.655z M537.648,658.252c0.587-9.059-6.094-15.109-14.05-13.141
	c-6.442,1.594-12.832,3.403-19.216,5.222c-0.75,0.214-1.312,1.089-2.445,2.083C514.32,654.439,525.961,656.342,537.648,658.252z
	 M787.511,709.648c0.155-0.706,0.312-1.413,0.468-2.119c-10.487-7.412-23.902-6.072-35.536-10.584
	c1.702,1.486,3.405,2.973,5.296,4.622c-2.136,0.745-4.049,1.413-7.007,2.445c9.359,4.573,18.806,6.412,28.615,8.531
	c-0.338-2.175-0.548-3.525-0.615-3.958C781.743,708.951,784.627,709.3,787.511,709.648z M847.871,646.701
	c0.535-3.085,1.326-6.004,1.385-8.938c0.019-0.949-2.098-2.914-2.875-2.745c-4.223,0.918-4.12-1.919-4.679-4.563
	c-0.699-3.311-7.731-9.987-10.848-10.366c1.526,3.357,3.647,6.477,4.325,9.883c0.941,4.728,1.132,9.679,1.027,14.521
	c-0.097,4.468,2.805,5.893,5.997,7.237c1.595,0.672,3.354,0.952,5.038,1.409c-0.207-1.349-1.141-1.931-1.947-2.654
	c-0.85-0.761-1.579-1.656-2.361-2.493c0.206-0.223,0.411-0.445,0.616-0.668c1.373,0.834,2.746,1.669,4.119,2.504
	c0.116-0.176,0.231-0.352,0.347-0.526c-1.305-1.646-2.608-3.292-3.913-4.938c0.346-0.282,0.692-0.565,1.038-0.849
	C846.004,644.521,846.866,645.527,847.871,646.701z M498.525,660.984c0.073,0.536,0.146,1.071,0.22,1.607
	c13.308,7.776,28.699,5.081,43.126,7.934c-2.526-2.729-5.045-6.311-8.117-6.876c-10.434-1.919-21.058-2.825-31.627-3.954
	C500.985,659.574,499.729,660.529,498.525,660.984z M623.685,594.979c1.782,4.127,3.354,7.928,5.083,11.656
	c0.452,0.975,1.256,2.255,2.134,2.48c3.626,0.936,7.342,1.52,11.526,2.33c-2.053-3.85-3.507-7.468-5.734-10.521
	c-2.68-3.671-6.018-6.86-9.198-10.402C625.735,592.58,624.574,593.938,623.685,594.979z M818.379,621.986
	c0.324-0.485,0.647-0.971,0.971-1.456c-3.988-3.703-7.721-10.037-12.027-10.455c-5.557-0.539-7.545-8.697-14.377-5.006
	c2.489,2.131,4.735,4.053,6.981,5.975c-0.136,0.22-0.272,0.44-0.408,0.66c-1.231-0.403-2.462-0.807-3.809-1.249
	c-0.065,4.522,3.068,7.448,6.926,7.523c4.543,0.088,9.43-0.789,13.053,3.334C816.191,621.884,817.464,621.778,818.379,621.986z
	 M676.979,455.661c2.395,3.277,5.049,7.051,7.887,10.681c0.577,0.739,1.844,0.939,2.793,1.388c0.357-0.79,0.716-1.581,0.969-2.139
	c1.796-0.161,3.742-0.337,5.874-0.528c-2.339-2.539-4.057-4.403-5.774-6.268c0.262-0.238,0.523-0.477,0.785-0.716
	c1.131,0.959,2.263,1.918,3.395,2.877c0.277-0.278,0.555-0.557,0.832-0.835c-3.66-4.182-7.319-8.362-10.48-11.975
	C680.812,451.074,678.817,453.46,676.979,455.661z M564.654,659.559c0.668-0.303,1.336-0.604,2.004-0.906
	c1.289-4.743,2.579-9.486,4.004-14.723c-5.21,0-10.606,0-17.328,0C557.425,649.577,561.04,654.567,564.654,659.559z
	 M535.494,582.137c5.349,3.82,20.68,1.771,23.911-3.828c-7.065-0.76-13.686-1.473-20.248-2.18
	C537.884,578.218,536.78,580.027,535.494,582.137z M932.372,635.717c-5.014-10.803-15.511-14.272-23.32-21.285
	c-1.999,0.927-4.328,2.007-8.006,3.712c6.518,2.694,11.991,4.394,16.879,7.137C922.75,627.989,926.982,631.755,932.372,635.717z
	 M863.226,462.604c-0.126-3.149-5.064-4.99-1.065-7.235c-1.743-1.358-3.42-2.663-5.437-4.234c-1.303,0-3.197,0-5.361,0
	c3.82-6.506-4.259-7.548-4.731-11.901c0,4.226,0,8.45,0,11.283C852.555,454.831,857.891,458.718,863.226,462.604z M651.283,535.307
	c-8.129-8.706-19.457-11.112-29.441-16.109C630.859,526.11,640.207,532.396,651.283,535.307z M928.051,715.415
	c-0.057-3.787-3.275-5.758-7.172-4.491c-2.055,0.668-4.511,0.743-6.654,0.357c-4.526-0.813-8.967-2.106-13.442-3.202
	c-0.22,0.575-0.438,1.15-0.658,1.726c2.599,1.525,5.062,3.994,7.821,4.387C914.453,715.119,921.103,715.059,928.051,715.415z
	 M978.117,664.263c-7.52-4.222-9.758-14.777-19.76-16.104C962.555,656.586,968.571,662.591,978.117,664.263z M882.412,470.655
	c-6.857-0.357-2.106-4.834-3.039-7.252c-7.635-1.039-7.871-0.905-8.489,4.349c3.825,2.646,7.362,5.094,11.076,7.664
	C882.141,473.517,882.289,471.949,882.412,470.655z M438.758,445.651c1.909-0.3,5.22-1.201,5.393-0.788
	c2.019,4.817,5.117,3.229,9.798,1.392c-4.318-2.639-7.723-4.719-10.859-6.635C441.261,442.167,439.964,443.973,438.758,445.651z
	 M343.812,522.968c-0.629,2.17-1.312,3.198-1.051,3.849c1.438,3.582,3.014,7.119,4.763,10.56c0.449,0.883,1.697,1.358,2.578,2.021
	c0.105-1.176,0.663-2.558,0.238-3.493C348.546,531.953,346.458,528.136,343.812,522.968z M335.614,518.939
	c-1.157,2.726-2.396,4.712-2.777,6.852c-0.278,1.559,0.163,3.61,1.067,4.891c0.638,0.903,2.58,1.08,3.954,1.12
	c0.314,0.01,1.252-2.517,0.941-2.792c-3.102-2.752-1.478-6.313-1.965-9.491C336.785,519.193,335.785,519.015,335.614,518.939z
	 M407.86,648.902c5.387,6.829,7.974,7.984,12.642,6.058C417.642,650.659,414.249,647.082,407.86,648.902z M420.562,650.558
	c3.378,3.958,5.771,8.076,11.422,5.896C431.873,647.928,424.808,652.839,420.562,650.558z M421.304,631.664
	c-3.267-3.718-5.883,0.746-8.947,1.022c-0.189,0.565-0.38,1.131-0.569,1.696c2.904,1.364,5.808,2.729,8.769,4.121
	C420.86,635.724,421.059,633.912,421.304,631.664z M710.088,488.383c-3.054,2.388-5.593,4.372-8.496,6.642
	c3.405,3.662,6.982-0.032,10.814,0.896C711.506,492.994,710.807,490.72,710.088,488.383z M404.894,633.871
	c-1.505-4.407-10.163-6.072-15.021-3.39c2.386,0.811,4.781,1.841,7.281,2.411C399.613,633.453,402.181,633.549,404.894,633.871z
	 M760.145,645.031c-0.05-0.492-0.1-0.984-0.149-1.476c-2.981-0.913-5.963-1.827-9.228-2.827c-0.532,2.628-0.906,4.47-1.459,7.199
	C753.423,646.828,756.784,645.93,760.145,645.031z M471.227,453.768c0.116-0.628,0.232-1.256,0.349-1.883
	c-4.048-5.208-9.575-2.271-14.498-2.658c-0.11,0.578-0.222,1.156-0.332,1.734C461.572,451.896,466.399,452.832,471.227,453.768z
	 M612.977,478.507c-4.063,2.526-6.737,4.072-9.254,5.842c-0.583,0.41-0.63,1.585-0.923,2.408c0.844,0.2,1.884,0.814,2.496,0.525
	c2.182-1.034,4.399-2.16,6.229-3.698C612.345,482.895,612.277,481.148,612.977,478.507z M703.955,502.187
	c1.051,2.095,1.52,3.52,2.399,4.613c0.608,0.757,1.851,1.542,2.69,1.429c0.944-0.127,2.082-1.08,2.548-1.978
	c0.728-1.402,0.959-3.061,1.488-4.918C710.675,501.558,707.603,501.846,703.955,502.187z M714.242,635.052
	c-0.417,0.305-0.834,0.609-1.25,0.914c2.768,4.558,5.536,9.114,8.304,13.671c0.55-0.322,1.1-0.646,1.649-0.968
	C723.077,642.381,715.832,640.347,714.242,635.052z M901.938,493.451c-2.451,1.018-2.805,2.449-0.242,4.278
	c0.896,0.64,1.832,1.243,2.636,1.986c0.727,0.671,1.298,1.51,1.938,2.274c0.539-0.65,1.57-1.35,1.513-1.942
	c-0.108-1.11-0.607-2.393-1.378-3.181C905.163,495.595,903.569,494.664,901.938,493.451z M613.335,475.82
	c-0.197,0.373-0.396,0.746-0.593,1.119c1.239,1.603,2.478,3.205,3.922,5.072c2.031-1.272,3.763-2.357,5.494-3.442
	c-0.034-0.539-0.069-1.078-0.104-1.617C619.147,476.575,616.241,476.197,613.335,475.82z M616.901,669.211
	c-3.973-3.679-9.95-3.607-11.601,0C609.08,669.211,612.5,669.211,616.901,669.211z M89.499,150.494
	c1.511,6.356,6.312,10.499,11.938,10.801C97.487,157.721,93.859,154.439,89.499,150.494z M483.808,644.138
	c-2.062-6.348-9.291-12.78-12.939-12.188C474.938,635.784,479.215,639.812,483.808,644.138z M772.06,431.334
	c0.421-0.497,0.843-0.995,1.264-1.493c-4.324-3.65-8.648-7.301-12.973-10.951c-0.318,0.379-0.637,0.757-0.955,1.136
	C763.617,423.795,767.838,427.564,772.06,431.334z M498.921,504.641c-0.519,0.445-1.037,0.892-1.556,1.338
	c2.762,3.133,5.523,6.266,8.284,9.397c0.458-0.389,0.915-0.777,1.373-1.166C504.322,511.021,501.621,507.83,498.921,504.641z
	 M451.143,440.46c2.709,5.203,5.845,6.375,10.05,4.059C457.364,442.973,454.254,441.717,451.143,440.46z"/>
<path fill-rule="evenodd" clip-rule="evenodd" d="M206.961,536.245c1.551,1.323,3.573,2.224,4.138,3.687
	c1.654,4.283,4.545,6.771,8.521,9.012c10.349,5.835,20.31,12.355,30.52,18.443c3.097,1.847,6.503,3.175,10.069,4.886
	c-0.951,0.747-1.986,1.559-3.472,2.726c5.051,2.391,9.612,4.551,14.174,6.71c-5.019,1.445-9.625,0.598-13.896-2.837
	c0.321,5.49,4.134,8.53,8.915,7.418c1.688,2.612-5.531,6.063,0.973,8.029c-1.403,1.297-2.536,2.344-3.618,3.345
	c-3.569-2.022-7.243-3.968-10.775-6.14c-4.692-2.887-9.559-5.603-13.802-9.063c-2.706-2.207-5.605-4.283-7.069-8.224
	c-1.726-4.647-13.756-8.384-17.503-6.857c-1.858-1.928-3.586-3.72-5.065-5.254C205.692,554.075,204.455,545.715,206.961,536.245z
	 M245.853,585.197c-0.027,0.543-0.055,1.085-0.083,1.627c5.333,0.386,8.886,6.441,15.577,3.87c-1.396-1.976-2.589-3.666-3.792-5.37
	c-4.164,3.522-6.153-0.057-8.499-2.537C247.909,583.649,246.881,584.424,245.853,585.197z"/>
<path fill-rule="evenodd" clip-rule="evenodd" d="M172.781,567.801c-1.708,1.777-3.415,3.555-4.728,4.922
	c-3.418-5.033-6.969-10.101-10.343-15.282c-2.45-3.762-1.415-7.122,2.928-9.94c1.662-1.079,3.477-1.924,5.498-3.026
	c-0.151,1.094-0.277,2.007-0.403,2.919c0.247,0.09,0.494,0.18,0.741,0.27c1.129-2.298,2.258-4.596,3.387-6.893
	c0.31,0.128,0.62,0.256,0.93,0.384c-0.318,1.479-0.635,2.958-0.953,4.437c0.586,0.415,1.171,0.83,1.757,1.245
	c0.677-1.243,1.354-2.486,2.699-4.956c1.922,2.929,3.112,5.521,5,7.42c2.335,2.349,3.169,4.028,1.382,7.409
	c-0.829,1.568,1.322,4.711,2.378,7.919c-1.257,0.107-3.318,0.282-5.379,0.457c-0.2-0.505-0.4-1.009-0.6-1.513
	c-1.059,1.579-2.118,3.157-3.176,4.736C173.527,568.139,173.154,567.97,172.781,567.801z"/>
<path fill-rule="evenodd" clip-rule="evenodd" d="M636.356,368.929c2.765-3.648,4.864-8.302,8.466-10.685
	c4.235-2.801,7.343-6.095,9.252-10.436c1.653-3.759,5.04-3.84,8.005-4.813c0.612-0.201,2.361,1.175,2.614,2.092
	c1.051,3.807,2.297,7.703,2.389,11.592c0.098,4.14-0.358,8.348-6.313,9.229c-7.762,1.148-15.395,3.166-23.082,4.81
	C637.244,370.121,636.8,369.525,636.356,368.929z"/>
<path fill-rule="evenodd" clip-rule="evenodd" d="M634.498,685.573c-0.192-2.127-0.354-3.916-0.639-7.076
	c7.05,9.355,17.157,10.3,26.186,13.604c-1.083-0.841-2.166-1.681-3.249-2.521c0.164-0.313,0.329-0.628,0.493-0.941
	c3.793,1.763,7.585,3.526,11.023,5.125c0.214-1.369,0.42-2.683,0.604-3.858c2.738,1.331,4.989,2.426,7.24,3.521
	c0.15-0.299,0.302-0.598,0.453-0.896c-1.451-0.904-2.901-1.809-4.844-3.02c10.644-0.143,14.215,8.964,21.954,14.403
	c-12.053,1.064-20.625-6.002-30.462-8.282C653.347,693.333,643.918,688.958,634.498,685.573z"/>
<path fill-rule="evenodd" clip-rule="evenodd" d="M158.856,119.153c8.213,0.709,14.528,6.725,22.033,9.412
	c7.59,2.718,15.484,5.715,20.742,14.776c-2.641-0.534-4.469-1.264-6.27-1.203c-6.852,0.232-11.941-3.289-17.103-7.145
	c-4.588-3.428-9.641-6.229-14.418-9.412c-2.078-1.384-3.981-3.031-5.964-4.558C158.203,120.399,158.53,119.776,158.856,119.153z"/>
<path fill-rule="evenodd" clip-rule="evenodd" d="M192.898,524.864c3.434,0.458,5.412,0.723,7.997,1.067
	c2.093,3.357,1.655,6.55-3.679,8.739c2.086,1.637,3.743,2.936,5.617,4.405c-2.594,2.03-6.295,3.555-6.413,5.317
	c-0.211,3.172,1.728,6.486,1.85,10.403c-1.642-1.959-3.283-3.918-5.272-6.291c-0.536,1.319-1.029,2.531-1.521,3.744
	c-0.383-0.078-0.767-0.156-1.15-0.233c0.432-2.132,0.17-5.443,1.422-6.179c4.157-2.442,3.867-5.37,2.117-8.783
	c-1.458-2.842-1.51-5.078,1.668-6.345C194.666,528.784,193.854,526.982,192.898,524.864z"/>
<path fill-rule="evenodd" clip-rule="evenodd" d="M752.327,310.905c-9.342,1.004-16.757-1.309-22.905-7.469
	C732.972,299.95,745.627,303.864,752.327,310.905z"/>
<path fill-rule="evenodd" clip-rule="evenodd" d="M959.415,541.217c-0.112-2.718,0.081-5.495-0.435-8.134
	c-0.417-2.138-1.368-4.337-2.639-6.11c-3.652-5.092-2.685-10.734,3.84-13.178c0.461,9.305,0.901,18.178,1.342,27.05
	C960.82,540.969,960.118,541.093,959.415,541.217z"/>
<path fill-rule="evenodd" clip-rule="evenodd" d="M70.572,444.967c2.703,0.637,4.312,1.063,5.94,1.39
	c2.863,0.572,4.917,0.724,2.939,5.007c-1.042,2.258,1.286,6.071,2.187,9.545c-0.877,0.327-2.193,0.818-4.133,1.543
	C75.197,456.629,73.013,451.121,70.572,444.967z"/>
<path fill-rule="evenodd" clip-rule="evenodd" d="M803.681,350.825c10.672,5.638,22.687,8.632,32.479,16.003
	c-0.237,0.473-0.475,0.945-0.712,1.419c-10.853-5.324-21.706-10.647-32.559-15.972C803.153,351.792,803.417,351.309,803.681,350.825
	z"/>
<path fill-rule="evenodd" clip-rule="evenodd" d="M632.701,322.72c0.566,3.958,1.133,7.917,1.794,12.533
	c-2.806,0.737-5.402,1.421-9.397,2.471c2.28-5.879,4.096-10.558,5.911-15.236C631.572,322.565,632.137,322.643,632.701,322.72z"/>
<path fill-rule="evenodd" clip-rule="evenodd" d="M772.547,339.851c9.817,2.728,19.938,4.656,28.689,10.2
	c-0.162,0.424-0.324,0.847-0.486,1.271c-9.559-3.403-19.117-6.807-28.676-10.21C772.231,340.691,772.39,340.271,772.547,339.851z"/>
<path fill-rule="evenodd" clip-rule="evenodd" d="M958.031,501.431c0.501,0.562,1.738,1.951,2.977,3.341
	c-0.367,0.361-0.735,0.722-1.103,1.083c-3.818-3.532-7.637-7.065-11.455-10.599c0.231-0.34,0.463-0.681,0.694-1.021
	c1.722,1.04,3.443,2.081,5.595,3.381c3.433-1.03,7.662-2.2,3.994-8.438c0.512-0.057,1.022-0.114,1.534-0.172
	c0.705,1.212,2.247,2.69,1.961,3.586C961.339,495.38,959.757,497.947,958.031,501.431z"/>
<path fill-rule="evenodd" clip-rule="evenodd" d="M789.526,354.065c11.273,5.084,21.415,9.657,31.558,14.229
	c-0.059,0.502-0.116,1.004-0.174,1.505c-0.871,0.254-2.238,0.995-2.539,0.689c-7.319-7.463-17.499-8.953-26.508-12.863
	c-0.583-0.253-1.118-0.662-1.594-1.091C790.065,356.352,790.07,355.935,789.526,354.065z"/>
<path fill-rule="evenodd" clip-rule="evenodd" d="M960.704,481.246c0.608-0.375,1.569-0.967,2.53-1.559
	c0.164,2.256,0.329,4.513,0.551,7.557c-2.541-1.132-4.103-1.724-5.563-2.505c-1.459-0.781-2.899-1.655-4.133-2.735
	c-0.195-0.172,0.876-2.427,1.141-2.383C956.924,479.901,958.556,480.556,960.704,481.246z"/>
<path fill-rule="evenodd" clip-rule="evenodd" d="M183.127,541.182c2.36-4.841-0.929-6.879-4.196-8.835
	c1.878-1.401,3.438-2.564,5.269-3.93C186.372,530.379,186.426,537.886,183.127,541.182z"/>
<path fill-rule="evenodd" clip-rule="evenodd" d="M577.052,271.851c5.997,4.423,11.993,8.847,17.99,13.271
	c-0.313,0.432-0.625,0.863-0.938,1.295c-6.038-4.412-12.076-8.823-18.114-13.235C576.344,272.738,576.698,272.294,577.052,271.851z"
	/>
<path fill-rule="evenodd" clip-rule="evenodd" d="M939.689,468.53c1.263,2.969,2.526,5.938,3.789,8.906
	c-0.529,0.179-1.06,0.358-1.589,0.538c-0.348-0.96-0.694-1.92-1.108-3.065c-0.925,0.478-1.82,0.939-4.006,2.067
	c0.589-3.674,1-6.246,1.412-8.818C938.688,468.282,939.188,468.406,939.689,468.53z"/>
</svg>
